<?xml version="1.0" encoding="UTF-8"?>
<svg version="1.1" xmlns="http://www.w3.org/2000/svg" width="860" height="681">
<path d="M0 0 C283.8 0 567.6 0 860 0 C860 224.73 860 449.46 860 681 C576.2 681 292.4 681 0 681 C0 456.27 0 231.54 0 0 Z " fill="#000000" transform="translate(0,0)"/>
<path d="M0 0 C5.04127632 0.01307716 10.08254274 0.00856273 15.12383127 0.00629318 C23.83668157 0.00472775 32.54946394 0.01406003 41.26229715 0.03100669 C53.85924599 0.05549198 66.45616233 0.06321167 79.05313239 0.06697067 C99.49582532 0.07352028 119.93848214 0.0934408 140.38115549 0.1218785 C160.22750783 0.14945779 180.07385033 0.17067239 199.92021799 0.18340194 C201.75829955 0.1845842 201.75829955 0.1845842 203.63351408 0.18579034 C209.78153868 0.18970573 215.92956336 0.19349679 222.07758808 0.19722605 C273.00074227 0.2282755 323.92385726 0.28107047 374.8469758 0.34819686 C374.8469758 1.00819686 374.8469758 1.66819686 374.8469758 2.34819686 C376.1051008 2.45132186 377.3632258 2.55444686 378.6594758 2.66069686 C386.15214233 3.49978097 396.91532792 4.97080983 402.1907258 10.84429061 C404.29539115 12.75536646 406.10907922 13.19770296 408.8469758 13.91069686 C412.10344667 14.76842803 413.99262793 15.44529828 416.8469758 17.34819686 C416.8469758 18.00819686 416.8469758 18.66819686 416.8469758 19.34819686 C417.39611643 19.59182968 417.94525705 19.83546249 418.5110383 20.08647811 C425.49148487 23.8568531 431.60293284 29.63468449 436.52275705 35.80913436 C437.99759282 37.62156865 437.99759282 37.62156865 440.8469758 39.72319686 C449.892463 47.63799816 453.86095679 59.58148188 458.0344758 70.53569686 C458.28455393 71.18868759 458.53463205 71.84167831 458.7922883 72.51445663 C461.06252179 78.60650546 463.17756931 84.76920459 462.9719758 91.34819686 C462.95392893 92.11132186 462.93588205 92.87444686 462.9172883 93.66069686 C462.88248362 94.49600936 462.88248362 94.49600936 462.8469758 95.34819686 C463.5069758 95.34819686 464.1669758 95.34819686 464.8469758 95.34819686 C464.8469758 121.41819686 464.8469758 147.48819686 464.8469758 174.34819686 C461.15453829 173.42508748 459.59151837 172.7986813 456.8469758 170.34819686 C456.8469758 169.68819686 456.8469758 169.02819686 456.8469758 168.34819686 C456.20888987 168.16643905 455.57080393 167.98468124 454.91338205 167.79741561 C454.08709299 167.54604843 453.26080393 167.29468124 452.4094758 167.03569686 C451.58576487 166.79206405 450.76205393 166.54843124 449.91338205 166.29741561 C448.89051096 165.82755233 448.89051096 165.82755233 447.8469758 165.34819686 C447.5169758 164.35819686 447.1869758 163.36819686 446.8469758 162.34819686 C446.24111643 162.23862655 445.63525705 162.12905624 445.0110383 162.01616561 C444.17314768 161.85761093 443.33525705 161.69905624 442.4719758 161.53569686 C441.25381174 161.3094664 441.25381174 161.3094664 440.0110383 161.07866561 C437.17522392 160.4239776 434.43330361 159.64569329 431.6492219 158.80254257 C430.74964762 158.53069641 429.85007334 158.25885025 428.92323923 157.97876632 C428.2380723 157.7706784 427.55290537 157.56259048 426.8469758 157.34819686 C426.84110956 156.62458465 426.83524332 155.90097244 426.82919931 155.15543258 C426.77113952 148.3144056 426.69898718 141.47365439 426.61126089 134.6329478 C426.56665674 131.11658633 426.52737942 127.60033806 426.50054026 124.08379257 C426.46939937 120.03491586 426.41461481 115.98665148 426.35869455 111.93804061 C426.35230463 110.68361663 426.34591471 109.42919265 426.33933115 108.13675582 C426.23234404 101.75511515 425.89329188 96.9902485 422.8469758 91.34819686 C422.33610429 89.71192722 421.85303853 88.06648072 421.4094758 86.41069686 C419.01413416 78.32030824 415.68567699 72.76935747 409.92119455 66.57866561 C407.98338521 64.49488194 406.16688274 62.34708392 404.3469758 60.16069686 C401.36795495 56.71383901 398.11173873 54.12957282 394.35088205 51.57475936 C393.85459299 51.16999374 393.35830393 50.76522811 392.8469758 50.34819686 C392.8469758 49.68819686 392.8469758 49.02819686 392.8469758 48.34819686 C392.3107258 48.26569686 391.7744758 48.18319686 391.2219758 48.09819686 C388.8469758 47.34819686 388.8469758 47.34819686 385.9719758 45.41069686 C374.25188052 37.67543398 357.7546426 37.90275167 344.14873362 37.96724594 C342.52940288 37.96377969 340.91007451 37.9590087 339.29075098 37.9530642 C334.88830775 37.94065723 330.48606214 37.94667704 326.08361864 37.95602286 C321.31734684 37.96285572 316.55110726 37.95231127 311.78484201 37.94408309 C302.46640686 37.93078848 293.14804446 37.93360439 283.82960653 37.94232102 C276.25193485 37.94911403 268.67428346 37.9500073 261.09660959 37.94674957 C259.47487829 37.94606002 259.47487829 37.94606002 257.82038474 37.94535654 C255.62359698 37.9443973 253.42680923 37.94342466 251.23002148 37.94243877 C230.6620089 37.93389738 210.09403652 37.94369933 189.52603054 37.95983987 C171.90252342 37.9732419 154.2790756 37.97091345 136.65556955 37.95708358 C116.15789805 37.94100562 95.66026172 37.93472124 75.16258478 37.94392037 C72.97417053 37.94487596 70.78575628 37.94581907 68.59734201 37.94674957 C66.98250197 37.94744381 66.98250197 37.94744381 65.3350389 37.94815207 C57.77215539 37.95073532 50.20929431 37.94638536 42.64641428 37.93931091 C33.42165729 37.93087105 24.19697682 37.93322812 14.97222853 37.94915314 C10.27147384 37.9570025 5.57084643 37.96018477 0.87009287 37.95020568 C-3.44291354 37.94118864 -7.75567608 37.94630549 -12.06866074 37.96213834 C-13.61892554 37.96545675 -15.16921146 37.96385942 -16.71946239 37.95651098 C-35.57001071 37.87409396 -52.72449918 40.73757713 -67.87568045 52.77397811 C-70.1530242 54.34819686 -70.1530242 54.34819686 -73.1530242 54.34819686 C-73.1530242 55.00819686 -73.1530242 55.66819686 -73.1530242 56.34819686 C-74.1430242 56.34819686 -75.1330242 56.34819686 -76.1530242 56.34819686 C-76.1942742 57.02882186 -76.2355242 57.70944686 -76.2780242 58.41069686 C-77.15606477 61.35840452 -77.76971017 62.2314625 -79.7780242 64.41069686 C-85.60319759 70.853479 -90.14110711 78.71474974 -92.47753662 87.09678286 C-93.1530242 89.34819686 -93.1530242 89.34819686 -93.91771513 91.16634279 C-97.00362419 98.73228203 -96.57361001 106.58789222 -96.54070425 114.61121261 C-96.5448806 116.26860121 -96.55035977 117.92598695 -96.55702406 119.58336741 C-96.57145802 124.12335586 -96.56724034 128.66316245 -96.55985725 133.20316076 C-96.55512277 138.10513565 -96.56763797 143.00707136 -96.57787466 147.90903366 C-96.59506296 157.50715275 -96.59590253 167.10520638 -96.59066176 176.70333687 C-96.58661859 184.50623018 -96.58806536 192.30910415 -96.59341002 200.11199653 C-96.59453265 201.77851323 -96.59453265 201.77851323 -96.59567796 203.47869694 C-96.59720946 205.73580836 -96.59874781 207.99291978 -96.60029293 210.2500312 C-96.61401829 231.41305112 -96.60858021 252.57603407 -96.59710772 273.73905315 C-96.5871771 293.0911912 -96.600113 312.44323361 -96.62404191 331.79535691 C-96.64843739 351.67488788 -96.65803956 371.55437432 -96.65138918 391.43391997 C-96.64789773 402.59122912 -96.65012407 413.74846473 -96.66764021 424.90576255 C-96.68236784 434.40456934 -96.68299032 443.90325083 -96.6655693 453.40205518 C-96.65706128 458.24609523 -96.65490496 463.08991148 -96.67022085 467.93393981 C-96.68408386 472.37351958 -96.67928408 476.81268418 -96.65998162 481.25224002 C-96.65622622 482.85311484 -96.65913024 484.45402305 -96.66959327 486.05486808 C-96.72684219 495.48933809 -95.81612236 503.56344368 -92.1530242 512.34819686 C-91.89168847 513.01039806 -91.63035274 513.67259926 -91.36109775 514.35486716 C-90.73660788 515.90596472 -90.07214657 517.44082403 -89.4030242 518.97319686 C-87.1530242 524.13735349 -87.1530242 524.13735349 -87.1530242 526.34819686 C-86.1630242 526.67819686 -85.1730242 527.00819686 -84.1530242 527.34819686 C-82.7233367 529.23882186 -82.7233367 529.23882186 -81.2780242 531.59819686 C-79.47985078 534.42325734 -77.77687003 536.9210266 -75.3405242 539.22319686 C-73.1530242 541.34819686 -73.1530242 541.34819686 -72.1530242 544.34819686 C-71.58970388 544.48483749 -71.02638357 544.62147811 -70.44599295 544.76225936 C-67.12882754 545.60991662 -65.11538251 547.58252701 -62.4655242 549.72319686 C-55.73726459 554.97572624 -49.58754335 557.26684825 -41.1530242 558.34819686 C-41.1530242 559.00819686 -41.1530242 559.66819686 -41.1530242 560.34819686 C-32.82637926 561.51423559 -24.54040759 561.50142337 -16.15093374 561.50641525 C-14.52211848 561.5109863 -12.89330437 561.51598711 -11.26449162 561.52137882 C-6.8040098 561.53490749 -2.34353556 561.54236294 2.11696136 561.54880548 C6.93280809 561.55683268 11.74863916 561.57052242 16.56447458 561.58351791 C24.90315938 561.60524781 33.24184578 561.62340501 41.58054399 561.63912284 C53.63684305 561.66185327 65.69312473 561.68999167 77.74940901 561.71944212 C97.31081357 561.76707917 116.87222524 561.81035387 136.43364573 561.85088241 C155.43365135 561.89025713 174.43365067 561.93168809 193.43364573 561.97588241 C194.60517048 561.97860668 195.77669523 561.98133096 196.98372073 561.98413778 C202.8610251 561.99781759 208.73832938 562.01153779 214.61563361 562.02527809 C263.35940115 562.13918179 312.10318239 562.24600463 360.8469758 562.34819686 C360.8469758 561.68819686 360.8469758 561.02819686 360.8469758 560.34819686 C362.47506174 560.07556015 362.47506174 560.07556015 364.1360383 559.79741561 C365.58143718 559.54400153 367.02674498 559.29006761 368.4719758 559.03569686 C369.54125315 558.85877304 369.54125315 558.85877304 370.63213205 558.67827499 C375.16561069 557.86723982 378.7757072 556.60398125 382.8469758 554.34819686 C384.50514364 553.66066386 386.17156917 552.99258403 387.8469758 552.34819686 C388.7751008 551.97694686 389.7032258 551.60569686 390.6594758 551.22319686 C391.3813508 550.93444686 392.1032258 550.64569686 392.8469758 550.34819686 C392.8469758 549.68819686 392.8469758 549.02819686 392.8469758 548.34819686 C396.30851426 545.34819686 396.30851426 545.34819686 398.8469758 545.34819686 C398.8469758 544.68819686 398.8469758 544.02819686 398.8469758 543.34819686 C399.5069758 543.34819686 400.1669758 543.34819686 400.8469758 543.34819686 C400.8469758 542.35819686 400.8469758 541.36819686 400.8469758 540.34819686 C402.49031084 539.31030105 404.15941447 538.31251763 405.8469758 537.34819686 C406.5069758 536.35819686 407.1669758 535.36819686 407.8469758 534.34819686 C408.8369758 534.34819686 409.8269758 534.34819686 410.8469758 534.34819686 C411.0944758 533.83257186 411.3419758 533.31694686 411.5969758 532.78569686 C412.56281984 530.90230099 413.59753465 529.05412988 414.6594758 527.22319686 C421.75879682 514.77289507 425.92491283 502.97814764 426.00519419 488.47016037 C426.01260115 487.48726167 426.01260115 487.48726167 426.02015775 486.48450643 C426.03540362 484.30894529 426.04385795 482.13341335 426.05229807 479.957816 C426.06188678 478.39029838 426.07189743 476.82278329 426.08229685 475.25527084 C426.10924448 471.01410134 426.1303087 466.77292083 426.15029883 462.5317136 C426.17222122 458.0940919 426.19957922 453.65650374 426.22635508 449.21890914 C426.27619763 440.82203481 426.32116764 432.42514177 426.36437744 424.02823097 C426.41382208 414.46595514 426.46871333 404.90371299 426.52405703 395.34146976 C426.6377475 375.67707687 426.74461453 356.01265179 426.8469758 336.34819686 C427.5069758 336.34819686 428.1669758 336.34819686 428.8469758 336.34819686 C428.8469758 335.68819686 428.8469758 335.02819686 428.8469758 334.34819686 C429.5069758 334.34819686 430.1669758 334.34819686 430.8469758 334.34819686 C430.8469758 333.68819686 430.8469758 333.02819686 430.8469758 332.34819686 C432.5266633 330.62163436 432.5266633 330.62163436 434.7219758 328.72319686 C435.44127268 328.09155624 436.16056955 327.45991561 436.9016633 326.80913436 C438.8469758 325.34819686 438.8469758 325.34819686 440.8469758 325.34819686 C440.8469758 324.68819686 440.8469758 324.02819686 440.8469758 323.34819686 C441.5069758 323.34819686 442.1669758 323.34819686 442.8469758 323.34819686 C443.1769758 322.35819686 443.5069758 321.36819686 443.8469758 320.34819686 C444.5069758 320.34819686 445.1669758 320.34819686 445.8469758 320.34819686 C446.10092112 319.6147203 446.35486643 318.88124374 446.61650705 318.12554061 C449.81676737 310.90209591 456.71005349 305.13499627 462.8469758 300.34819686 C463.5069758 300.34819686 464.1669758 300.34819686 464.8469758 300.34819686 C464.94064902 326.37481684 465.01106733 352.40141134 465.05422449 378.42816627 C465.07480071 390.51436029 465.10282637 402.60044922 465.14873362 414.68657577 C465.18875313 425.22770028 465.21444447 435.76874864 465.22332978 446.30994701 C465.22851903 451.88522046 465.2406115 457.46027615 465.26989603 463.03547943 C465.29730454 468.29678869 465.30537005 473.55779314 465.29940653 478.81916702 C465.3004955 480.73701664 465.30829631 482.65487782 465.3237977 484.5726651 C465.49008239 506.23069783 461.10683201 529.95841256 448.8469758 548.34819686 C448.1869758 548.34819686 447.5269758 548.34819686 446.8469758 548.34819686 C446.7541633 549.43100936 446.7541633 549.43100936 446.6594758 550.53569686 C445.58691499 554.24840736 443.60907681 555.64747588 440.8469758 558.34819686 C439.81936162 559.85050946 438.82090896 561.37304013 437.8469758 562.91069686 C434.93409168 567.40294527 431.97089182 570.15673178 427.2844758 572.78569686 C424.44911346 574.60323683 422.90012455 576.69897267 420.8469758 579.34819686 C417.9060025 582.07910065 414.80035118 583.19721167 411.0422883 584.40679061 C408.67721635 585.33095754 408.67721635 585.33095754 406.2063508 587.21147811 C401.97986916 589.89971702 397.68706329 591.46578173 392.9719758 593.09819686 C392.11217112 593.41401718 391.25236643 593.72983749 390.36650705 594.05522811 C384.95561604 595.95191374 380.57655101 596.69383249 374.8469758 596.34819686 C374.8469758 597.00819686 374.8469758 597.66819686 374.8469758 598.34819686 C369.71131616 599.06052774 364.77186092 599.47431515 359.57666445 599.47962463 C358.54342283 599.48270358 358.54342283 599.48270358 357.48930764 599.48584473 C355.19411379 599.49147384 352.89898072 599.49006259 350.60378122 599.48863876 C348.93630964 599.49122474 347.26883867 599.49423855 345.60136855 599.49764216 C341.02883142 599.50568795 336.45631002 599.50750038 331.88376665 599.50823963 C326.94834713 599.51009439 322.01293568 599.51764382 317.07752085 599.52437484 C306.29020963 599.53794115 295.50290213 599.54398014 284.7155838 599.5483855 C277.97684987 599.55115062 271.23811737 599.55538845 264.4993844 599.55988967 C245.83257942 599.57207977 227.16577557 599.58237982 208.49896669 599.58576477 C207.30488697 599.58598433 206.11080725 599.5862039 204.8805433 599.58643012 C203.68365059 599.5866484 202.48675789 599.58686667 201.25359571 599.58709157 C198.8283422 599.58753503 196.40308869 599.58798159 193.97783518 599.58843124 C192.77483255 599.58865267 191.57182993 599.5888741 190.33237268 599.58910224 C170.84251138 599.59304968 151.35268749 599.61050323 131.86284064 599.63379076 C111.84095857 599.65752044 91.81909525 599.66996734 71.79719889 599.67113268 C60.56045295 599.6720485 49.32375575 599.67777728 38.08702326 599.6959523 C28.51837228 599.71137503 18.94978512 599.71646089 9.38112406 599.70821419 C4.50244402 599.7043155 -0.37610758 599.70519913 -5.25477171 599.71927154 C-9.72834892 599.73205708 -14.20170178 599.73077233 -18.67527889 599.71868083 C-20.28631669 599.71673187 -21.89737063 599.71976485 -23.50838579 599.72852519 C-42.0549149 599.82292333 -61.45868821 595.72161381 -78.1530242 587.34819686 C-78.6480242 585.86319686 -78.6480242 585.86319686 -79.1530242 584.34819686 C-79.8542742 584.26569686 -80.5555242 584.18319686 -81.2780242 584.09819686 C-88.3303274 582.25846559 -93.78810266 576.313 -99.11786795 571.59429061 C-99.70954763 571.07737655 -100.30122732 570.56046249 -100.9108367 570.02788436 C-101.70191824 569.32768173 -101.70191824 569.32768173 -102.50898123 568.61333358 C-104.15223193 567.26074227 -104.15223193 567.26074227 -106.26459646 566.3213414 C-108.98694511 564.91846076 -109.62646375 563.0649074 -110.9655242 560.34819686 C-112.98747762 556.43193859 -115.11919456 552.84718382 -117.7155242 549.28569686 C-123.2297894 541.52711366 -126.63087825 533.39090634 -129.8405242 524.47319686 C-130.13829763 523.65931503 -130.43607107 522.84543319 -130.74286795 522.00688827 C-134.93680814 509.98505401 -135.44365958 498.1010432 -135.40026236 485.50527084 C-135.40185316 483.8216696 -135.40431944 482.138069 -135.40757877 480.45447016 C-135.41395705 475.85637309 -135.40795165 471.25836485 -135.39981449 466.66027367 C-135.39321027 461.69107199 -135.39819174 456.7218798 -135.40169668 451.75267684 C-135.40672712 442.0319967 -135.40111244 432.3113507 -135.39184638 422.5906748 C-135.3814472 411.2737878 -135.38153294 399.95690811 -135.38201896 388.64001723 C-135.38251908 368.45696183 -135.37336968 348.27392231 -135.35883474 328.09087265 C-135.34472959 308.49451554 -135.33766481 288.8981724 -135.33832693 269.30181015 C-135.33836689 268.09337343 -135.33840684 266.88493671 -135.33844801 265.6398807 C-135.33848836 264.43355225 -135.33852872 263.22722381 -135.3385703 261.98433995 C-135.33925932 239.6787141 -135.33337723 217.37309418 -135.32441708 195.06747025 C-135.32139669 187.17245281 -135.32033707 179.27743646 -135.31988478 171.38241851 C-135.31920409 161.77364292 -135.31475923 152.16487735 -135.30555197 142.55610602 C-135.30092241 137.65057586 -135.29789275 132.74505855 -135.29914618 127.83952606 C-135.30023635 123.35569726 -135.29675281 118.87189696 -135.28949765 114.38807411 C-135.28767547 112.75987602 -135.28756255 111.13167501 -135.28926494 109.50347678 C-135.29131242 107.30275849 -135.28729731 105.10213522 -135.28165865 102.90142524 C-135.28095422 101.67535792 -135.2802498 100.4492906 -135.27952403 99.18606973 C-135.1530242 96.34819686 -135.1530242 96.34819686 -134.1530242 94.34819686 C-133.88162971 92.64313152 -133.63609306 90.93392235 -133.4030242 89.22319686 C-131.07736122 75.10069268 -125.86936937 62.88093028 -119.1530242 50.34819686 C-118.4930242 50.34819686 -117.8330242 50.34819686 -117.1530242 50.34819686 C-117.0705242 49.83257186 -116.9880242 49.31694686 -116.9030242 48.78569686 C-115.03226444 42.70572764 -111.68596819 38.66002164 -107.1530242 34.34819686 C-106.31044974 33.29301016 -105.47719954 32.23031628 -104.6530242 31.16069686 C-102.11415399 28.30446788 -100.63764976 27.60653387 -97.1530242 26.34819686 C-96.6580242 24.86319686 -96.6580242 24.86319686 -96.1530242 23.34819686 C-94.4922957 22.66687235 -92.8252572 22.0007756 -91.1530242 21.34819686 C-90.4930242 20.35819686 -89.8330242 19.36819686 -89.1530242 18.34819686 C-87.48635753 17.6815302 -85.81969086 17.01486353 -84.1530242 16.34819686 C-83.1011492 15.56444686 -82.0492742 14.78069686 -80.9655242 13.97319686 C-77.43529512 11.36755159 -73.82139044 9.8330215 -69.71943045 8.31694686 C-67.19236991 7.40427574 -67.19236991 7.40427574 -64.99286795 6.31694686 C-45.51113963 -2.75391076 -20.92651164 -0.06820133 0 0 Z " fill="#1B448D" transform="translate(265.15302419662476,41.65180313587189)"/>
<path d="M0 0 C0.98097656 -0.01611328 1.96195313 -0.03222656 2.97265625 -0.04882812 C8.4175268 -0.05250213 12.46862546 0.15254599 17.125 3.3125 C18.15111949 4.96321396 19.14808143 6.63220006 20.125 8.3125 C21.82658709 9.93067596 23.60581443 11.41048871 25.421875 12.8984375 C27.45097207 14.58314653 29.26121749 16.44871749 31.125 18.3125 C31.846875 18.828125 32.56875 19.34375 33.3125 19.875 C35.125 21.3125 35.125 21.3125 36.125 24.3125 C37.094375 25.116875 38.06375 25.92125 39.0625 26.75 C43.96419137 30.85141523 44.52528056 34.01544584 45.125 40.3125 C45.21394531 41.16457031 45.30289062 42.01664062 45.39453125 42.89453125 C45.84665314 50.41237198 43.9675071 54.63031828 39.125 60.3125 C35.74931992 64.02574809 31.97528074 67.10393272 28.125 70.3125 C24.82002279 73.4388298 21.8219735 76.78122949 18.8125 80.1875 C15.36954671 84.04934594 11.78411325 87.46448943 7.83203125 90.79296875 C5.63531805 92.74839537 3.94422842 95.008144 2.125 97.3125 C1.155625 98.116875 0.18625 98.92125 -0.8125 99.75 C-3.94420147 102.37040327 -6.30519531 105.14966346 -8.875 108.3125 C-12.3295597 111.94421661 -16.02775419 115.10646183 -19.875 118.3125 C-23.38990204 121.65165694 -26.50085583 125.19251685 -29.54296875 128.95703125 C-29.98253906 129.40433594 -30.42210937 129.85164062 -30.875 130.3125 C-31.535 130.3125 -32.195 130.3125 -32.875 130.3125 C-32.875 130.9725 -32.875 131.6325 -32.875 132.3125 C-34.16015625 133.5390625 -34.16015625 133.5390625 -35.9375 134.9375 C-38.70270357 137.21865385 -41.06182489 139.574456 -43.375 142.3125 C-46.16774037 145.61071374 -49.12499077 148.3831204 -52.4921875 151.0859375 C-54.01603109 152.28425539 -54.01603109 152.28425539 -54.875 154.3125 C-55.535 154.3125 -56.195 154.3125 -56.875 154.3125 C-57.205 155.3025 -57.535 156.2925 -57.875 157.3125 C-60.3125 160 -60.3125 160 -62.875 162.3125 C-63.535 162.3125 -64.195 162.3125 -64.875 162.3125 C-64.875 162.9725 -64.875 163.6325 -64.875 164.3125 C-66.16015625 165.5390625 -66.16015625 165.5390625 -67.9375 166.9375 C-71.45416281 169.83608268 -74.31121907 173.03690955 -77.25390625 176.50390625 C-79.25228168 178.73341908 -81.53422819 180.45188651 -83.875 182.3125 C-85.43154454 184.03092517 -86.91586372 185.79891105 -88.40234375 187.578125 C-91.11616272 190.77424071 -93.98976735 193.63155181 -97.3125 196.1875 C-99.431554 197.94476429 -100.95714847 199.52519503 -102.6875 201.625 C-105.51300678 205.02580327 -108.64797725 207.83567716 -112.00390625 210.703125 C-115.98086203 214.12380513 -119.42903787 217.93400226 -122.875 221.875 C-125.68114502 225.06021151 -128.48270406 227.74535712 -131.875 230.3125 C-135.39154592 233.64871023 -138.50155735 237.19338495 -141.54296875 240.95703125 C-141.98253906 241.40433594 -142.42210937 241.85164062 -142.875 242.3125 C-143.535 242.3125 -144.195 242.3125 -144.875 242.3125 C-144.875 242.9725 -144.875 243.6325 -144.875 244.3125 C-146.52003354 245.84936695 -148.27787405 247.19566985 -150.05078125 248.58203125 C-152.03895967 250.26164202 -152.03895967 250.26164202 -153.10627747 252.88517761 C-154.875 255.3125 -154.875 255.3125 -157.62748718 255.91377258 C-159.29627678 255.897118 -159.29627678 255.897118 -160.9987793 255.88012695 C-162.89040047 255.87956047 -162.89040047 255.87956047 -164.82023621 255.87898254 C-166.19657373 255.85344926 -167.5729012 255.82736928 -168.94921875 255.80078125 C-170.35739386 255.79145438 -171.76558521 255.78433767 -173.17378235 255.77934265 C-176.87811165 255.76026213 -180.58145884 255.71115457 -184.28540039 255.65582275 C-188.06578281 255.60465161 -191.84632412 255.58183332 -195.62695312 255.55664062 C-203.04341624 255.50303487 -210.45907045 255.41771181 -217.875 255.3125 C-217.95108962 247.99852159 -218.00361664 240.68464534 -218.03979492 233.37036133 C-218.05487761 230.8823668 -218.07534654 228.39439883 -218.10131836 225.90649414 C-218.13772337 222.32952312 -218.15473184 218.75290378 -218.16796875 215.17578125 C-218.18345261 214.06415115 -218.19893646 212.95252106 -218.21488953 211.8072052 C-218.21511612 210.76650375 -218.21534271 209.72580231 -218.21557617 208.65356445 C-218.22223801 207.7408931 -218.22889984 206.82822174 -218.23576355 205.88789368 C-217.56424848 201.09412873 -214.91009986 198.04453112 -211.26171875 195.0703125 C-206.47447112 191.02638551 -202.09235335 186.64035259 -197.6875 182.1875 C-196.90697266 181.40246094 -196.12644531 180.61742187 -195.32226562 179.80859375 C-193.81915587 178.29655968 -192.31707371 176.78350319 -190.81616211 175.26928711 C-189.31643084 173.75748405 -187.81161141 172.2507275 -186.3046875 170.74609375 C-184.25062432 168.68872822 -182.21132912 166.61858948 -180.17578125 164.54296875 C-178.84644431 163.19522358 -177.51701548 161.84756904 -176.1875 160.5 C-175.51138672 159.80712891 -174.83527344 159.11425781 -174.13867188 158.40039062 C-173.49091797 157.74619141 -172.84316406 157.09199219 -172.17578125 156.41796875 C-171.58966064 155.82137451 -171.00354004 155.22478027 -170.3996582 154.61010742 C-168.875 153.3125 -168.875 153.3125 -166.875 153.3125 C-166.875 152.6525 -166.875 151.9925 -166.875 151.3125 C-165.47724915 149.93722534 -165.47724915 149.93722534 -163.5012207 148.31201172 C-158.33805762 143.91803824 -153.61618351 139.14242776 -148.85546875 134.3203125 C-147.90714015 133.36501312 -146.95842695 132.41009541 -146.00935364 131.45553589 C-142.0222434 127.44428291 -138.04088249 123.42736114 -134.06420898 119.40576172 C-131.6149482 116.92936545 -129.16054684 114.45815512 -126.7031498 111.98983383 C-125.33976164 110.61741532 -123.98205425 109.23936063 -122.6245575 107.8611145 C-117.42134541 102.63732279 -112.05916575 97.89994356 -106.20796204 93.40890503 C-103.77595978 91.22350223 -102.44913888 89.15452177 -100.875 86.3125 C-98.97265625 84.46875 -98.97265625 84.46875 -96.9375 82.8125 C-93.82928447 80.20616147 -91.38925442 77.50366907 -88.875 74.3125 C-88.215 74.3125 -87.555 74.3125 -86.875 74.3125 C-86.875 73.6525 -86.875 72.9925 -86.875 72.3125 C-86.215 72.3125 -85.555 72.3125 -84.875 72.3125 C-84.875 71.6525 -84.875 70.9925 -84.875 70.3125 C-83.864375 69.631875 -82.85375 68.95125 -81.8125 68.25 C-77.74299731 65.50391282 -75.18452523 62.0739164 -72.35546875 58.10546875 C-71.86691406 57.51378906 -71.37835937 56.92210937 -70.875 56.3125 C-70.215 56.3125 -69.555 56.3125 -68.875 56.3125 C-68.875 55.6525 -68.875 54.9925 -68.875 54.3125 C-66.56564913 51.68461797 -65.23516893 50.43255631 -61.875 49.3125 C-60.14331885 47.68794981 -58.513835 46.02811084 -56.875 44.3125 C-55.42418294 42.84634601 -53.97068818 41.38283963 -52.51538086 39.92114258 C-51.6877977 39.08710403 -50.86021454 38.25306549 -50.0075531 37.39375305 C-46.75565185 34.11867588 -43.50006805 30.8472756 -40.24323177 27.57710743 C-37.77497716 25.09837738 -35.30864779 22.61779004 -32.84643555 20.13305664 C-29.99560885 17.25633771 -27.13671939 14.38775307 -24.27734375 11.51953125 C-23.39497543 10.62684036 -22.51260712 9.73414948 -21.60350037 8.81440735 C-20.36685387 7.57753426 -20.36685387 7.57753426 -19.10522461 6.31567383 C-18.38306259 5.58907059 -17.66090057 4.86246735 -16.91685486 4.11384583 C-11.68240237 -0.5040432 -6.67547744 -0.0217584 0 0 Z " fill="#44ACBC" transform="translate(684.875,235.6875)"/>
<path d="M0 0 C124.08 0 248.16 0 376 0 C376 12.54 376 25.08 376 38 C251.92 38 127.84 38 0 38 C0 25.46 0 12.92 0 0 Z " fill="#44A9B9" transform="translate(242,153)"/>
<path d="M0 0 C124.08 0 248.16 0 376 0 C376 12 376 12 374.2421875 14.89453125 C373.46101563 15.52746094 372.67984375 16.16039062 371.875 16.8125 C370.63556641 17.88564453 370.63556641 17.88564453 369.37109375 18.98046875 C368.19740234 19.98013672 368.19740234 19.98013672 367 21 C365.95047945 22.1835019 364.9259921 23.39006943 363.9375 24.625 C361.1937789 27.92053093 358.10432627 30.65946421 354.83203125 33.421875 C352.99650055 34.90302372 352.99650055 34.90302372 351.7501995 36.57556134 C349.22847331 38.6279241 347.38957226 38.37260233 344.1647768 38.36914349 C342.9396152 38.37511663 341.71445361 38.38108978 340.4521659 38.38724393 C339.08540321 38.37868426 337.71864224 38.36984746 336.35188293 38.36076355 C334.90561191 38.36207105 333.45934158 38.36469644 332.01307505 38.36853105 C328.02921184 38.37525897 324.04558926 38.36321185 320.06175673 38.34819686 C315.76933575 38.33527386 311.47692897 38.33962331 307.18449402 38.34190369 C299.74437543 38.34347879 292.30433561 38.33404484 284.86423683 38.31719017 C274.10703884 38.29283682 263.34987903 38.28499866 252.59265646 38.2812262 C235.14093231 38.27465595 217.68925016 38.25467925 200.23754883 38.22631836 C183.28214732 38.19879262 166.32675722 38.17755177 149.37133789 38.16479492 C148.32667761 38.16400675 147.28201733 38.16321858 146.20570067 38.16240653 C140.96508771 38.15849149 135.72447466 38.15470035 130.48386157 38.15097082 C86.98921047 38.11985706 43.49461069 38.06618159 0 38 C0 25.46 0 12.92 0 0 Z " fill="#1B448C" transform="translate(242,228)"/>
<path d="M0 0 C102.96 0 205.92 0 312 0 C312 0.99 312 1.98 312 3 C311.360625 3.103125 310.72125 3.20625 310.0625 3.3125 C309.381875 3.539375 308.70125 3.76625 308 4 C307.67 4.99 307.34 5.98 307 7 C302.68181818 11.77272727 302.68181818 11.77272727 299 13 C298.67 13.66 298.34 14.32 298 15 C297.67 15.66 297.34 16.32 297 17 C296.01 17.33 295.02 17.66 294 18 C293.67 18.99 293.34 19.98 293 21 C292.34 21 291.68 21 291 21 C290.67 21.99 290.34 22.98 290 24 C288.34211215 25.34423339 286.67423683 26.67618483 285 28 C282.95199594 30.49600495 280.98282933 33.02330162 279.06745625 35.62257671 C274.5141774 39.1515826 270.53315486 38.67843492 264.92070007 38.60127258 C263.7893675 38.60554471 262.65803492 38.60981683 261.49241954 38.61421841 C257.6933582 38.6224683 253.89539555 38.59492811 250.09643555 38.56762695 C247.37651367 38.56343393 244.65661341 38.56678729 241.93669128 38.56983948 C236.0767697 38.57246084 230.21712655 38.5567779 224.35727501 38.52865028 C215.8849703 38.48800923 207.41280018 38.47499248 198.94040857 38.46871033 C185.19448968 38.45776807 171.44871918 38.42449579 157.70288086 38.37719727 C144.35034935 38.33129986 130.99785814 38.29590886 117.64526367 38.2746582 C116.82216651 38.27334459 115.99906935 38.27203097 115.15102985 38.27067754 C111.02177961 38.26415234 106.89252908 38.2578338 102.76327837 38.25161803 C68.50874106 38.19978716 34.2543967 38.11034744 0 38 C0 25.46 0 12.92 0 0 Z " fill="#44AAB9" transform="translate(242,303)"/>
<path d="M0 0 C77.88 0 155.76 0 236 0 C234.8849232 4.46030718 234.0973353 5.11922369 230.6875 7.9375 C227.36385129 10.76991761 224.71718207 13.58160965 222 17 C220.06277059 18.77007909 218.07435962 20.47197747 216.08203125 22.1796875 C212.42416238 25.37774921 208.61780237 28.71280065 205.80184352 32.69391686 C203.05994642 36.38337647 201.7511794 37.83313031 197.12262154 38.8613348 C195.63126426 38.89052353 194.13884838 38.88154552 192.6477356 38.84178162 C191.82181502 38.84776259 190.99589445 38.85374356 190.14494598 38.85990578 C187.38476509 38.87141219 184.62758083 38.83298471 181.86767578 38.79467773 C179.8865211 38.79270269 177.9053613 38.79381258 175.92420959 38.79777527 C170.55032001 38.79978367 165.17752418 38.75863018 159.8038888 38.70975757 C154.18652549 38.66599746 148.56913709 38.66188636 142.95162964 38.65357971 C132.31617264 38.63182318 121.68121934 38.57437998 111.04598415 38.50413328 C98.93731954 38.42589064 86.82863087 38.38740345 74.71977639 38.35226524 C49.81284067 38.27909759 24.90659545 38.15072621 0 38 C0 25.46 0 12.92 0 0 Z " fill="#1B458D" transform="translate(242,378)"/>
<path d="M0 0 C62.04 0 124.08 0 188 0 C188 12.54 188 25.08 188 38 C125.96 38 63.92 38 0 38 C0 25.46 0 12.92 0 0 Z " fill="#44A9BA" transform="translate(242,453)"/>
<path d="M0 0 C1.69519441 -0.00175017 3.39038774 -0.00526321 5.0855754 -0.01035666 C9.68323141 -0.01919308 14.28050631 -0.0034517 18.87811387 0.01675558 C23.85873862 0.03418209 28.83934536 0.02817324 33.81999207 0.02514648 C42.4292063 0.02305864 51.0382984 0.03550803 59.64748192 0.05809784 C72.09458432 0.09073662 84.54162824 0.10103696 96.98876879 0.10604981 C117.18800593 0.11478391 137.3871781 0.14134812 157.58638 0.17926025 C177.1970538 0.21602928 196.8077099 0.24431705 216.41841125 0.2612915 C218.23448444 0.26286784 218.23448444 0.26286784 220.08724596 0.26447603 C226.1616208 0.26969654 232.23599576 0.27475128 238.3103708 0.27972364 C288.62824882 0.32112693 338.94605634 0.39152377 389.26387024 0.48101807 C389.59387024 1.14101807 389.92387024 1.80101807 390.26387024 2.48101807 C389.41775207 2.48199488 388.57163389 2.48297168 387.69987577 2.48397809 C337.47879703 2.54233335 287.25776129 2.61619285 237.03673562 2.71000435 C230.99778265 2.72127162 224.95882945 2.73241022 218.9198761 2.74346924 C217.71770087 2.74567292 216.51552564 2.74787661 215.27692086 2.75014707 C195.84762051 2.78545613 176.41832019 2.81035628 156.98899972 2.83136509 C137.0317141 2.85317816 117.07446988 2.88628057 97.11721951 2.92971963 C84.81660177 2.95614172 72.51603555 2.97390651 60.21539087 2.98036411 C51.76416287 2.98564701 43.31299953 3.00196052 34.86180627 3.02668373 C29.99626026 3.04059994 25.13082972 3.04990696 20.2652626 3.04602623 C1.0534455 3.03367063 -17.74601931 3.13262278 -36.73612976 6.48101807 C-36.73612976 5.82101807 -36.73612976 5.16101807 -36.73612976 4.48101807 C-24.32039743 1.46526152 -12.76012314 -0.10020181 0 0 Z " fill="#0B1B36" transform="translate(241.7361297607422,39.51898193359375)"/>
<path d="M0 0 C0.66397201 -0.00205263 1.32794401 -0.00410527 2.01203638 -0.0062201 C4.234741 -0.01187011 6.45738326 -0.01043533 8.68009377 -0.00901413 C10.29079148 -0.01159893 11.90148855 -0.01461241 13.51218474 -0.01801753 C17.93715898 -0.02607762 22.36211698 -0.02787656 26.78709769 -0.028615 C31.5603534 -0.03046734 36.33360073 -0.03801572 41.10685158 -0.04475021 C51.54525306 -0.05832828 61.98365069 -0.06435779 72.42205954 -0.06876087 C78.94337069 -0.07152488 85.46468037 -0.0757626 91.98599052 -0.08026505 C110.05050946 -0.09245835 128.11502721 -0.10275668 146.17955017 -0.10614014 C147.33561806 -0.1063597 148.49168595 -0.10657927 149.6827862 -0.10680549 C150.84158987 -0.10702377 152.00039353 -0.10724204 153.19431245 -0.10746694 C155.54240696 -0.1079104 157.89050146 -0.10835696 160.23859596 -0.10880661 C161.40332698 -0.10902804 162.56805799 -0.10924947 163.76808389 -0.10947761 C182.62623547 -0.11342268 201.48434835 -0.13086754 220.342485 -0.15416613 C239.71568634 -0.17790726 259.08886829 -0.19034329 278.46208441 -0.19150805 C289.33451293 -0.1924234 300.20689105 -0.19814015 311.07930565 -0.21632767 C320.34089296 -0.23176612 329.6024143 -0.23682717 338.86401205 -0.22858956 C343.58495683 -0.22469595 348.3057689 -0.22554927 353.02669716 -0.23964691 C357.35859538 -0.25246381 361.69026223 -0.25112067 366.02216049 -0.2390562 C367.57945828 -0.23711256 369.13677291 -0.24011506 370.69404714 -0.24890056 C384.18683475 -0.320129 399.14339285 0.38737343 411.18439674 7.13142776 C411.51439674 7.79142776 411.84439674 8.45142776 412.18439674 9.13142776 C411.02037331 8.85879105 411.02037331 8.85879105 409.83283424 8.58064651 C408.75259987 8.32927933 407.67236549 8.07791214 406.55939674 7.81892776 C405.51525612 7.57529495 404.47111549 7.33166214 403.39533424 7.08064651 C402.76342647 6.94044549 402.13151869 6.80024446 401.48046219 6.65579492 C399.74829394 6.26020857 398.02277486 5.83534394 396.3010577 5.39649838 C386.90839412 3.14166298 377.99940691 2.70017354 368.39121437 2.73270035 C366.7374564 2.72724946 365.08370232 2.72049319 363.42995441 2.71255845 C358.92371274 2.69465689 354.4176369 2.69507489 349.91136813 2.69868791 C345.03764969 2.69931485 340.16398542 2.6826629 335.29029274 2.66817093 C326.85892389 2.64543632 318.42759622 2.6335087 309.99619865 2.62904167 C297.80601009 2.62256739 285.6158958 2.59960754 273.42573725 2.57269838 C253.64526833 2.52947834 233.86480254 2.49948429 214.08429909 2.47786331 C194.87595008 2.45683928 175.66762671 2.42955174 156.45929909 2.39387894 C154.68157992 2.3905807 154.68157992 2.3905807 152.86794724 2.38721583 C146.92207556 2.37614582 140.97620413 2.36495308 135.0303328 2.35369933 C85.7483768 2.26058197 36.46640627 2.18895262 -12.81560326 2.13142776 C-12.81560326 1.80142776 -12.81560326 1.47142776 -12.81560326 1.13142776 C-8.48867632 0.30473757 -4.40254115 0.00465123 0 0 Z " fill="#030B1B" transform="translate(240.8156032562256,78.86857223510742)"/>
<path d="M0 0 C-5.49274298 2.94254088 -9.84597554 3.10256707 -16 3 C-16 3.66 -16 4.32 -16 5 C-65.91267651 5.04577108 -115.82535089 5.08101598 -165.73804426 5.10213066 C-171.62980623 5.10463209 -177.52156817 5.10722073 -183.41333008 5.10986328 C-185.1727563 5.11065021 -185.1727563 5.11065021 -186.96772648 5.11145304 C-205.9635408 5.12015723 -224.95934303 5.13592728 -243.95515018 5.15430559 C-263.44451675 5.17300425 -282.93387699 5.18411666 -302.42325217 5.18817699 C-314.45060303 5.19092211 -326.47791971 5.19959453 -338.50526006 5.21583293 C-346.75124903 5.22639938 -354.9972203 5.22960139 -363.24321555 5.22700275 C-368.0017051 5.22572094 -372.76013487 5.22769523 -377.51861382 5.23841095 C-381.87686248 5.24815369 -386.23501124 5.24862823 -390.59326453 5.24179779 C-392.16811342 5.24095376 -393.74296858 5.24348212 -395.31780516 5.24976636 C-403.12447325 5.27910127 -410.43495334 5.12903099 -418 3 C-418 2.67 -418 2.34 -418 2 C-417.15816878 2.00075944 -416.31633756 2.00151888 -415.44899631 2.00230134 C-365.54596079 2.04706564 -315.64292741 2.08137725 -265.73987584 2.10213066 C-259.74683125 2.10463205 -253.75378671 2.10722069 -247.76074219 2.10986328 C-246.567644 2.1103879 -245.37454582 2.11091252 -244.14529315 2.11145304 C-224.83141255 2.12015366 -205.51754388 2.13592175 -186.20367035 2.15430559 C-166.38319565 2.17301418 -146.56272718 2.18411876 -126.74224401 2.18817699 C-114.51375507 2.19092005 -102.28529982 2.19958129 -90.05682126 2.21583293 C-81.66924378 2.22641163 -73.2816837 2.22959861 -64.89410004 2.22700275 C-60.05625375 2.22572285 -55.2184663 2.22767344 -50.38063049 2.23841095 C-45.94635809 2.24818063 -41.51218379 2.24861086 -37.07790676 2.24179779 C-35.47877857 2.24095637 -33.87964414 2.24346181 -32.28052816 2.24976636 C-24.24789227 2.27957844 -16.53616444 2.05202416 -8.62633824 0.4290446 C-5.71364472 -0.04677965 -2.94622643 -0.068018 0 0 Z " fill="#0A1C33" transform="translate(642,599)"/>
<path d="M0 0 C129.03 0 258.06 0 391 0 C391 0.66 391 1.32 391 2 C391.69867187 2.03738281 392.39734375 2.07476562 393.1171875 2.11328125 C394.02726562 2.17902344 394.93734375 2.24476562 395.875 2.3125 C396.77992188 2.37050781 397.68484375 2.42851563 398.6171875 2.48828125 C401 3 401 3 403 6 C402.39393659 5.85885572 401.78787319 5.71771144 401.16344422 5.57229006 C392.70795457 3.80222585 384.39003784 3.70941323 375.79536438 3.7215271 C374.16894622 3.71651691 372.54253054 3.71063901 370.91611832 3.70397437 C366.47154132 3.68824786 362.02702766 3.68474776 357.58242619 3.68332577 C352.78023886 3.67961883 347.97808576 3.66445693 343.17591858 3.65071106 C334.86400527 3.62847497 326.5521042 3.61343976 318.24016762 3.60334396 C306.22261779 3.5887368 294.20511061 3.56319426 282.18758585 3.53501268 C262.68830097 3.4895817 243.18900993 3.45295163 223.68969727 3.421875 C204.75186076 3.39167432 185.81403929 3.35731707 166.8762207 3.31738281 C165.7082084 3.31492126 164.54019609 3.31245972 163.33678947 3.30992357 C157.47701037 3.29754868 151.61723145 3.2850922 145.75745261 3.27259517 C97.17165607 3.16908269 48.58584077 3.0798612 0 3 C0 2.01 0 1.02 0 0 Z " fill="#1B386B" transform="translate(234,76)"/>
<path d="M0 0 C0.9192419 0.00291284 1.83848381 0.00582568 2.78558153 0.00882679 C3.75423786 0.00797237 4.7228942 0.00711794 5.72090375 0.00623763 C8.99304593 0.00457988 12.26513774 0.010109 15.53727525 0.01555592 C17.87236842 0.01583775 20.20746168 0.01568013 22.5425548 0.01511341 C28.90387065 0.01482529 35.26516783 0.02072437 41.62647933 0.02768737 C47.5942821 0.03328787 53.56208411 0.03430919 59.52988916 0.03533924 C71.35348103 0.03753007 83.17706603 0.04419099 95.00065416 0.05364186 C106.48893506 0.06281518 117.97721409 0.0698964 129.46549791 0.07414967 C130.52698075 0.07454375 130.52698075 0.07454375 131.60990769 0.0749458 C135.15986194 0.0762508 138.70981619 0.07751452 142.25977045 0.0787577 C171.72914824 0.08913127 201.19851929 0.10682455 230.66789049 0.12908131 C231.8069362 4.89900357 231.8069362 4.89900357 230.55552477 6.96970326 C229.97611131 7.53880924 229.39669786 8.10791523 228.79972643 8.69426686 C228.14864916 9.34811863 227.49757189 10.00197041 226.826765 10.67563587 C226.10918016 11.36539006 225.39159532 12.05514424 224.65226549 12.76580006 C223.92549608 13.48645146 223.19872667 14.20710285 222.44993395 14.94959217 C220.11958442 17.25295459 217.76896749 19.53439946 215.41789049 21.81658131 C213.84756977 23.36538413 212.27854238 24.91549943 210.71085924 26.46697193 C207.83260314 29.30306375 204.95271265 32.13726371 202.05363268 34.95207936 C201.47103685 35.51879856 200.88844103 36.08551777 200.28819078 36.66941029 C196.14591281 40.40104148 192.90155975 40.40912634 187.6004619 40.36959034 C186.35317529 40.37215362 186.35317529 40.37215362 185.08069098 40.37476867 C182.28455686 40.37807219 179.48866084 40.36704572 176.69254869 40.35613209 C174.69213168 40.35556816 172.69171425 40.35588417 170.69129747 40.3570171 C165.25152991 40.35759233 159.81185005 40.34581044 154.37210292 40.33186918 C148.69060784 40.31939022 143.0091109 40.31819357 137.32760423 40.31581837 C126.56477223 40.30959525 115.80198072 40.2931732 105.03916657 40.27311939 C92.78782426 40.25078624 80.53648004 40.23977347 68.28512245 40.22972852 C43.07935599 40.20880769 17.87362551 40.17361558 -7.33210951 40.12908131 C-7.35675726 34.59319598 -7.37494447 29.05734231 -7.38704115 23.52141529 C-7.39208195 21.63664401 -7.39891449 19.75187666 -7.40754896 17.86711842 C-7.41962568 15.16406495 -7.4253402 12.461063 -7.42976576 9.75798756 C-7.43492705 8.91007145 -7.44008833 8.06215534 -7.44540602 7.18854481 C-7.44560146 5.16837062 -7.39417162 3.14830197 -7.33210951 1.12908131 C-5.41364501 -0.78938319 -2.55306321 0.00614251 0 0 Z M-6.33210951 1.12908131 C-6.33210951 13.66908131 -6.33210951 26.20908131 -6.33210951 39.12908131 C19.68508893 39.40016258 45.70114075 39.62112767 71.71939367 39.75082737 C83.80064132 39.81265498 95.88094804 39.89691705 107.96159166 40.03435475 C118.49349862 40.15411564 129.02472408 40.23141573 139.55729306 40.25814325 C145.13254694 40.27376313 150.70585155 40.31035832 156.28047937 40.39784199 C161.53338024 40.47960496 166.78353906 40.50436147 172.03701586 40.48637348 C173.95955331 40.48966144 175.88218713 40.51335741 177.80417246 40.55954701 C188.70379091 41.0925964 188.70379091 41.0925964 198.15053171 36.5066219 C200.97660725 33.61910874 203.26299202 30.37033438 205.66789049 27.12908131 C207.29591221 25.74882741 208.95592962 24.40373638 210.66789049 23.12908131 C211.70398445 22.01577842 212.70855643 20.87167122 213.66789049 19.69158131 C218.02812472 14.47922008 222.83939471 10.07029228 228.09367174 5.77751881 C230.01320987 4.14737575 230.01320987 4.14737575 229.66789049 1.12908131 C151.78789049 1.12908131 73.90789049 1.12908131 -6.33210951 1.12908131 Z " fill="#040F27" transform="translate(248.3321095108986,376.8709186911583)"/>
<path d="M0 0 C77.88 0 155.76 0 236 0 C235.67 1.32 235.34 2.64 235 4 C234.34 4.33 233.68 4.66 233 5 C233 3.68 233 2.36 233 1 C156.44 1 79.88 1 1 1 C1 12.88 1 24.76 1 37 C66.67 37 132.34 37 200 37 C200 36.01 200 35.02 200 34 C200.66 34 201.32 34 202 34 C202 33.34 202 32.68 202 32 C203.32 32.33 204.64 32.66 206 33 C203.19255743 36.48179611 201.73089013 37.88022573 197.24566936 38.61523914 C195.753249 38.6361616 194.26028847 38.62959008 192.76799011 38.60127258 C191.94292396 38.60554471 191.11785782 38.60981683 190.26778966 38.61421841 C187.50503998 38.62244983 184.7438108 38.59496169 181.98120117 38.56762695 C180.00019364 38.56621651 178.0191835 38.56700838 176.03817749 38.56983948 C170.66031722 38.57127518 165.28301355 38.54185998 159.90528274 38.50696969 C154.28521652 38.47573219 148.66513781 38.4727775 143.04499817 38.46684265 C132.40254333 38.45129659 121.76034502 38.41025761 111.11800319 38.3600952 C99.00207177 38.30422563 86.88612815 38.27672121 74.7701 38.25161803 C49.8465583 38.19934251 24.92336832 38.10764102 0 38 C0 25.46 0 12.92 0 0 Z " fill="#1A396F" transform="translate(242,378)"/>
<path d="M0 0 C0 4.50998424 -2.12028768 7.01365589 -5.0625 10.3125 C-7 12 -7 12 -9 12 C-9.26188551 12.57804256 -9.52377102 13.15608513 -9.79359245 13.75164413 C-11.07573022 16.14113678 -12.51271643 17.93876116 -14.30252075 19.97369385 C-14.98688202 20.75329468 -15.67124329 21.53289551 -16.37634277 22.33612061 C-17.12887329 23.18200745 -17.88140381 24.02789429 -18.65673828 24.89941406 C-19.45155609 25.79732666 -20.2463739 26.69523926 -21.0652771 27.62036133 C-28.51312495 35.98395012 -36.14025481 44.17722993 -43.83421516 52.31445694 C-48.98088481 57.76547415 -54.05245143 63.25826615 -58.97509766 68.91308594 C-93.62786885 108.61263139 -93.62786885 108.61263139 -118.14739537 110.70933008 C-134.46150619 111.78307031 -150.85615234 110.37336824 -167 108 C-167 107.67 -167 107.34 -167 107 C-166.21961365 107.00079559 -165.43922729 107.00159119 -164.63519287 107.00241089 C-157.27797373 107.00461938 -149.92167569 106.97821482 -142.56470871 106.9197216 C-138.78239249 106.89065729 -135.0006965 106.87263266 -131.21826172 106.87988281 C-127.56733978 106.88647393 -123.91764365 106.86400695 -120.2669754 106.82144547 C-118.87478245 106.81030981 -117.48246524 106.80961852 -116.09026337 106.81957626 C-108.7637841 107.25169467 -108.7637841 107.25169467 -102.30725098 104.61090088 C-101.07837676 102.80461893 -101.07837676 102.80461893 -100 100 C-99.34 100 -98.68 100 -98 100 C-97.01 98.02 -97.01 98.02 -96 96 C-95.34 96 -94.68 96 -94 96 C-94 95.34 -94 94.68 -94 94 C-92.38025441 92.28769752 -90.7041054 90.62836738 -89 89 C-88.113125 88.071875 -87.22625 87.14375 -86.3125 86.1875 C-84 84 -84 84 -82 84 C-81.773125 83.4225 -81.54625 82.845 -81.3125 82.25 C-79.65273655 79.40469122 -77.57933333 78.06346666 -75 76 C-73.1332295 73.90792961 -71.3324576 71.77425004 -69.55078125 69.609375 C-69.03902344 69.07828125 -68.52726563 68.5471875 -68 68 C-67.34 68 -66.68 68 -66 68 C-65.773125 67.4225 -65.54625 66.845 -65.3125 66.25 C-63.65273655 63.40469122 -61.57933333 62.06346666 -59 60 C-57.1332295 57.90792961 -55.3324576 55.77425004 -53.55078125 53.609375 C-53.03902344 53.07828125 -52.52726563 52.5471875 -52 52 C-51.34 52 -50.68 52 -50 52 C-49.690625 51.1646875 -49.690625 51.1646875 -49.375 50.3125 C-47.42316968 47.02987629 -45.05769006 45.29326754 -42 43 C-41.34 43 -40.68 43 -40 43 C-39.7525 42.21625 -39.505 41.4325 -39.25 40.625 C-37.79075497 37.56058543 -36.94985044 37.38274239 -34 36 C-33.56300781 35.08734375 -33.56300781 35.08734375 -33.1171875 34.15625 C-31.80370998 31.62114654 -30.32811623 30.36240439 -28.125 28.5625 C-24.99698022 25.93315004 -22.5325627 23.2144065 -20 20 C-19.34 20 -18.68 20 -18 20 C-17.34 18.68 -16.68 17.36 -16 16 C-15.34 16 -14.68 16 -14 16 C-14 15.34 -14 14.68 -14 14 C-12.50390625 12.5625 -12.50390625 12.5625 -10.5625 11 C-7.84811762 8.85474956 -7.84811762 8.85474956 -6 6 C-5.34 6 -4.68 6 -4 6 C-3.71125 5.38125 -3.4225 4.7625 -3.125 4.125 C-2 2 -2 2 0 0 Z " fill="#0E2B30" transform="translate(634,384)"/>
<path d="M0 0 C0.66 0.33 1.32 0.66 2 1 C-3.77785578 7.94271396 -10.13480429 14.2881389 -16.52661133 20.65698242 C-18.32947341 22.45442236 -20.12684985 24.25722661 -21.92382812 26.06054688 C-23.06999147 27.20605047 -24.21646442 28.35124439 -25.36328125 29.49609375 C-26.16793571 30.30378456 -26.16793571 30.30378456 -26.98884583 31.12779236 C-30.69500315 34.81048136 -32.38725512 36.12538968 -37.57210732 36.12304783 C-38.54098999 36.12503888 -39.50987266 36.12702993 -40.50811541 36.12908131 C-41.58008241 36.12616847 -42.6520494 36.12325563 -43.75650024 36.12025452 C-44.8893531 36.12110894 -46.02220595 36.12196337 -47.18938768 36.12284368 C-51.01120258 36.12449971 -54.83297425 36.11897508 -58.65478516 36.11352539 C-61.38410978 36.1126877 -64.11343354 36.11335715 -66.84275818 36.1139679 C-72.73208698 36.11449304 -78.62140472 36.11134725 -84.51073074 36.10573006 C-93.02577728 36.09761375 -101.54081845 36.0949997 -110.05586843 36.09374207 C-123.86993095 36.09155175 -137.68398756 36.08489222 -151.49804688 36.07543945 C-164.91959605 36.0662648 -178.34114363 36.05918423 -191.76269531 36.05493164 C-192.58956764 36.05466892 -193.41643997 36.05440619 -194.26836903 36.05413551 C-198.41641549 36.0528305 -202.56446196 36.05156679 -206.71250844 36.05032361 C-241.14167654 36.03995164 -275.57083763 36.02233388 -310 36 C-310 35.67 -310 35.34 -310 35 C-218.92 35 -127.84 35 -34 35 C-33.34 33.68 -32.68 32.36 -32 31 C-30.34211215 29.65576661 -28.67423683 28.32381517 -27 27 C-25.7625 25.515 -25.7625 25.515 -24.5 24 C-22 21 -22 21 -19.5625 19.0625 C-16.80580205 16.84369434 -14.72917502 14.43490583 -12.46875 11.73046875 C-8.72437313 7.31887579 -4.4705077 3.63878534 0 0 Z " fill="#12333B" transform="translate(552,306)"/>
<path d="M0 0 C0.495 0.99 0.495 0.99 1 2 C-0.75377168 5.44856575 -2.86023855 8.10880505 -5.58769226 10.82820129 C-6.30701935 11.55027771 -7.02634644 12.27235413 -7.76747131 13.01631165 C-8.94351173 14.18156624 -8.94351173 14.18156624 -10.14331055 15.37036133 C-10.97280212 16.20014496 -11.8022937 17.02992859 -12.65692139 17.88485718 C-15.39547248 20.62201672 -18.1410362 23.35202698 -20.88671875 26.08203125 C-22.78914395 27.97961342 -24.69006396 29.87870063 -26.59101868 31.77775574 C-31.08120422 36.26173336 -35.57646209 40.74058974 -40.0735777 45.21761578 C-45.1947963 50.31645394 -50.31031456 55.42099482 -55.42536867 60.52601588 C-65.94392766 71.02368847 -76.4696033 81.51420153 -87 92 C-87.99 91.67 -88.98 91.34 -90 91 C-88.38405168 88.95880212 -86.7143618 86.95927063 -85 85 C-84.34 85 -83.68 85 -83 85 C-82.7525 84.4225 -82.505 83.845 -82.25 83.25 C-80.81700012 80.67060021 -79.21575324 78.93878408 -77 77 C-76.34 77 -75.68 77 -75 77 C-75 76.34 -75 75.68 -75 75 C-73.38025441 73.28769752 -71.7041054 71.62836738 -70 70 C-69.113125 69.071875 -68.22625 68.14375 -67.3125 67.1875 C-65 65 -65 65 -63 65 C-62.773125 64.4225 -62.54625 63.845 -62.3125 63.25 C-60.66511725 60.42591529 -58.56545162 59.0023037 -56 57 C-55.443125 56.2575 -54.88625 55.515 -54.3125 54.75 C-53.879375 54.1725 -53.44625 53.595 -53 53 C-52.34 53 -51.68 53 -51 53 C-50.34 51.68 -49.68 50.36 -49 49 C-48.34 49 -47.68 49 -47 49 C-46.773125 48.4225 -46.54625 47.845 -46.3125 47.25 C-44.65273655 44.40469122 -42.57933333 43.06346666 -40 41 C-38.1332295 38.90792961 -36.3324576 36.77425004 -34.55078125 34.609375 C-34.03902344 34.07828125 -33.52726563 33.5471875 -33 33 C-32.34 33 -31.68 33 -31 33 C-30.67 32.01 -30.34 31.02 -30 30 C-28.59802848 28.8316904 -27.19160781 27.66808972 -25.7578125 26.5390625 C-23.03258047 24.15297046 -20.80927534 21.36895937 -18.515625 18.57421875 C-17.76539063 17.79498047 -17.76539063 17.79498047 -17 17 C-16.34 17 -15.68 17 -15 17 C-14.505 15.515 -14.505 15.515 -14 14 C-12.55770132 12.75437841 -11.11026183 11.51341052 -9.62109375 10.32421875 C-5.91394045 7.29596581 -2.75106151 3.9094032 0 0 Z " fill="#0C272B" transform="translate(727,291)"/>
<path d="M0 0 C0.09367322 26.02661998 0.16409152 52.05321448 0.20724869 78.07996941 C0.22782491 90.16616343 0.25585057 102.25225236 0.30175781 114.33837891 C0.34177733 124.87950342 0.36746866 135.42055177 0.37635398 145.96175015 C0.38154322 151.5370236 0.3936357 157.11207929 0.42292023 162.68728256 C0.45032873 167.94859182 0.45839425 173.20959627 0.45243073 178.47097015 C0.4535197 180.38881977 0.46132051 182.30668095 0.4768219 184.22446823 C0.57255148 196.69293064 -0.77712557 207.94282648 -4 220 C-4.33 220 -4.66 220 -5 220 C-5 216.7 -5 213.4 -5 210 C-4.34 210 -3.68 210 -3 210 C-3.020625 208.700625 -3.04125 207.40125 -3.0625 206.0625 C-3.08399454 204.70834367 -3.07148199 203.35243917 -3 202 C-2.67 201.67 -2.34 201.34 -2 201 C-1.9022375 198.4454283 -1.87004854 195.91791539 -1.87974548 193.36289978 C-1.87889106 192.55350199 -1.87803663 191.7441042 -1.87715632 190.9101792 C-1.87549904 188.17699528 -1.88102691 185.44387169 -1.88647461 182.71069336 C-1.88675645 180.75983176 -1.8865988 178.80897006 -1.8860321 176.85810852 C-1.88574402 171.54427841 -1.89164246 166.23047066 -1.89860606 160.91664577 C-1.90483784 155.36993315 -1.90544326 149.82322009 -1.90663147 144.27650452 C-1.90974531 133.76507375 -1.9179594 123.25365334 -1.92798096 112.74222714 C-1.93914047 100.77870865 -1.94465214 88.81518968 -1.94967639 76.85166728 C-1.96014197 52.23443911 -1.97774242 27.61722013 -2 3 C-2.39832031 3.5053125 -2.79664063 4.010625 -3.20703125 4.53125 C-4.00173828 5.50578125 -4.00173828 5.50578125 -4.8125 6.5 C-5.33457031 7.1496875 -5.85664062 7.799375 -6.39453125 8.46875 C-8 10 -8 10 -11 10 C-11 10.66 -11 11.32 -11 12 C-11.66 11.67 -12.32 11.34 -13 11 C-4.91176471 0 -4.91176471 0 0 0 Z " fill="#1B3B70" transform="translate(730,342)"/>
<path d="M0 0 C77.88 0 155.76 0 236 0 C235.67 1.32 235.34 2.64 235 4 C234.34 4.33 233.68 4.66 233 5 C233 3.68 233 2.36 233 1 C156.11 1 79.22 1 0 1 C0 0.67 0 0.34 0 0 Z " fill="#143266" transform="translate(242,378)"/>
<path d="M0 0 C0.66 0.33 1.32 0.66 2 1 C0.57849991 4.13152248 -1.13564224 6.58143518 -3.375 9.1875 C-3.96023438 9.88230469 -4.54546875 10.57710938 -5.1484375 11.29296875 C-7.16585713 13.15291048 -8.37658769 13.44653749 -11 14 C-12.28436734 15.9837767 -12.28436734 15.9837767 -13 18 C-13.66 18 -14.32 18 -15 18 C-15.226875 18.556875 -15.45375 19.11375 -15.6875 19.6875 C-17.37550036 22.66159588 -19.46676517 24.72008865 -22 27 C-22.66 27 -23.32 27 -24 27 C-24.33 27.99 -24.66 28.98 -25 30 C-26.98 30.33 -28.96 30.66 -31 31 C-31.495 32.485 -31.495 32.485 -32 34 C-32.66 33.67 -33.32 33.34 -34 33 C-32 30 -32 30 -29 29 C-27.28802204 27.37991141 -25.62813574 25.70432672 -24 24 C-16 16 -8 8 0 0 Z " fill="#3E919C" transform="translate(652,256)"/>
<path d="M0 0 C0.66 0.33 1.32 0.66 2 1 C-3.77285284 7.90814976 -10.06681188 14.28584152 -16.41674805 20.65698242 C-18.20108411 22.45115903 -19.97447993 24.25573195 -21.74804688 26.06054688 C-22.88736358 27.20638305 -24.02731475 28.35158881 -25.16796875 29.49609375 C-25.69408249 30.03455429 -26.22019623 30.57301483 -26.76225281 31.12779236 C-31.30989626 35.6480107 -31.30989626 35.6480107 -35 36 C-32.86662672 31.95781904 -30.56358989 29.79996348 -27 27 C-25.7625 25.515 -25.7625 25.515 -24.5 24 C-22 21 -22 21 -19.5625 19.0625 C-16.80580205 16.84369434 -14.72917502 14.43490583 -12.46875 11.73046875 C-8.72437313 7.31887579 -4.4705077 3.63878534 0 0 Z " fill="#0B242A" transform="translate(552,306)"/>
<path d="M0 0 C0.33 0 0.66 0 1 0 C1 17.49 1 34.98 1 53 C3.64 53.33 6.28 53.66 9 54 C11.53125 54.97265625 11.53125 54.97265625 13.5 56.0625 C14.1703125 56.42472656 14.840625 56.78695312 15.53125 57.16015625 C16.0159375 57.43730469 16.500625 57.71445313 17 58 C11.85326425 60.57336788 5.55993373 56.48264899 0 55 C0 36.85 0 18.7 0 0 Z " fill="#143163" transform="translate(692,144)"/>
<path d="M0 0 C1.00546875 0.00322266 2.0109375 0.00644531 3.046875 0.00976562 C4.036875 -0.00634766 5.026875 -0.02246094 6.046875 -0.0390625 C11.5220679 -0.04272239 15.61757351 0.13911926 20.296875 3.32226562 C21.859375 5.69726562 21.859375 5.69726562 23.296875 8.32226562 C24.92524238 10.02637103 26.58457252 11.70252004 28.296875 13.32226562 C25.859375 12.94726562 25.859375 12.94726562 23.296875 12.32226562 C22.801875 11.33226562 22.801875 11.33226562 22.296875 10.32226562 C21.306875 9.66226563 20.316875 9.00226563 19.296875 8.32226562 C19.626875 7.66226563 19.956875 7.00226563 20.296875 6.32226562 C19.306875 6.65226563 18.316875 6.98226562 17.296875 7.32226562 C16.636875 5.67226562 15.976875 4.02226562 15.296875 2.32226562 C7.046875 2.32226562 -1.203125 2.32226562 -9.703125 2.32226562 C-6.73832127 -0.64253811 -4.05596655 0.02998362 0 0 Z " fill="#3E8D96" transform="translate(681.703125,235.677734375)"/>
<path d="M0 0 C0 5.5413202 -4.06418943 9.20535644 -7.75 13 C-11.06089018 16.24268832 -14.53351665 19.03226556 -18.3359375 21.67578125 C-20.27360209 23.07926837 -20.27360209 23.07926837 -22 26 C-22.99 25.67 -23.98 25.34 -25 25 C-23.54782324 23.49403892 -22.08807139 21.99537896 -20.625 20.5 C-19.81289063 19.6646875 -19.00078125 18.829375 -18.1640625 17.96875 C-16 16 -16 16 -14 16 C-13.731875 15.360625 -13.46375 14.72125 -13.1875 14.0625 C-12 12 -12 12 -9 11 C-8.30640354 9.68047502 -7.64334704 8.34474043 -7 7 C-5.2734375 5.078125 -5.2734375 5.078125 -3.375 3.25 C-2.74335937 2.63640625 -2.11171875 2.0228125 -1.4609375 1.390625 C-0.73777344 0.70226562 -0.73777344 0.70226562 0 0 Z " fill="#06132A" transform="translate(617,240)"/>
<path d="M0 0 C0.66 0.99 1.32 1.98 2 3 C1.18958252 3.75684082 0.37916504 4.51368164 -0.45581055 5.29345703 C-4.18751744 9.80296276 -3.72825905 14.68635998 -3.70703125 20.3046875 C-3.72215256 21.38380402 -3.73727386 22.46292053 -3.75285339 23.57473755 C-3.79570892 27.00837129 -3.8045668 30.44112552 -3.8125 33.875 C-3.83564581 36.20835668 -3.86101131 38.54169247 -3.88867188 40.875 C-3.95150304 46.5833417 -3.98645422 52.29134 -4 58 C-4.33 58 -4.66 58 -5 58 C-5.05067793 50.66767322 -5.08572428 43.33539156 -5.10986328 36.00292969 C-5.11992561 33.50812085 -5.13357679 31.01332382 -5.15087891 28.51855469 C-5.17511668 24.93421516 -5.18648082 21.35003147 -5.1953125 17.765625 C-5.20563507 16.64883362 -5.21595764 15.53204224 -5.22659302 14.38140869 C-5.22674408 13.34063171 -5.22689514 12.29985474 -5.22705078 11.22753906 C-5.231492 10.31264709 -5.23593323 9.39775513 -5.24050903 8.45513916 C-4.97976967 5.79348689 -4.45691207 4.23294407 -3 2 C-2.01 1.34 -1.02 0.68 0 0 Z " fill="#4E9FAC" transform="translate(473,432)"/>
<path d="M0 0 C2.30515963 4.61031927 3.12433647 6.56186049 3.11352539 11.64306641 C3.11344986 12.82413971 3.11337433 14.00521301 3.11329651 15.22207642 C3.10813522 16.50230682 3.10297394 17.78253723 3.09765625 19.1015625 C3.0962413 20.40829926 3.09482635 21.71503601 3.09336853 23.06137085 C3.08954894 26.53676258 3.07972342 30.01211257 3.06866455 33.48748779 C3.05843843 37.03331945 3.05386833 40.57915785 3.04882812 44.125 C3.03810066 51.08335049 3.02103092 58.04167324 3 65 C2.67 65 2.34 65 2 65 C1.67 46.52 1.34 28.04 1 9 C0.67 9 0.34 9 0 9 C0 6.03 0 3.06 0 0 Z " fill="#06122D" transform="translate(689,134)"/>
<path d="M0 0 C0.66 0.33 1.32 0.66 2 1 C-4.27 7.27 -10.54 13.54 -17 20 C-17.99 19.67 -18.98 19.34 -20 19 C-18.71937515 17.2925002 -17.38232443 15.62626404 -16 14 C-15.34 14 -14.68 14 -14 14 C-13.79375 13.443125 -13.5875 12.88625 -13.375 12.3125 C-11.42316968 9.02987629 -9.05769006 7.29326754 -6 5 C-5.34 5 -4.68 5 -4 5 C-3.67 4.01 -3.34 3.02 -3 2 C-2.01 1.34 -1.02 0.68 0 0 Z " fill="#0C262B" transform="translate(598,422)"/>
<path d="M0 0 C0.66 0.33 1.32 0.66 2 1 C-3.61 6.61 -9.22 12.22 -15 18 C-15.99 17.67 -16.98 17.34 -18 17 C-17.01 16.34 -16.02 15.68 -15 15 C-14.484375 14.13375 -13.96875 13.2675 -13.4375 12.375 C-12.963125 11.59125 -12.48875 10.8075 -12 10 C-11.34 10 -10.68 10 -10 10 C-9.34 8.68 -8.68 7.36 -8 6 C-7.34 6 -6.68 6 -6 6 C-6 5.34 -6 4.68 -6 4 C-4.03852126 2.61061923 -2.03833424 1.2739589 0 0 Z " fill="#091F23" transform="translate(546,474)"/>
<path d="M0 0 C4.89502205 4.10123469 6.34543014 7.92389598 8 14 C8.27972656 14.94101563 8.55945313 15.88203125 8.84765625 16.8515625 C10.15768497 21.37268488 11.17895947 25.26183499 11 30 C9.04194594 26.43418596 7.85452584 22.67143061 6.625 18.8125 C4.93420523 13.59726723 3.08352642 8.58439277 0.69921875 3.63671875 C0 2 0 2 0 0 Z " fill="#05112B" transform="translate(717,98)"/>
<path d="M0 0 C0.66 0.33 1.32 0.66 2 1 C-0.50289687 4.87949015 -0.50289687 4.87949015 -3.0625 5.5 C-3.701875 5.665 -4.34125 5.83 -5 6 C-5.309375 6.66 -5.61875 7.32 -5.9375 8 C-6.288125 8.66 -6.63875 9.32 -7 10 C-8.66666667 10.33333333 -10.33333333 10.66666667 -12 11 C-13.09166275 12.93330603 -13.09166275 12.93330603 -14 15 C-16.125 16.25 -16.125 16.25 -18 17 C-17.360625 16.2575 -16.72125 15.515 -16.0625 14.75 C-14.21666593 12.2888879 -13.43930826 10.96533074 -13 8 C-12.01 8 -11.02 8 -10 8 C-10 7.34 -10 6.68 -10 6 C-9.36191406 5.65066406 -8.72382813 5.30132812 -8.06640625 4.94140625 C-7.24011719 4.48636719 -6.41382813 4.03132813 -5.5625 3.5625 C-4.73878906 3.11003906 -3.91507813 2.65757813 -3.06640625 2.19140625 C-1.07691202 1.16337603 -1.07691202 1.16337603 0 0 Z " fill="#0D1E3F" transform="translate(202,90)"/>
<path d="M0 0 C0.99 0 1.98 0 3 0 C2.9375 1.75 2.9375 1.75 2 4 C-0.23932036 5.52956035 -2.60427563 6.71657623 -5 8 C-5.33 8.66 -5.66 9.32 -6 10 C-6.66 10 -7.32 10 -8 10 C-8.33 11.32 -8.66 12.64 -9 14 C-10.65 14.33 -12.3 14.66 -14 15 C-14 15.66 -14 16.32 -14 17 C-14.99 16.67 -15.98 16.34 -17 16 C-16.34 16 -15.68 16 -15 16 C-15 15.34 -15 14.68 -15 14 C-11.53846154 11 -11.53846154 11 -9 11 C-9 10.34 -9 9.68 -9 9 C-8.34 9 -7.68 9 -7 9 C-7 8.01 -7 7.02 -7 6 C-5.35666496 4.96210419 -3.68756133 3.96432076 -2 3 C-1.34 2.01 -0.68 1.02 0 0 Z " fill="#142A58" transform="translate(673,576)"/>
<path d="M0 0 C2.33333333 0.33333333 4.66666667 0.66666667 7 1 C8.093125 1.103125 9.18625 1.20625 10.3125 1.3125 C15.12941773 2.21056941 19.62536429 3.77916003 24 6 C24.33 6.66 24.66 7.32 25 8 C3.17706237 3.17706237 3.17706237 3.17706237 0 0 Z " fill="#07142D" transform="translate(628,80)"/>
<path d="M0 0 C0.66 0.33 1.32 0.66 2 1 C-0.57807025 6.15614049 -4.57041664 10.36111002 -9 14 C-11.25390625 14.734375 -11.25390625 14.734375 -13 15 C-10.86662672 10.95781904 -8.56358989 8.79996348 -5 6 C-3.24241151 4.06042687 -1.63092428 2.05030481 0 0 Z " fill="#0E2A2F" transform="translate(530,327)"/>
<path d="M0 0 C0 3.3 0 6.6 0 10 C-0.33 10 -0.66 10 -1 10 C-1.33 7.69 -1.66 5.38 -2 3 C-2.39832031 3.5053125 -2.79664063 4.010625 -3.20703125 4.53125 C-4.00173828 5.50578125 -4.00173828 5.50578125 -4.8125 6.5 C-5.33457031 7.1496875 -5.85664062 7.799375 -6.39453125 8.46875 C-8 10 -8 10 -11 10 C-11 10.66 -11 11.32 -11 12 C-11.66 11.67 -12.32 11.34 -13 11 C-4.91176471 0 -4.91176471 0 0 0 Z " fill="#173061" transform="translate(730,342)"/>
<path d="M0 0 C0.33 0.66 0.66 1.32 1 2 C-1.09016808 6.54918935 -4.13620455 8.99482576 -8 12 C-8.66 11.34 -9.32 10.68 -10 10 C-6.66666667 6.66666667 -3.33333333 3.33333333 0 0 Z " fill="#3D8D96" transform="translate(506,399)"/>
<path d="M0 0 C4.24 8.48 4.24 8.48 3.625 12.375 C3.41875 12.91125 3.2125 13.4475 3 14 C1.68 14 0.36 14 -1 14 C-0.67 9.38 -0.34 4.76 0 0 Z " fill="#1D3F79" transform="translate(723,114)"/>
<path d="M0 0 C2.97 0.495 2.97 0.495 6 1 C6.12375 1.639375 6.2475 2.27875 6.375 2.9375 C6.684375 3.9584375 6.684375 3.9584375 7 5 C7.66 5.33 8.32 5.66 9 6 C10 8 10 8 11 10 C11.66 10.33 12.32 10.66 13 11 C13 11.99 13 12.98 13 14 C12.34 14 11.68 14 11 14 C9.62517548 12.47047124 8.32334103 10.87477094 7.0625 9.25 C6.37285156 8.36828125 5.68320312 7.4865625 4.97265625 6.578125 C3.30206725 4.39478097 1.64287942 2.20423948 0 0 Z " fill="#172F5F" transform="translate(666,97)"/>
<path d="M0 0 C4.14976705 0.61025986 7.29496658 2.07029509 11 4 C12.3921875 4.495 12.3921875 4.495 13.8125 5 C14.534375 5.33 15.25625 5.66 16 6 C16.33 6.99 16.66 7.98 17 9 C15.3501725 8.57781184 13.70516335 8.13675575 12.0625 7.6875 C11.14597656 7.44386719 10.22945312 7.20023438 9.28515625 6.94921875 C8.53105469 6.63597656 7.77695312 6.32273437 7 6 C6.67 5.01 6.34 4.02 6 3 C2.99152582 1.77479736 2.99152582 1.77479736 0 1 C0 0.67 0 0.34 0 0 Z " fill="#0D2146" transform="translate(660,48)"/>
<path d="M0 0 C0 0.33 0 0.66 0 1 C-2.93666226 1.67055285 -5.87422359 2.33659053 -8.8125 3 C-9.64587891 3.19078125 -10.47925781 3.3815625 -11.33789062 3.578125 C-12.14033203 3.75859375 -12.94277344 3.9390625 -13.76953125 4.125 C-14.50792236 4.29257812 -15.24631348 4.46015625 -16.00708008 4.6328125 C-18 5 -18 5 -21 5 C-21 4.34 -21 3.68 -21 3 C-18.81462633 2.49078672 -16.62657569 1.99305563 -14.4375 1.5 C-12.61025391 1.08234375 -12.61025391 1.08234375 -10.74609375 0.65625 C-7.07777293 0.01362446 -3.71497397 -0.11474823 0 0 Z " fill="#030F26" transform="translate(226,41)"/>
<path d="M0 0 C0 4.00866157 -1.44101711 6.98350199 -4 10 C-7.25 10.9375 -7.25 10.9375 -10 11 C-6.79239749 7.19364503 -3.59253891 3.45436433 0 0 Z " fill="#3E8E97" transform="translate(495,410)"/>
<path d="M0 0 C0.33 0.66 0.66 1.32 1 2 C1.66 2.33 2.32 2.66 3 3 C2.34 3 1.68 3 1 3 C0.67 3.66 0.34 4.32 0 5 C-0.99 5.495 -0.99 5.495 -2 6 C-2.6496875 6.99 -2.6496875 6.99 -3.3125 8 C-5.41386347 10.49050485 -6.82908867 10.65719878 -10 11 C-6.79239749 7.19364503 -3.59253891 3.45436433 0 0 Z " fill="#3C8F9D" transform="translate(540,366)"/>
<path d="M0 0 C3.21107147 1.60553573 3.45574161 4.45419565 4.625 7.75 C5.07101563 8.98234375 5.51703125 10.2146875 5.9765625 11.484375 C6.87700629 14.57750252 7.23061312 16.81996652 7 20 C4.94001629 16.91002444 3.71705907 14.01967556 2.375 10.5625 C1.70597656 8.86287109 1.70597656 8.86287109 1.0234375 7.12890625 C0 4 0 4 0 0 Z " fill="#1A3B71" transform="translate(133,556)"/>
<path d="M0 0 C4.68163265 3.66938776 4.68163265 3.66938776 6.625 5.6875 C8.08068897 7.26372838 8.08068897 7.26372838 11 8 C12.1875 10.5625 12.1875 10.5625 13 13 C7.3702312 10.40164517 2.72671342 7.756395 0 2 C0 1.34 0 0.68 0 0 Z " fill="#122A55" transform="translate(154,600)"/>
<path d="M0 0 C2.31 0.33 4.62 0.66 7 1 C7 1.99 7 2.98 7 4 C7.639375 4.12375 8.27875 4.2475 8.9375 4.375 C9.618125 4.58125 10.29875 4.7875 11 5 C11.33 5.66 11.66 6.32 12 7 C7.48292068 6.4685789 4.61312423 4.70984317 1 2 C0.67 1.34 0.34 0.68 0 0 Z " fill="#193668" transform="translate(174,619)"/>
<path d="M0 0 C1 2 1 2 0.9375 4.1875 C-0.41891905 8.25675715 -3.09212438 10.91427266 -6 14 C-6 10.13304322 -4.58090029 7.4911548 -3 4 C-2.34 4 -1.68 4 -1 4 C-0.67 2.68 -0.34 1.36 0 0 Z " fill="#1A3A71" transform="translate(149,88)"/>
<path d="M0 0 C0.66 0.33 1.32 0.66 2 1 C-1.75 6.75 -1.75 6.75 -4 9 C-5.32 8.67 -6.64 8.34 -8 8 C-5.36 5.36 -2.72 2.72 0 0 Z " fill="#3C8C95" transform="translate(670,238)"/>
<path d="M0 0 C0.66 1.32 1.32 2.64 2 4 C0 6 0 6 -1.8125 6.3125 C-5.04970144 7.32990617 -6.73850933 9.55005177 -9 12 C-7.55575365 8.76138697 -5.74227753 6.38030837 -3.375 3.75 C-2.74335938 3.04359375 -2.11171875 2.3371875 -1.4609375 1.609375 C-0.97882813 1.07828125 -0.49671875 0.5471875 0 0 Z " fill="#132D5B" transform="translate(159,75)"/>
<path d="M0 0 C3.5549955 1.4219982 4.36668882 2.63730051 6 6 C7.62746694 7.70496537 9.28891311 9.37897032 11 11 C8.5625 10.625 8.5625 10.625 6 10 C5.67 9.34 5.34 8.68 5 8 C4.01 7.34 3.02 6.68 2 6 C1.375 4 1.375 4 1 2 C0.67 1.34 0.34 0.68 0 0 Z " fill="#387C85" transform="translate(699,238)"/>
<path d="M0 0 C0.33 0.99 0.66 1.98 1 3 C0.67 3.66 0.34 4.32 0 5 C-0.99 5 -1.98 5 -3 5 C-3.33 6.32 -3.66 7.64 -4 9 C-5.65 9.33 -7.3 9.66 -9 10 C-8.06409496 8.8944811 -7.12620142 7.79064547 -6.1875 6.6875 C-5.66542969 6.07261719 -5.14335938 5.45773437 -4.60546875 4.82421875 C-3.12827531 3.14575321 -1.59960869 1.56117966 0 0 Z " fill="#3E8997" transform="translate(565,341)"/>
<path d="M0 0 C-2.92910944 1.95273962 -5.08132291 2.75396363 -8.4375 3.6875 C-9.38496094 3.95949219 -10.33242188 4.23148438 -11.30859375 4.51171875 C-13.98918237 4.99803744 -15.46287583 4.89369149 -18 4 C-15.75438718 3.13237686 -13.50473745 2.2807897 -11.25 1.4375 C-10.61578125 1.19064453 -9.9815625 0.94378906 -9.328125 0.68945312 C-5.88990821 -0.58197079 -3.47831118 -1.46686355 0 0 Z " fill="#091C3B" transform="translate(668,632)"/>
<path d="M0 0 C3 1.8125 3 1.8125 6 4 C6 4.99 6 5.98 6 7 C4.35 6.67 2.7 6.34 1 6 C0.67 4.02 0.34 2.04 0 0 Z " fill="#3E8790" transform="translate(714,253)"/>
<path d="M0 0 C0.33 0 0.66 0 1 0 C0.63076923 7.38461538 0.63076923 7.38461538 -2.5625 10.5 C-3.7690625 11.2425 -3.7690625 11.2425 -5 12 C-3.68938409 7.76570244 -2.05643741 3.92592596 0 0 Z " fill="#1B3870" transform="translate(687,555)"/>
<path d="M0 0 C1.32 0.33 2.64 0.66 4 1 C1.69 3.31 -0.62 5.62 -3 8 C-3.33 6.68 -3.66 5.36 -4 4 C-2.68 3.34 -1.36 2.68 0 2 C0 1.34 0 0.68 0 0 Z " fill="#43929D" transform="translate(607,408)"/>
<path d="M0 0 C0.33 0.99 0.66 1.98 1 3 C-0.75 5.0625 -0.75 5.0625 -3 7 C-4.32 6.67 -5.64 6.34 -7 6 C-4.69 4.02 -2.38 2.04 0 0 Z " fill="#3A8894" transform="translate(573,334)"/>
<path d="M0 0 C0.66 0 1.32 0 2 0 C1.65120368 3.25543229 0.97866739 4.01873107 -1.5625 6.25 C-2.366875 6.8275 -3.17125 7.405 -4 8 C-4.66 7.67 -5.32 7.34 -6 7 C-4.71937515 5.2925002 -3.38232443 3.62626404 -2 2 C-1.34 2 -0.68 2 0 2 C0 1.34 0 0.68 0 0 Z " fill="#357988" transform="translate(616,290)"/>
<path d="M0 0 C0.66 0.99 1.32 1.98 2 3 C0.35 4.98 -1.3 6.96 -3 9 C-3.93423645 5.98968256 -4.04449911 5.13349732 -3 2 C-2.01 1.34 -1.02 0.68 0 0 Z " fill="#4394A0" transform="translate(473,432)"/>
<path d="M0 0 C0.33 1.32 0.66 2.64 1 4 C0.01 4.33 -0.98 4.66 -2 5 C-2 5.66 -2 6.32 -2 7 C-3.65 7.33 -5.3 7.66 -7 8 C-6.02133662 6.85373678 -5.04205413 5.70800212 -4.0625 4.5625 C-3.51722656 3.92441406 -2.97195313 3.28632813 -2.41015625 2.62890625 C-1.63204305 1.73008851 -0.84063472 0.84063472 0 0 Z " fill="#3D8C94" transform="translate(484,421)"/>
<path d="M0 0 C0.66 0.33 1.32 0.66 2 1 C0.92643323 2.15498897 -0.15929788 3.29867867 -1.25 4.4375 C-1.85328125 5.07558594 -2.4565625 5.71367187 -3.078125 6.37109375 C-5.10048016 8.08516306 -6.41270605 8.59358878 -9 9 C-7.625 7 -7.625 7 -6 5 C-5.34 5 -4.68 5 -4 5 C-3.67 4.01 -3.34 3.02 -3 2 C-2.01 1.34 -1.02 0.68 0 0 Z " fill="#041619" transform="translate(598,422)"/>
<path d="M0 0 C0.33 0.99 0.66 1.98 1 3 C0.21625 3.598125 -0.5675 4.19625 -1.375 4.8125 C-4.14574323 6.91085249 -4.14574323 6.91085249 -6 10 C-6.99 9.67 -7.98 9.34 -9 9 C-6.03 6.03 -3.06 3.06 0 0 Z " fill="#091B3B" transform="translate(601,256)"/>
<path d="M0 0 C2.475 0.495 2.475 0.495 5 1 C5.33 1.99 5.66 2.98 6 4 C8.97 4.495 8.97 4.495 12 5 C10.4375 5.75 10.4375 5.75 8 6 C4.77102114 4.63931677 1.61680316 3.23360633 0 0 Z " fill="#0A1C38" transform="translate(204,592)"/>
<path d="M0 0 C0 3.21518097 -0.1621112 4.41024759 -2 7 C-5.125 8.25 -5.125 8.25 -8 9 C-7.04270084 7.87411986 -6.08412105 6.7493285 -5.125 5.625 C-4.59132813 4.99851563 -4.05765625 4.37203125 -3.5078125 3.7265625 C-2.38567993 2.44163349 -1.20628025 1.20628025 0 0 Z " fill="#3D868F" transform="translate(661,247)"/>
<path d="M0 0 C-2.97 2.475 -2.97 2.475 -6 5 C-6.66 4.67 -7.32 4.34 -8 4 C-8 3.01 -8 2.02 -8 1 C-2.25 -1.125 -2.25 -1.125 0 0 Z " fill="#142A58" transform="translate(688,619)"/>
<path d="M0 0 C0 0.99 0 1.98 0 3 C-1.8125 4.75 -1.8125 4.75 -4 6 C-4.99 5.67 -5.98 5.34 -7 5 C-4.63707344 2.47411298 -3.33537489 1.11179163 0 0 Z " fill="#06132C" transform="translate(695,612)"/>
<path d="M0 0 C0 4.38968456 -2.12805101 5.76905739 -5 9 C-5.66 8.67 -6.32 8.34 -7 8 C-6.525625 7.5875 -6.05125 7.175 -5.5625 6.75 C-3.84723373 5.10921183 -3.84723373 5.10921183 -3.5 2.875 C-3.335 2.25625 -3.17 1.6375 -3 1 C-2.01 0.67 -1.02 0.34 0 0 Z " fill="#142750" transform="translate(703,602)"/>
<path d="M0 0 C-0.66 1.32 -1.32 2.64 -2 4 C-3.32 4 -4.64 4 -6 4 C-6 4.66 -6 5.32 -6 6 C-6.99 5.67 -7.98 5.34 -9 5 C-8.34 5 -7.68 5 -7 5 C-7 4.34 -7 3.68 -7 3 C-4.4385343 0.70351351 -3.52032428 0 0 0 Z " fill="#19346F" transform="translate(665,587)"/>
<path d="M0 0 C0.33 1.32 0.66 2.64 1 4 C-1.375 5.5625 -1.375 5.5625 -4 7 C-4.66 6.67 -5.32 6.34 -6 6 C-4.02 4.02 -2.04 2.04 0 0 Z " fill="#3E8A96" transform="translate(513,392)"/>
<path d="M0 0 C0.33 0.66 0.66 1.32 1 2 C-1.35380297 5.92300495 -3.64464931 6.83857315 -8 8 C-7.34 7.01 -6.68 6.02 -6 5 C-5.34 5 -4.68 5 -4 5 C-4 4.34 -4 3.68 -4 3 C-2 1.375 -2 1.375 0 0 Z " fill="#367A87" transform="translate(522,384)"/>
<path d="M0 0 C0.66 0.33 1.32 0.66 2 1 C0.02 3.31 -1.96 5.62 -4 8 C-4.66 7.67 -5.32 7.34 -6 7 C-2.25 1.125 -2.25 1.125 0 0 Z " fill="#061C21" transform="translate(552,306)"/>
<path d="M0 0 C0.33 0 0.66 0 1 0 C1.36625971 4.51720311 1.36625971 4.51720311 -0.375 6.8125 C-2 8 -2 8 -4 8 C-2.87548273 5.0280615 -1.77706209 2.66559313 0 0 Z " fill="#061128" transform="translate(180,112)"/>
<path d="M0 0 C0.99 0 1.98 0 3 0 C1.60667426 3.36720387 0.0210714 4.9859524 -3 7 C-2.25 2.25 -2.25 2.25 0 0 Z " fill="#45939D" transform="translate(701,314)"/>
<path d="M0 0 C0.99 0 1.98 0 3 0 C1.60667426 3.36720387 0.0210714 4.9859524 -3 7 C-2.25 2.25 -2.25 2.25 0 0 Z " fill="#45939E" transform="translate(717,298)"/>
<path d="M0 0 C3.82932166 2.42778993 3.82932166 2.42778993 4.609375 5.04296875 C4.73958333 7.02864583 4.86979167 9.01432292 5 11 C3 10 3 10 2.1484375 7.71484375 C1.89320313 6.79832031 1.63796875 5.88179688 1.375 4.9375 C1.11460937 4.01839844 0.85421875 3.09929687 0.5859375 2.15234375 C0.39257812 1.44207031 0.19921875 0.73179688 0 0 Z " fill="#0A1835" transform="translate(717,98)"/>
<path d="M0 0 C0.66 0 1.32 0 2 0 C0.14285714 7.57142857 0.14285714 7.57142857 -3 10 C-3 8.35 -3 6.7 -3 5 C-2.34 5 -1.68 5 -1 5 C-0.67 3.35 -0.34 1.7 0 0 Z " fill="#041127" transform="translate(144,92)"/>
<path d="M0 0 C1 3 1 3 -0.4375 6.1875 C-1.2109375 7.5796875 -1.2109375 7.5796875 -2 9 C-3.10102197 5.69693408 -2.95067299 4.28414305 -2 1 C-1.34 0.67 -0.68 0.34 0 0 Z " fill="#030E29" transform="translate(687,552)"/>
<path d="M0 0 C0.66 0.33 1.32 0.66 2 1 C-0.31944788 4.47917182 -2.26369964 5.29429766 -6 7 C-4.60667426 3.63279613 -3.0210714 2.0140476 0 0 Z " fill="#0C254C" transform="translate(166,68)"/>
</svg>
