<?xml version="1.0" encoding="UTF-8"?>
<svg version="1.1" xmlns="http://www.w3.org/2000/svg" width="296" height="171">
<path d="M0 0 C97.68 0 195.36 0 296 0 C296 56.43 296 112.86 296 171 C198.32 171 100.64 171 0 171 C0 114.57 0 58.14 0 0 Z " fill="#010000" transform="translate(0,0)"/>
<path d="M0 0 C0.8532637 -0.01377182 1.7065274 -0.02754364 2.58564758 -0.04173279 C4.3867045 -0.06492801 6.1878458 -0.08223233 7.98901367 -0.09399414 C10.71371337 -0.12085158 13.43448392 -0.19580497 16.15820312 -0.27148438 C27.85848953 -0.44607347 35.12122743 0.99759362 43.96289062 9.21948242 C49.14471623 14.43199426 52.88767529 23.1273413 53.16430664 30.4440918 C53.15645142 32.24293823 53.15645142 32.24293823 53.1484375 34.078125 C53.14360352 36.0262207 53.14360352 36.0262207 53.13867188 38.01367188 C53.13031656 39.38541733 53.12185162 40.75716212 53.11328125 42.12890625 C53.1082646 43.5123682 53.10370198 44.89583188 53.09960938 46.27929688 C53.08780654 49.6667102 53.07134144 53.05403658 53.05078125 56.44140625 C48.79918947 58.64434796 44.66412204 60.78075092 40.05078125 62.12890625 C38.90609375 62.47501953 38.90609375 62.47501953 37.73828125 62.828125 C29.06209423 64.8080107 20.21993506 64.76202372 11.36328125 64.81640625 C10.63411499 64.82130066 9.90494873 64.82619507 9.15368652 64.83123779 C-5.25597829 64.87116143 -18.53213134 62.91225415 -31.94921875 57.44140625 C-32.0243571 53.37044891 -32.07827788 49.29976978 -32.11401367 45.22827148 C-32.12893817 43.84831699 -32.14928536 42.46840853 -32.17553711 41.08862305 C-32.33710649 32.36704443 -31.84547761 24.71005659 -28.94921875 16.44140625 C-28.28921875 16.44140625 -27.62921875 16.44140625 -26.94921875 16.44140625 C-26.88734375 15.88453125 -26.82546875 15.32765625 -26.76171875 14.75390625 C-25.59189868 11.42441836 -23.54420213 9.80572444 -20.94921875 7.44140625 C-19.97984375 6.55453125 -19.01046875 5.66765625 -18.01171875 4.75390625 C-12.33189217 0.46505761 -6.86494529 0.09868863 0 0 Z " fill="#F7A01A" transform="translate(138.94921875,89.55859375)"/>
<path d="M0 0 C1.44789177 0.02010961 2.89581073 0.03835245 4.34375 0.0546875 C7.85474127 0.09829847 11.3646912 0.1670743 14.875 0.25 C15.07343506 1.00418213 15.27187012 1.75836426 15.47631836 2.53540039 C15.74065674 3.52531982 16.00499512 4.51523926 16.27734375 5.53515625 C16.53765381 6.51621338 16.79796387 7.49727051 17.06616211 8.50805664 C17.99366473 11.65227092 19.27282731 14.39395303 20.875 17.25 C21.54647577 18.58091792 22.21401308 19.91384188 22.875 21.25 C21.41962432 22.08848804 19.96059627 22.92063934 18.5 23.75 C17.68789062 24.2140625 16.87578125 24.678125 16.0390625 25.15625 C13.875 26.25 13.875 26.25 11.875 26.25 C11.875 26.91 11.875 27.57 11.875 28.25 C11.00875 28.889375 10.1425 29.52875 9.25 30.1875 C1.35062161 36.53320918 -1.39154698 46.61440735 -2.45703125 56.25390625 C-2.71221555 58.91803031 -2.93539119 61.58050757 -3.125 64.25 C-15.98466733 65.06792937 -27.99561699 62.37185488 -40.125 58.25 C-40.32611371 53.68278499 -40.46943898 49.11826303 -40.56445312 44.54760742 C-40.60414049 43.00060033 -40.65831413 41.45388193 -40.72851562 39.90795898 C-41.25873119 27.91183176 -39.35491838 19.03886486 -32.125 9.25 C-22.77414297 -0.02288261 -12.39223371 -0.30169425 0 0 Z " fill="#F79F19" transform="translate(104.125,63.75)"/>
<path d="M0 0 C4.41614737 -0.17668214 8.83136778 -0.28164862 13.25 -0.375 C14.48492187 -0.42527344 15.71984375 -0.47554687 16.9921875 -0.52734375 C27.29936316 -0.69008863 34.96096443 1.81867261 42.9375 8.4375 C49.0492555 16.0308932 52.34649293 21.68651334 52.1953125 31.8046875 C52.1924826 32.5286673 52.18965271 33.25264709 52.18673706 33.99856567 C52.17562087 36.2908849 52.15053312 38.58280063 52.125 40.875 C52.1149591 42.43749432 52.10583519 43.99999482 52.09765625 45.5625 C52.07570973 49.37515338 52.04124013 53.18750848 52 57 C40.51253283 63.08912514 29.96577803 64.39290236 17 64 C16.505 54.1 16.505 54.1 16 44 C15.34 44 14.68 44 14 44 C13.5875 42.783125 13.175 41.56625 12.75 40.3125 C11.36535331 36.62881729 9.77124329 33.85784464 7 31 C6.01 30.67 5.02 30.34 4 30 C1.8125 28.0625 1.8125 28.0625 0 26 C0 25.34 0 24.68 0 24 C-0.94875 23.855625 -1.8975 23.71125 -2.875 23.5625 C-6 23 -6 23 -8 22 C-7.49396008 19.83125748 -7.00016187 18.00032373 -6 16 C-5.34 16 -4.68 16 -4 16 C-4.061875 15.360625 -4.12375 14.72125 -4.1875 14.0625 C-3.88627772 9.14253603 -2.20201507 4.40403015 0 0 Z " fill="#F69F1A" transform="translate(180,64)"/>
<path d="M0 0 C0.99 0.66 1.98 1.32 3 2 C3 2.66 3 3.32 3 4 C3.66 4 4.32 4 5 4 C9.87424446 9.7076645 12.00177975 15.4345207 11.578125 22.90625 C10.20648127 30.24639755 6.97089223 36.86510356 1.125 41.625 C-4.87365434 45.50245718 -11.88893603 47.04653394 -19 46 C-27.63047388 43.64080472 -32.40796195 38.26432066 -36.9375 30.8125 C-38.7570245 24.28361798 -39.30169625 16.61552636 -36.9375 10.125 C-28.33955422 -3.74265448 -14.37150016 -8.05274242 0 0 Z " fill="#F49E1B" transform="translate(163,42)"/>
<path d="M0 0 C5.31963993 3.94080349 9.59390534 8.24161578 11.00390625 14.87109375 C11.2260074 19.74531366 11.18443598 22.66984565 8.0859375 26.54296875 C7.1784375 27.26484375 6.2709375 27.98671875 5.3359375 28.73046875 C3.05942219 32.34611071 1.43272749 35.46649606 -0.0390625 39.48046875 C-1.6640625 42.73046875 -1.6640625 42.73046875 -4.1640625 44.66796875 C-11.01412634 46.74745242 -18.2130765 46.67659988 -24.8203125 43.765625 C-30.13611603 40.78111666 -34.48716882 36.89752016 -37.0078125 31.26953125 C-38.74047699 24.56576983 -39.00841226 16.12717672 -36.4140625 9.60546875 C-33.89785301 5.47169601 -31.71311805 2.42983912 -27.6640625 -0.26953125 C-26.3440625 -0.26953125 -25.0240625 -0.26953125 -23.6640625 -0.26953125 C-23.6640625 -0.92953125 -23.6640625 -1.58953125 -23.6640625 -2.26953125 C-15.57915753 -4.60687344 -7.32981952 -4.23421613 0 0 Z " fill="#F79F1A" transform="translate(119.6640625,16.26953125)"/>
<path d="M0 0 C5.25489476 3.15088416 9.00476073 6.77777314 12 12.19921875 C12.60651323 15.1531694 12.66768563 18.00269603 12.625 21.01171875 C12.61243164 22.20994263 12.61243164 22.20994263 12.59960938 23.43237305 C12.38482265 29.02882398 11.50824621 33.08469134 7.8515625 37.50390625 C4.8278803 40.27242539 1.65312401 42.35786677 -2 44.19921875 C-2.61746094 44.5653125 -3.23492187 44.93140625 -3.87109375 45.30859375 C-6.64356308 46.46845248 -8.93873808 46.50037413 -11.9375 46.51171875 C-12.95714844 46.52847656 -13.97679687 46.54523437 -15.02734375 46.5625 C-18.48863318 46.13950405 -20.30182143 45.40551698 -23 43.19921875 C-23.8984375 40.78125 -23.8984375 40.78125 -24.375 38.01171875 C-25.94550948 31.19715175 -29.5507772 27.25630253 -34.68359375 22.70703125 C-36.61098336 20.49939805 -36.58829159 18.30724302 -36.48828125 15.46484375 C-35.54596794 11.09251001 -32.96879226 7.48123221 -30 4.19921875 C-27.796875 2.94140625 -27.796875 2.94140625 -26 2.19921875 C-26 1.53921875 -26 0.87921875 -26 0.19921875 C-17.17202437 -3.79835512 -8.80985561 -4.48358723 0 0 Z " fill="#F79F1A" transform="translate(202,15.80078125)"/>
<path d="M0 0 C0.66 0.99 1.32 1.98 2 3 C2.66 3.66 3.32 4.32 4 5 C3.505 5.886875 3.01 6.77375 2.5 7.6875 C-0.17338205 14.03678237 -0.13459804 21.3188597 1.87890625 27.8515625 C4.97934387 34.62545591 9.18558423 39.21452879 15.9375 42.375 C23.94662487 44.00951528 30.31845105 42.37224306 38 40 C37 42 36 44 35 46 C34.13834229 46.0093457 33.27668457 46.01869141 32.38891602 46.02832031 C29.15113419 46.07268242 25.91425352 46.13445068 22.67700195 46.20751953 C21.28356782 46.23551371 19.88998125 46.25683406 18.49633789 46.27099609 C5.37833728 46.24546071 5.37833728 46.24546071 -5.60717773 52.63378906 C-7 54 -7 54 -9 54 C-9.28875 54.5775 -9.5775 55.155 -9.875 55.75 C-10.91666667 57.83333333 -11.95833333 59.91666667 -13 62 C-13.66 62 -14.32 62 -15 62 C-15.144375 62.886875 -15.28875 63.77375 -15.4375 64.6875 C-15.75608352 66.56360292 -16.09819869 68.43703301 -16.51538086 70.29370117 C-17.07562949 73.42234401 -17.21486162 76.43638494 -17.31640625 79.61328125 C-17.35830078 80.86044922 -17.40019531 82.10761719 -17.44335938 83.39257812 C-17.48267578 84.68615234 -17.52199219 85.97972656 -17.5625 87.3125 C-17.60568359 88.62541016 -17.64886719 89.93832031 -17.69335938 91.29101562 C-17.79927227 94.52724288 -17.90134885 97.76354458 -18 101 C-18.33 101 -18.66 101 -19 101 C-19 89.78 -19 78.56 -19 67 C-20.485 67.495 -20.485 67.495 -22 68 C-21.98839844 68.65226562 -21.97679688 69.30453125 -21.96484375 69.9765625 C-21.91529006 74.7761914 -22.00586249 79.27784685 -23 84 C-23.33 84 -23.66 84 -24 84 C-24.42261225 71.43902477 -22.59866076 61.32474095 -14.56640625 51.19140625 C-13.25 49.8125 -13.25 49.8125 -11 48 C-10.34 48 -9.68 48 -9 48 C-9 47.34 -9 46.68 -9 46 C-4.05 43.525 -4.05 43.525 1 41 C-0.46688068 38.06085602 -0.46688068 38.06085602 -2.03515625 35.17578125 C-2.37417969 34.56089844 -2.71320313 33.94601563 -3.0625 33.3125 C-3.40410156 32.71050781 -3.74570313 32.10851562 -4.09765625 31.48828125 C-5 29 -5 29 -6 20 C-16.23 20 -26.46 20 -37 20 C-37 19.67 -37 19.34 -37 19 C-33.535 18.505 -33.535 18.505 -30 18 C-30 17.34 -30 16.68 -30 16 C-29.236875 16.165 -28.47375 16.33 -27.6875 16.5 C-21.53225755 17.33460915 -15.61850398 17.66652828 -9.5625 16.125 C-6.21634667 13.35014114 -5.30129495 10.54227649 -3.95703125 6.47265625 C-2.96706094 3.91489623 -1.73591102 2.10754268 0 0 Z " fill="#1E1102" transform="translate(125,44)"/>
<path d="M0 0 C0.8532637 -0.01377182 1.7065274 -0.02754364 2.58564758 -0.04173279 C4.3867045 -0.06492801 6.1878458 -0.08223233 7.98901367 -0.09399414 C10.71371337 -0.12085158 13.43448392 -0.19580497 16.15820312 -0.27148438 C26.72953837 -0.42596698 33.84839594 0.11476255 42.05078125 7.44140625 C41.39078125 7.77140625 40.73078125 8.10140625 40.05078125 8.44140625 C37.69096312 7.5056163 35.35446861 6.50792817 33.05078125 5.44140625 C33.05078125 4.78140625 33.05078125 4.12140625 33.05078125 3.44140625 C32.06078125 3.44140625 31.07078125 3.44140625 30.05078125 3.44140625 C30.05078125 2.78140625 30.05078125 2.12140625 30.05078125 1.44140625 C19.82078125 1.44140625 9.59078125 1.44140625 -0.94921875 1.44140625 C-0.94921875 2.10140625 -0.94921875 2.76140625 -0.94921875 3.44140625 C-4.57921875 3.44140625 -8.20921875 3.44140625 -11.94921875 3.44140625 C-11.94921875 4.10140625 -11.94921875 4.76140625 -11.94921875 5.44140625 C-12.93921875 5.44140625 -13.92921875 5.44140625 -14.94921875 5.44140625 C-15.17609375 6.08078125 -15.40296875 6.72015625 -15.63671875 7.37890625 C-16.94921875 9.44140625 -16.94921875 9.44140625 -19.57421875 10.19140625 C-20.35796875 10.27390625 -21.14171875 10.35640625 -21.94921875 10.44140625 C-21.94921875 11.43140625 -21.94921875 12.42140625 -21.94921875 13.44140625 C-23.26921875 13.77140625 -24.58921875 14.10140625 -25.94921875 14.44140625 C-25.99820313 15.14007813 -26.0471875 15.83875 -26.09765625 16.55859375 C-26.17242187 17.46867187 -26.2471875 18.37875 -26.32421875 19.31640625 C-26.39382812 20.22132812 -26.4634375 21.12625 -26.53515625 22.05859375 C-26.94921875 24.44140625 -26.94921875 24.44140625 -28.94921875 26.44140625 C-29.22813022 29.4540435 -29.22813022 29.4540435 -29.14453125 32.98046875 C-29.13808594 34.28242187 -29.13164063 35.584375 -29.125 36.92578125 C-29.10828804 38.3059922 -29.09135814 39.68620054 -29.07421875 41.06640625 C-29.06418881 42.45442077 -29.05506298 43.84244214 -29.046875 45.23046875 C-29.02323738 48.63428651 -28.99028742 52.03776131 -28.94921875 55.44140625 C-26.96921875 56.43140625 -24.98921875 57.42140625 -22.94921875 58.44140625 C-26.60560412 59.79562305 -28.46249267 58.95636849 -31.94921875 57.44140625 C-32.0243571 53.37044891 -32.07827788 49.29976978 -32.11401367 45.22827148 C-32.12893817 43.84831699 -32.14928536 42.46840853 -32.17553711 41.08862305 C-32.33710649 32.36704443 -31.84547761 24.71005659 -28.94921875 16.44140625 C-28.28921875 16.44140625 -27.62921875 16.44140625 -26.94921875 16.44140625 C-26.88734375 15.88453125 -26.82546875 15.32765625 -26.76171875 14.75390625 C-25.59189868 11.42441836 -23.54420213 9.80572444 -20.94921875 7.44140625 C-19.97984375 6.55453125 -19.01046875 5.66765625 -18.01171875 4.75390625 C-12.33189217 0.46505761 -6.86494529 0.09868863 0 0 Z " fill="#C18323" transform="translate(138.94921875,89.55859375)"/>
<path d="M0 0 C1.32 0 2.64 0 4 0 C4 0.66 4 1.32 4 2 C5.32 2.66 6.64 3.32 8 4 C8 4.66 8 5.32 8 6 C8.88751953 6.11408203 8.88751953 6.11408203 9.79296875 6.23046875 C12.75922694 7.26472161 13.59873214 8.71420679 15.3125 11.3125 C15.84488281 12.09238281 16.37726563 12.87226562 16.92578125 13.67578125 C18 16 18 16 17.734375 18.08984375 C17.49203125 18.72019531 17.2496875 19.35054687 17 20 C16.4740625 21.60875 16.4740625 21.60875 15.9375 23.25 C15.4734375 24.61125 15.4734375 24.61125 15 26 C14.72671875 25.44183594 14.4534375 24.88367188 14.171875 24.30859375 C9.95299844 15.99740693 5.94946931 8.78631394 -3 5 C-3 4.67 -3 4.34 -3 4 C-1.35 4 0.3 4 2 4 C2 3.34 2 2.68 2 2 C1.34 2 0.68 2 0 2 C0 1.34 0 0.68 0 0 Z " fill="#1F1101" transform="translate(176,88)"/>
<path d="M0 0 C6.78216406 6.21698372 10.52350968 13.05805985 11.2746582 22.42504883 C11.30273503 26.2211931 11.3218 30.01623813 11.3125 33.8125 C11.32822141 35.16081387 11.34449276 36.50912145 11.36132812 37.85742188 C11.36197266 39.12779297 11.36261719 40.39816406 11.36328125 41.70703125 C11.36626221 42.8669458 11.36924316 44.02686035 11.37231445 45.22192383 C11.24945068 46.13868896 11.12658691 47.0554541 11 48 C8 50 8 50 5 50 C5.33 48.68 5.66 47.36 6 46 C6.66 46 7.32 46 8 46 C7.67 35.44 7.34 24.88 7 14 C5.68 13.34 4.36 12.68 3 12 C3 10.02 3 8.04 3 6 C2.34 5.67 1.68 5.34 1 5 C0.375 2.4375 0.375 2.4375 0 0 Z " fill="#C4892A" transform="translate(181,98)"/>
<path d="M0 0 C9.24 0 18.48 0 28 0 C28 0.33 28 0.66 28 1 C19.09 1 10.18 1 1 1 C1 4.3 1 7.6 1 11 C0.01 11.33 -0.98 11.66 -2 12 C-1.95875 12.928125 -1.9175 13.85625 -1.875 14.8125 C-2 18 -2 18 -4 21 C-2.02 21.66 -0.04 22.32 2 23 C2 23.99 2 24.98 2 26 C1.34 26 0.68 26 0 26 C0 25.34 0 24.68 0 24 C-0.94875 23.855625 -1.8975 23.71125 -2.875 23.5625 C-6 23 -6 23 -8 22 C-7.49396008 19.83125748 -7.00016187 18.00032373 -6 16 C-5.34 16 -4.68 16 -4 16 C-4.061875 15.360625 -4.12375 14.72125 -4.1875 14.0625 C-3.88627772 9.14253603 -2.20201507 4.40403015 0 0 Z " fill="#BA7B1B" transform="translate(180,64)"/>
<path d="M0 0 C0.66 0.33 1.32 0.66 2 1 C1.484375 1.598125 0.96875 2.19625 0.4375 2.8125 C-0.2740625 3.8953125 -0.2740625 3.8953125 -1 5 C-0.67 5.99 -0.34 6.98 0 8 C-1.28965176 9.37562854 -2.62689293 10.70766393 -4 12 C-4.66 12 -5.32 12 -6 12 C-6.33 13.32 -6.66 14.64 -7 16 C-7.66 16 -8.32 16 -9 16 C-8.91306859 17.79258558 -8.80489496 19.58415144 -8.6875 21.375 C-8.62949219 22.37273438 -8.57148437 23.37046875 -8.51171875 24.3984375 C-8.34285156 25.25695312 -8.17398438 26.11546875 -8 27 C-7.01 27.66 -6.02 28.32 -5 29 C-4.48828125 31.1640625 -4.48828125 31.1640625 -4.3125 33.625 C-4.24675781 34.44226562 -4.18101563 35.25953125 -4.11328125 36.1015625 C-4.07589844 36.72804687 -4.03851563 37.35453125 -4 38 C-8.02494435 34.5500477 -9.82283511 30.61011619 -10.3984375 25.37890625 C-10.3381331 15.55934002 -9.80939439 9.44777511 -3 2 C-2.01 1.34 -1.02 0.68 0 0 Z " fill="#CA8922" transform="translate(92,16)"/>
<path d="M0 0 C1.60031344 3.20062687 0.03173691 5.72271806 -1 9 C-0.34 9.66 0.32 10.32 1 11 C0.6875 12.8125 0.6875 12.8125 0 15 C-0.34060811 16.66519519 -0.67558396 18.33157466 -1 20 C0.65 20.33 2.3 20.66 4 21 C3.34 21.33 2.68 21.66 2 22 C1.67 22.66 1.34 23.32 1 24 C-3.05376559 20.6908036 -5.71328935 18.36738927 -6.8125 13.125 C-6.3744644 7.92969408 -3.10803973 3.99605108 0 0 Z " fill="#E69A1E" transform="translate(172,20)"/>
<path d="M0 0 C0.66 0 1.32 0 2 0 C0.91707317 7.2195122 0.91707317 7.2195122 -2.9375 10.5 C-8.99973564 13.34167296 -16.12761721 12.86740473 -22.375 10.8125 C-26.08482959 9.224754 -28.37747949 7.03228934 -31 4 C-30.67 3.34 -30.34 2.68 -30 2 C-29.34 2 -28.68 2 -28 2 C-27.67 2.99 -27.34 3.98 -27 5 C-24.49552484 6.21869929 -24.49552484 6.21869929 -22 7 C-22 7.66 -22 8.32 -22 9 C-15.2314676 9.10152799 -8.69675136 9.03026944 -2 8 C-2 6.68 -2 5.36 -2 4 C-1.34 4 -0.68 4 0 4 C0 2.68 0 1.36 0 0 Z " fill="#D28D26" transform="translate(119,50)"/>
<path d="M0 0 C0.66 0 1.32 0 2 0 C1.34 6.6 0.68 13.2 0 20 C-8.9429484 20.29161788 -16.43797688 19.59174754 -25 17 C-25 16.67 -25 16.34 -25 16 C-23.94039063 16.01160156 -22.88078125 16.02320312 -21.7890625 16.03515625 C-20.40104342 16.04453476 -19.01302245 16.05363489 -17.625 16.0625 C-16.57699219 16.07506836 -16.57699219 16.07506836 -15.5078125 16.08789062 C-11.62704624 16.1835442 -11.62704624 16.1835442 -8 15 C-7.01 15.33 -6.02 15.66 -5 16 C-5 16.66 -5 17.32 -5 18 C-4.01 18.33 -3.02 18.66 -2 19 C-2.01160156 18.28972656 -2.02320312 17.57945313 -2.03515625 16.84765625 C-2.04417969 15.92855469 -2.05320312 15.00945312 -2.0625 14.0625 C-2.07410156 13.14597656 -2.08570312 12.22945312 -2.09765625 11.28515625 C-2 9 -2 9 -1 8 C-0.76924918 6.65252916 -0.58846937 5.29622435 -0.4375 3.9375 C-0.293125 2.638125 -0.14875 1.33875 0 0 Z " fill="#D48F26" transform="translate(101,108)"/>
<path d="M0 0 C0.66 0 1.32 0 2 0 C1.773125 0.845625 1.54625 1.69125 1.3125 2.5625 C0.90856636 7.00577003 2.02697599 9.05395199 4 13 C4.66 13 5.32 13 6 13 C5.67 18.61 5.34 24.22 5 30 C8.96 30 12.92 30 17 30 C17 30.33 17 30.66 17 31 C12.38 31 7.76 31 3 31 C2.67 24.4 2.34 17.8 2 11 C1.34 11 0.68 11 0 11 C-0.99 8.03 -1.98 5.06 -3 2 C-2.34 2 -1.68 2 -1 2 C-0.67 1.34 -0.34 0.68 0 0 Z " fill="#C58921" transform="translate(194,97)"/>
<path d="M0 0 C-1.5 3 -1.5 3 -3 6 C-11.91 6 -20.82 6 -30 6 C-30 5.67 -30 5.34 -30 5 C-26.535 4.505 -26.535 4.505 -23 4 C-23 3.34 -23 2.68 -23 2 C-22.505 2.165 -22.01 2.33 -21.5 2.5 C-14.98571924 3.80285615 -9.99777312 2.95735016 -3.8828125 0.65625 C-2 0 -2 0 0 0 Z " fill="#412702" transform="translate(163,84)"/>
<path d="M0 0 C2.64 0 5.28 0 8 0 C0.475845 5.01610333 -9.09976454 5.15338592 -17.89453125 5.16796875 C-18.96558357 5.17296135 -18.96558357 5.17296135 -20.05827332 5.17805481 C-21.55145633 5.18307403 -23.04465036 5.1854647 -24.5378418 5.18530273 C-26.8242394 5.18751134 -29.11017042 5.20577889 -31.39648438 5.22460938 C-32.85416503 5.22753996 -34.31184795 5.22952699 -35.76953125 5.23046875 C-37.08542236 5.23457764 -38.40131348 5.23868652 -39.75708008 5.24291992 C-43 5 -43 5 -46 3 C-45.09757568 3.00523682 -44.19515137 3.01047363 -43.26538086 3.01586914 C-39.89021149 3.03299758 -36.5150889 3.04549212 -33.13989258 3.05493164 C-31.68415596 3.05993417 -30.22842429 3.0667383 -28.77270508 3.07543945 C-26.67007212 3.087685 -24.56750609 3.09326923 -22.46484375 3.09765625 C-21.202771 3.10289307 -19.94069824 3.10812988 -18.64038086 3.11352539 C-15.02136059 3.00066613 -11.57386964 2.56095072 -8 2 C-5.3206052 1.89248014 -2.68367951 1.9529179 0 2 C0 1.34 0 0.68 0 0 Z " fill="#C08628" transform="translate(176,149)"/>
<path d="M0 0 C0.33 0.66 0.66 1.32 1 2 C0.01 2.66 -0.98 3.32 -2 4 C-1.34 4.66 -0.68 5.32 0 6 C-9.9 6 -19.8 6 -30 6 C-30 5.67 -30 5.34 -30 5 C-26.535 4.505 -26.535 4.505 -23 4 C-23 3.34 -23 2.68 -23 2 C-22.236875 2.165 -21.47375 2.33 -20.6875 2.5 C-13.29309007 3.50263185 -6.5055076 4.21978871 0 0 Z " fill="#331901" transform="translate(118,58)"/>
<path d="M0 0 C0 0.66 0 1.32 0 2 C-2 3.625 -2 3.625 -4 5 C-1.03 5.495 -1.03 5.495 2 6 C2 6.33 2 6.66 2 7 C-7.24 7 -16.48 7 -26 7 C-26 6.67 -26 6.34 -26 6 C-24.9378125 5.90203125 -23.875625 5.8040625 -22.78125 5.703125 C-15.41268014 4.9490265 -6.45266958 0 0 0 Z " fill="#2E1300" transform="translate(206,57)"/>
<path d="M0 0 C1.92362713 1.1982594 3.34762425 2.50217457 4.875 4.16796875 C2.4 3.67296875 2.4 3.67296875 -0.125 3.16796875 C-0.125 2.50796875 -0.125 1.84796875 -0.125 1.16796875 C-2.105 1.16796875 -4.085 1.16796875 -6.125 1.16796875 C-6.125 0.50796875 -6.125 -0.15203125 -6.125 -0.83203125 C-10.085 -0.83203125 -14.045 -0.83203125 -18.125 -0.83203125 C-18.125 -0.17203125 -18.125 0.48796875 -18.125 1.16796875 C-20.435 1.16796875 -22.745 1.16796875 -25.125 1.16796875 C-25.125 2.15796875 -25.125 3.14796875 -25.125 4.16796875 C-26.445 3.83796875 -27.765 3.50796875 -29.125 3.16796875 C-28.135 2.83796875 -27.145 2.50796875 -26.125 2.16796875 C-26.125 1.50796875 -26.125 0.84796875 -26.125 0.16796875 C-17.11214483 -3.91332416 -9.02037196 -4.32778875 0 0 Z " fill="#C78B2A" transform="translate(202.125,15.83203125)"/>
<path d="M0 0 C2.16903384 1.64189812 2.96605733 2.98112812 3.9609375 5.484375 C0.10593191 4.93365992 -1.35300027 3.17043723 -4.0390625 0.484375 C-8.05693767 -0.83702012 -12.10647046 -0.6261583 -16.2890625 -0.578125 C-17.40667969 -0.57135742 -17.40667969 -0.57135742 -18.546875 -0.56445312 C-20.3776389 -0.55271746 -22.20836123 -0.5347835 -24.0390625 -0.515625 C-24.0390625 -1.175625 -24.0390625 -1.835625 -24.0390625 -2.515625 C-15.50501965 -4.98281274 -7.79495 -4.08667282 0 0 Z " fill="#C38A2B" transform="translate(120.0390625,16.515625)"/>
<path d="M0 0 C3.14064285 2.56961688 3.95415002 5.12895313 5 9 C5.16163015 11.64134946 5.23469585 14.16884656 5.1953125 16.8046875 C5.1924826 17.5286673 5.18965271 18.25264709 5.18673706 18.99856567 C5.17562087 21.2908849 5.15053312 23.58280063 5.125 25.875 C5.1149591 27.43749432 5.10583519 28.99999482 5.09765625 30.5625 C5.07570973 34.37515338 5.04124013 38.18750848 5 42 C4.67 42 4.34 42 4 42 C3.98541748 41.12263184 3.97083496 40.24526367 3.95581055 39.34130859 C3.8945032 36.06450679 3.82030667 32.78851056 3.73754883 29.51220703 C3.70443709 28.0982551 3.67636284 26.68417536 3.65356445 25.27001953 C3.61976225 23.22894177 3.56744036 21.18902072 3.51171875 19.1484375 C3.48553467 17.92302246 3.45935059 16.69760742 3.43237305 15.43505859 C2.96301466 11.70616393 1.76005508 9.28779798 0 6 C-0.1875 2.625 -0.1875 2.625 0 0 Z " fill="#C58822" transform="translate(227,79)"/>
<path d="M0 0 C0.99 0.33 1.98 0.66 3 1 C3 2.65 3 4.3 3 6 C9.27 6 15.54 6 22 6 C17.80611694 9.14541229 16.99569817 9.41232559 12.0625 9.375 C11.04285156 9.38273437 10.02320313 9.39046875 8.97265625 9.3984375 C5.58859571 8.94485777 3.6944509 8.07899179 1 6 C0.1875 2.8125 0.1875 2.8125 0 0 Z " fill="#D38F23" transform="translate(178,53)"/>
<path d="M0 0 C2.60953427 1.30476713 2.95648626 2.29510255 4 5 C4.265625 7.83984375 4.265625 7.83984375 4.25 10.9375 C4.25515625 11.95714844 4.2603125 12.97679687 4.265625 14.02734375 C3.99523535 17.05332204 3.27241136 19.25825647 2 22 C0.82428549 18.32589215 0.92633254 14.83070817 1 11 C0.01 10.67 -0.98 10.34 -2 10 C-2 8.68 -2 7.36 -2 6 C-1.34 6 -0.68 6 0 6 C0 4.02 0 2.04 0 0 Z " fill="#D39127" transform="translate(170,51)"/>
<path d="M0 0 C6.8482508 6.66803368 6.8482508 6.66803368 7.22705078 9.99291992 C7.21657715 10.73131104 7.20610352 11.46970215 7.1953125 12.23046875 C7.18886719 13.03291016 7.18242187 13.83535156 7.17578125 14.66210938 C7.15902344 15.49548828 7.14226562 16.32886719 7.125 17.1875 C7.11597656 18.03248047 7.10695312 18.87746094 7.09765625 19.74804688 C7.07410703 21.83215243 7.03823647 23.91611217 7 26 C6.67 26 6.34 26 6 26 C5.95101562 25.21753906 5.90203125 24.43507813 5.8515625 23.62890625 C5.77679688 22.61699219 5.70203125 21.60507812 5.625 20.5625 C5.52058594 19.04849609 5.52058594 19.04849609 5.4140625 17.50390625 C5.27742187 16.67761719 5.14078125 15.85132813 5 15 C4.34 14.67 3.68 14.34 3 14 C2.65625 12.109375 2.65625 12.109375 2.5 9.75 C2.18520449 6.16133117 1.58627129 3.27829401 0 0 Z " fill="#D19123" transform="translate(207,20)"/>
<path d="M0 0 C0.886875 0.309375 1.77375 0.61875 2.6875 0.9375 C10.4806806 3.15958815 19.06696161 3.66040338 27 2 C26.67 2.66 26.34 3.32 26 4 C17.37250021 6.72447362 11.00339886 6.87635968 2.78515625 3.0703125 C1 2 1 2 0 0 Z " fill="#BA8226" transform="translate(134,82)"/>
<path d="M0 0 C-0.66 1.65 -1.32 3.3 -2 5 C-4.97 4.505 -4.97 4.505 -8 4 C-8.33 5.65 -8.66 7.3 -9 9 C-9.804375 9.12375 -10.60875 9.2475 -11.4375 9.375 C-12.283125 9.58125 -13.12875 9.7875 -14 10 C-14.33 10.66 -14.66 11.32 -15 12 C-15.99 11.67 -16.98 11.34 -18 11 C-16.33333333 9.33333333 -14.66666667 7.66666667 -13 6 C-12.53335938 5.484375 -12.06671875 4.96875 -11.5859375 4.4375 C-9.77703141 2.79790039 -8.23109608 2.12276104 -5.9375 1.3125 C-5.24527344 1.06113281 -4.55304688 0.80976562 -3.83984375 0.55078125 C-2 0 -2 0 0 0 Z " fill="#BC8318" transform="translate(88,65)"/>
<path d="M0 0 C10.23 0 20.46 0 31 0 C34 11 34 11 35 16 C33.0625 14.6875 33.0625 14.6875 31 12 C30.67 8.37 30.34 4.74 30 1 C20.1 1 10.2 1 0 1 C0 0.67 0 0.34 0 0 Z " fill="#B37616" transform="translate(88,64)"/>
<path d="M0 0 C0 0.99 0 1.98 0 3 C-1.45455492 4.19009039 -2.91286709 5.3762027 -4.3984375 6.52734375 C-7.03884411 8.95522983 -8.38042894 11.82314907 -10 15 C-10.33 15 -10.66 15 -11 15 C-11 13.35 -11 11.7 -11 10 C-10.34 10 -9.68 10 -9 10 C-8.87625 8.88625 -8.7525 7.7725 -8.625 6.625 C-8 3 -8 3 -6 1 C-3.90200436 0.34437636 -2.19959601 0 0 0 Z " fill="#E49B24" transform="translate(116,89)"/>
<path d="M0 0 C0.33 0 0.66 0 1 0 C1.33 10.23 1.66 20.46 2 31 C2.66 31 3.32 31 4 31 C4 31.66 4 32.32 4 33 C5.32 33.33 6.64 33.66 8 34 C8 34.66 8 35.32 8 36 C5.36 35.34 2.72 34.68 0 34 C0 22.78 0 11.56 0 0 Z " fill="#B87C19" transform="translate(64,88)"/>
<path d="M0 0 C4.00055301 3.66717359 6.66825595 7.06746451 9 12 C8.75 14.4375 8.75 14.4375 8 16 C7.54625 15.34 7.0925 14.68 6.625 14 C6.08875 13.34 5.5525 12.68 5 12 C4.34 12 3.68 12 3 12 C3 10.02 3 8.04 3 6 C2.34 5.67 1.68 5.34 1 5 C0.375 2.4375 0.375 2.4375 0 0 Z " fill="#CD8A1E" transform="translate(181,98)"/>
<path d="M0 0 C0.33 0 0.66 0 1 0 C1.33 2.97 1.66 5.94 2 9 C1.01 9 0.02 9 -1 9 C-1.33 10.32 -1.66 11.64 -2 13 C-2.66 13 -3.32 13 -4 13 C-4.5497272 7.36529617 -2.95047835 4.61012242 0 0 Z " fill="#DF961E" transform="translate(69,79)"/>
<path d="M0 0 C1.43861294 0.08746284 2.87597508 0.19565348 4.3125 0.3125 C5.11300781 0.37050781 5.91351563 0.42851563 6.73828125 0.48828125 C9.36272334 1.08206694 10.30820672 1.95780294 12 4 C11.01 4.33 10.02 4.66 9 5 C8.67 4.01 8.34 3.02 8 2 C7.34 3.65 6.68 5.3 6 7 C5.34 7 4.68 7 4 7 C4 6.01 4 5.02 4 4 C3.01 4 2.02 4 1 4 C0.67 2.68 0.34 1.36 0 0 Z " fill="#E99A26" transform="translate(204,65)"/>
<path d="M0 0 C0.33 0 0.66 0 1 0 C1.25 5.625 1.25 5.625 -1 9 C0.98 9.66 2.96 10.32 5 11 C5 11.99 5 12.98 5 14 C4.34 14 3.68 14 3 14 C3 13.34 3 12.68 3 12 C2.05125 11.855625 1.1025 11.71125 0.125 11.5625 C-3 11 -3 11 -5 10 C-4.6875 8.0625 -4.6875 8.0625 -4 6 C-3.01 5.67 -2.02 5.34 -1 5 C-0.67 3.35 -0.34 1.7 0 0 Z " fill="#D18E24" transform="translate(177,76)"/>
<path d="M0 0 C-1 2 -2 4 -3 6 C-4.32 6 -5.64 6 -7 6 C-7 7.32 -7 8.64 -7 10 C-8.32 10 -9.64 10 -11 10 C-9.63088196 6.8510285 -8.1247864 4.9521513 -5.5 2.75 C-4.8915625 2.22921875 -4.283125 1.7084375 -3.65625 1.171875 C-2 0 -2 0 0 0 Z " fill="#C88A23" transform="translate(139,41)"/>
<path d="M0 0 C0.66 0 1.32 0 2 0 C1.44649229 3.32104626 0.85908781 6.16244492 -1 9 C-3.125 10.25 -3.125 10.25 -5 11 C-5.125 8.625 -5.125 8.625 -5 6 C-4.34 5.34 -3.68 4.68 -3 4 C-2.01 4 -1.02 4 0 4 C0 2.68 0 1.36 0 0 Z " fill="#E69C29" transform="translate(169,71)"/>
<path d="M0 0 C4.43458973 1.3937282 6.87378374 3.60582235 10 7 C8.02 7.99 8.02 7.99 6 9 C4 6 4 6 4 3 C2.68 2.67 1.36 2.34 0 2 C0 1.34 0 0.68 0 0 Z " fill="#D28C21" transform="translate(216,69)"/>
<path d="M0 0 C1 2 1 2 0.25 5 C-1 8 -1 8 -4 10 C-4.73606499 13.56769552 -4.73606499 13.56769552 -5 17 C-5.33 17 -5.66 17 -6 17 C-6.8119452 9.55716899 -4.52317917 5.81551608 0 0 Z " fill="#AF781E" transform="translate(172,20)"/>
<path d="M0 0 C1.32 0.99 2.64 1.98 4 3 C3 6 3 6 0.0625 7.6875 C-3 9 -3 9 -5 9 C-5 8.34 -5 7.68 -5 7 C-4.34 7 -3.68 7 -3 7 C-3 6.01 -3 5.02 -3 4 C-1.68 4 -0.36 4 1 4 C0.67 2.68 0.34 1.36 0 0 Z " fill="#D18D2A" transform="translate(123,80)"/>
<path d="M0 0 C0.66 0 1.32 0 2 0 C2.33 0.99 2.66 1.98 3 3 C4.2375 3.495 4.2375 3.495 5.5 4 C6.7375 4.495 6.7375 4.495 8 5 C8.33 5.99 8.66 6.98 9 8 C4.16743695 7.58578031 2.17320782 5.53586014 -1 2 C-0.67 1.34 -0.34 0.68 0 0 Z " fill="#C1801E" transform="translate(89,52)"/>
<path d="M0 0 C0.66 0 1.32 0 2 0 C0.92944462 7.25598645 0.92944462 7.25598645 -1.5859375 9.26953125 C-3.4375 10.125 -3.4375 10.125 -7 11 C-7.99 10.34 -8.98 9.68 -10 9 C-7.36 8.67 -4.72 8.34 -2 8 C-2 6.68 -2 5.36 -2 4 C-1.34 4 -0.68 4 0 4 C0 2.68 0 1.36 0 0 Z " fill="#DA952B" transform="translate(119,50)"/>
<path d="M0 0 C0 0.66 0 1.32 0 2 C-0.99 2 -1.98 2 -3 2 C-3.268125 2.639375 -3.53625 3.27875 -3.8125 3.9375 C-5 6 -5 6 -8 7 C-7.8125 4.625 -7.8125 4.625 -7 2 C-4.54236535 0.67665827 -2.79402354 0 0 0 Z " fill="#DD9423" transform="translate(127,93)"/>
<path d="M0 0 C0.33 1.32 0.66 2.64 1 4 C0.030625 4.28875 -0.93875 4.5775 -1.9375 4.875 C-5.10664203 5.64214682 -5.10664203 5.64214682 -6 8 C-6.99 7.67 -7.98 7.34 -9 7 C-6.77515647 3.48708916 -4.90265724 2.33511958 -1 1 C-0.67 0.67 -0.34 0.34 0 0 Z " fill="#C9881D" transform="translate(79,69)"/>
<path d="M0 0 C0.98052284 2.64741166 1.05565835 3.82446211 0.1875 6.5625 C-1 9 -1 9 -3 12 C-3.66 12 -4.32 12 -5 12 C-3.68938409 7.76570244 -2.05643741 3.92592596 0 0 Z " fill="#432906" transform="translate(173,68)"/>
<path d="M0 0 C0 0.66 0 1.32 0 2 C-2.1875 4.1875 -2.1875 4.1875 -5 6 C-7.8125 5.75 -7.8125 5.75 -10 5 C-8.28489314 1.56978628 -3.75681361 0 0 0 Z " fill="#412905" transform="translate(206,57)"/>
<path d="M0 0 C0.99 0.33 1.98 0.66 3 1 C3 2.65 3 4.3 3 6 C4.65 6 6.3 6 8 6 C6.02 6.99 6.02 6.99 4 8 C2 6.25 2 6.25 0 4 C0 2.68 0 1.36 0 0 Z " fill="#B27B1E" transform="translate(178,53)"/>
<path d="M0 0 C1.07765625 0.00902344 2.1553125 0.01804688 3.265625 0.02734375 C4.08546875 0.03894531 4.9053125 0.05054688 5.75 0.0625 C5.75 0.3925 5.75 0.7225 5.75 1.0625 C4.70199219 1.11857422 4.70199219 1.11857422 3.6328125 1.17578125 C2.26769531 1.27439453 2.26769531 1.27439453 0.875 1.375 C-0.48238281 1.46201172 -0.48238281 1.46201172 -1.8671875 1.55078125 C-4.61221601 1.8507039 -4.61221601 1.8507039 -6.25 5.0625 C-6.58 4.4025 -6.91 3.7425 -7.25 3.0625 C-8.24 2.4025 -9.23 1.7425 -10.25 1.0625 C-6.78777385 -0.00473961 -3.60960734 -0.03923486 0 0 Z " fill="#ECA226" transform="translate(149.25,39.9375)"/>
<path d="M0 0 C6 6 6 6 6.0625 9.0625 C6.041875 10.031875 6.02125 11.00125 6 12 C5.67 11.01 5.34 10.02 5 9 C4.34 9 3.68 9 3 9 C2 6 1 3 0 0 Z " fill="#BE8327" transform="translate(124,22)"/>
<path d="M0 0 C8.19256018 -0.4726477 8.19256018 -0.4726477 11.5625 1.5 C12.036875 1.995 12.51125 2.49 13 3 C11.58249437 2.88490339 10.16598831 2.75746342 8.75 2.625 C7.96109375 2.55539063 7.1721875 2.48578125 6.359375 2.4140625 C3.914123 1.98492887 2.15163097 1.21399362 0 0 Z " fill="#B97F23" transform="translate(116,149)"/>
<path d="M0 0 C2.00993705 3.01490557 2.72623341 5.2149927 3.625 8.6875 C3.88539062 9.68136719 4.14578125 10.67523438 4.4140625 11.69921875 C4.60742188 12.45847656 4.80078125 13.21773437 5 14 C2.53303195 11.88827535 1.14881742 10.62961216 0.390625 7.421875 C0.34421875 6.54015625 0.2978125 5.6584375 0.25 4.75 C0.19328125 3.85796875 0.1365625 2.9659375 0.078125 2.046875 C0.05234375 1.37140625 0.0265625 0.6959375 0 0 Z " fill="#C58E2E" transform="translate(118,66)"/>
<path d="M0 0 C2.375 0.25 2.375 0.25 5 1 C6.3125 3.0625 6.3125 3.0625 7 5 C4.03824877 4.38722388 2.61941217 3.74627478 0 2 C0 1.34 0 0.68 0 0 Z " fill="#D99424" transform="translate(117,17)"/>
<path d="M0 0 C0.33 0.99 0.66 1.98 1 3 C0.34 3 -0.32 3 -1 3 C-1 3.99 -1 4.98 -1 6 C-2.65 6.33 -4.3 6.66 -6 7 C-2.25 1.125 -2.25 1.125 0 0 Z " fill="#C0821F" transform="translate(118,97)"/>
<path d="M0 0 C0.66 0.33 1.32 0.66 2 1 C1.19185349 2.33597652 0.37836819 3.668725 -0.4375 5 C-0.88996094 5.7425 -1.34242187 6.485 -1.80859375 7.25 C-2.20175781 7.8275 -2.59492187 8.405 -3 9 C-3.33 9 -3.66 9 -4 9 C-4 7.35 -4 5.7 -4 4 C-3.34 4 -2.68 4 -2 4 C-2 3.01 -2 2.02 -2 1 C-1.34 0.67 -0.68 0.34 0 0 Z " fill="#CC8D27" transform="translate(109,95)"/>
<path d="M0 0 C1.98 0.99 3.96 1.98 6 3 C6 3.66 6 4.32 6 5 C6.66 5 7.32 5 8 5 C7.67 5.66 7.34 6.32 7 7 C6.34 6.67 5.68 6.34 5 6 C5 5.34 5 4.68 5 4 C2.69 3.67 0.38 3.34 -2 3 C-1.34 2.67 -0.68 2.34 0 2 C0 1.34 0 0.68 0 0 Z " fill="#CB8C28" transform="translate(160,41)"/>
<path d="M0 0 C1.65 0 3.3 0 5 0 C3.68 2.31 2.36 4.62 1 7 C0.67 7 0.34 7 0 7 C0 4.69 0 2.38 0 0 Z " fill="#D38E24" transform="translate(121,43)"/>
<path d="M0 0 C1.5 1.125 1.5 1.125 3 3 C3.1875 6.1875 3.1875 6.1875 3 9 C2.34 9 1.68 9 1 9 C-0.4783226 6.04335481 -0.06032783 3.25770263 0 0 Z " fill="#EE9E22" transform="translate(87,45)"/>
<path d="M0 0 C2.97 0.495 2.97 0.495 6 1 C4.625 3 4.625 3 3 5 C2.34 5 1.68 5 1 5 C0.67 3.35 0.34 1.7 0 0 Z " fill="#D89227" transform="translate(203,52)"/>
<path d="M0 0 C0.66 1.32 1.32 2.64 2 4 C0.68 5.65 -0.64 7.3 -2 9 C-2.25 3.375 -2.25 3.375 0 0 Z " fill="#CD8C1F" transform="translate(211,44)"/>
</svg>
