<?xml version="1.0" encoding="UTF-8"?>
<svg version="1.1" xmlns="http://www.w3.org/2000/svg" width="512" height="512">
<path d="M0 0 C168.96 0 337.92 0 512 0 C512 168.96 512 337.92 512 512 C343.04 512 174.08 512 0 512 C0 343.04 0 174.08 0 0 Z " fill="#83CE8F" transform="translate(0,0)"/>
<path d="M0 0 C133.98 0 267.96 0 406 0 C406 105.93 406 211.86 406 321 C272.02 321 138.04 321 0 321 C0 215.07 0 109.14 0 0 Z " fill="#000201" transform="translate(53,138)"/>
<path d="M0 0 C168.96 0 337.92 0 512 0 C512 168.96 512 337.92 512 512 C343.04 512 174.08 512 0 512 C0 343.04 0 174.08 0 0 Z M20 67 C15.39827691 73.42637146 12.87766942 78.57119895 12.86577892 86.52848244 C12.86342669 87.19784358 12.86107446 87.86720472 12.85865095 88.55684954 C12.85195604 90.81588009 12.85241932 93.07485318 12.85282898 95.33389282 C12.84953066 96.96348959 12.84580516 98.59308554 12.8416875 100.22268045 C12.83165571 104.71355134 12.82794881 109.20440886 12.82529819 113.69528937 C12.82139861 118.53390558 12.81182001 123.37251117 12.80308533 128.21112061 C12.78331073 139.9030056 12.77325328 151.59489146 12.76435754 163.286789 C12.75997612 168.79061315 12.75460891 174.29443634 12.74936867 179.79825974 C12.73235511 198.09085452 12.71786062 216.3834487 12.71061993 234.67605019 C12.70870998 239.4244957 12.70678966 244.17294122 12.70483398 248.92138672 C12.70435024 250.10161287 12.7038665 251.28183902 12.7033681 252.4978296 C12.69506663 271.61957399 12.66972829 290.74125585 12.63725331 309.86297293 C12.60419481 329.48803799 12.58617224 349.11307125 12.58297569 368.73816431 C12.58080943 379.75966224 12.57204389 390.781069 12.54651451 401.80253983 C12.52482402 411.18847842 12.51674896 420.5743037 12.52648129 429.96026452 C12.53103082 434.74921908 12.52910184 439.53793974 12.50971985 444.32686234 C12.49212196 448.71284955 12.49305843 453.09843165 12.50861714 457.48442297 C12.51099835 459.06927924 12.50664305 460.65416331 12.49478849 462.23897703 C12.41111871 474.16547098 13.9280664 482.39819808 22.20703125 491.27734375 C28.52725331 497.34971396 34.98733943 499.30866822 43.58479023 499.25726891 C44.70545691 499.26252802 44.70545691 499.26252802 45.84876332 499.26789337 C48.35427205 499.27720329 50.85954815 499.27228513 53.36506653 499.26742554 C55.17874471 499.271162 56.99242129 499.2757635 58.8060953 499.28115618 C63.7918746 499.29340202 68.77758688 499.29312385 73.76337779 499.29076743 C79.13978336 499.29035967 84.51616733 499.30139453 89.89256287 499.31088257 C100.42654186 499.32750207 110.96049847 499.33299254 121.49448947 499.33410732 C130.05596281 499.33505732 138.61742876 499.33916517 147.17889977 499.34550858 C171.44637616 499.36312332 195.71383485 499.37234704 219.98131768 499.37084763 C221.2898388 499.37076772 222.59835992 499.3706878 223.9465332 499.37060547 C225.2566499 499.37052371 226.5667666 499.37044195 227.9165838 499.37035771 C249.15269214 499.36954467 270.38872958 499.38868627 291.62481741 499.4168822 C313.4241251 499.44559782 335.22339819 499.45942323 357.02272528 499.45769465 C369.26371898 499.45703031 381.50463833 499.46254203 393.74561501 499.48405075 C404.16720133 499.5022451 414.58867961 499.50662419 425.01027492 499.4930319 C430.32783193 499.48649357 435.64518157 499.48641643 440.96271896 499.5037384 C445.83154039 499.51943563 450.69998944 499.51663967 455.5688016 499.49917014 C457.32920307 499.49609288 459.0896321 499.49975992 460.85000107 499.51089029 C473.11551643 499.58329966 481.99049444 498.4854654 491.27734375 489.86328125 C496.7169257 483.97965179 499.24630224 477.16552155 499.26285553 469.23380184 C499.26901343 468.22764678 499.26901343 468.22764678 499.27529573 467.20116535 C499.28662148 464.94929816 499.28372312 462.69767616 499.28088379 460.44578552 C499.28605192 458.81659875 499.29207847 457.18741452 499.29889059 455.5582338 C499.31502783 451.07766189 499.31860958 446.59715406 499.32008553 442.11655653 C499.32378718 437.28540476 499.33888226 432.45428623 499.35235596 427.62315369 C499.37952275 417.05686994 499.39157235 406.49060137 499.40037727 395.92428851 C499.4059027 389.32578952 499.41437757 382.72729638 499.42338562 376.12880135 C499.44777211 357.85757916 499.46836978 339.58636167 499.4751358 321.31512356 C499.47557494 320.14564385 499.47601407 318.97616415 499.47646651 317.77124566 C499.47690306 316.59897227 499.47733962 315.42669888 499.4777894 314.21890205 C499.47867633 311.84344446 499.47956946 309.46798688 499.48046875 307.0925293 C499.48091161 305.91422108 499.48135447 304.73591286 499.48181075 303.52189834 C499.48970458 284.43459976 499.52460554 265.347454 499.57118779 246.26021444 C499.61863299 226.66105703 499.64354037 207.06197627 499.64587164 187.46276051 C499.64770427 176.45959564 499.6591865 165.45662982 499.69551086 154.45351982 C499.72633763 145.0826778 499.73653946 135.71209632 499.72003466 126.34121322 C499.71222985 121.56189159 499.71403908 116.78309442 499.74214935 112.00383759 C499.7676791 107.62315214 499.76518927 103.2433838 499.74096793 98.86269916 C499.73706261 97.28322895 499.74317133 95.7036932 499.76065665 94.12431496 C499.8710463 83.47361619 498.52769287 74.31288066 491.25604486 66.00832266 C484.05227843 59.08113532 474.84340129 56.8333076 465.171875 56.90234375 C464.42286926 56.9037587 463.67386353 56.90517365 462.90216064 56.90663147 C460.51806588 56.91221341 458.13406622 56.92476255 455.75 56.9375 C454.13020969 56.94251734 452.51041791 56.94707984 450.890625 56.95117188 C446.92704688 56.96217692 442.96353955 56.97942909 439 57 C438.98541748 58.01312256 438.97083496 59.02624512 438.95581055 60.07006836 C438.89737572 63.86679531 438.82015027 67.66295687 438.73754883 71.45922852 C438.70451025 73.09520214 438.6764143 74.73128399 438.65356445 76.36743164 C438.47371703 88.90700597 438.23195894 98.52417284 429.1875 108.05078125 C422.15946258 114.31326459 414.30129573 115.35686145 405.1484375 115.2890625 C398.74920972 114.70154035 393.49683971 112.54897698 389 108 C388.34 108 387.68 108 387 108 C386.58463989 107.13544189 386.58463989 107.13544189 386.16088867 106.25341797 C385.05866359 104.01384025 385.05866359 104.01384025 383.73950195 102.09423828 C378.54186184 93.59217022 379.22252204 84.51492115 379.1875 74.875 C379.0946875 66.026875 379.0946875 66.026875 379 57 C365.14 57 351.28 57 337 57 C336.8694 67.97782581 336.8694 67.97782581 336.79223633 78.95605469 C336.65225821 88.85574339 335.91089134 98.49421109 328.99267578 106.25048828 C321.27718838 113.49363874 313.41220965 115.36542273 303.078125 115.2890625 C296.81281855 114.70069616 291.85183785 111.88147028 287 108 C286.34 108 285.68 108 285 108 C284.58427734 107.16662109 284.58427734 107.16662109 284.16015625 106.31640625 C283.35959483 104.7179789 282.55463202 103.12175099 281.74609375 101.52734375 C281.09833984 100.24537109 281.09833984 100.24537109 280.4375 98.9375 C280.00308594 98.08027344 279.56867188 97.22304687 279.12109375 96.33984375 C277.01518824 91.94459147 276.79324098 88.05299218 276.68359375 83.26953125 C276.66494263 82.60417358 276.6462915 81.93881592 276.6270752 81.2532959 C276.55889236 78.77316279 276.49867038 76.29281597 276.4375 73.8125 C276.293125 68.264375 276.14875 62.71625 276 57 C262.8 57 249.6 57 236 57 C235.86941148 67.6487181 235.86941148 67.6487181 235.79223633 78.29785156 C235.64223204 88.51669753 234.68919925 98.46967432 227 106 C227 106.66 227 107.32 227 108 C226.42378906 108.28746094 225.84757813 108.57492188 225.25390625 108.87109375 C223.82210175 109.58823673 222.39217964 110.30916007 220.96484375 111.03515625 C220.29582031 111.37417969 219.62679687 111.71320313 218.9375 112.0625 C218.26589844 112.40410156 217.59429687 112.74570313 216.90234375 113.09765625 C210.41712807 116.17380578 202.2532544 116.04443821 195.359375 114.3515625 C187.77891495 111.25046521 181.75378791 106.39938384 178.31640625 98.890625 C175.02870219 90.64944682 175.22153372 82.49379691 175.1875 73.75 C175.125625 68.2225 175.06375 62.695 175 57 C161.14 57 147.28 57 133 57 C132.86931882 68.72612912 132.86931882 68.72612912 132.79223633 80.45263672 C132.65118376 90.95383955 131.57557352 98.60316969 124.5625 106.875 C115.51647404 114.3765825 107.60942976 116.05771973 96 115 C90.70049194 113.61187079 86.84910067 111.87128569 83 108 C82.34 108 81.68 108 81 108 C80.72309326 107.42362793 80.44618652 106.84725586 80.16088867 106.25341797 C79.05866359 104.01384025 79.05866359 104.01384025 77.73950195 102.09423828 C72.55052618 93.60634296 73.21774203 84.49379893 73.1875 74.875 C73.16432041 73.13798992 73.13894797 71.40100765 73.11132812 69.6640625 C73.0489219 65.44260438 73.01623554 61.22187782 73 57 C68.19862755 56.90021128 63.39787479 56.82810383 58.59570312 56.78027344 C56.96636422 56.76030921 55.33709555 56.7331277 53.70800781 56.69824219 C40.88023486 56.43066901 29.55367012 57.32358466 20 67 Z " fill="#000201" transform="translate(0,0)"/>
<path d="M0 0 C0.91092911 -0.00524185 1.82185822 -0.0104837 2.76039124 -0.0158844 C4.68261701 -0.02229391 6.60488207 -0.02098148 8.52709961 -0.01245117 C11.45953608 -0.00394431 14.39002157 -0.03271196 17.32226562 -0.06445312 C19.19400984 -0.06606545 21.06575748 -0.06548702 22.9375 -0.0625 C23.80954575 -0.07373398 24.68159149 -0.08496796 25.58006287 -0.09654236 C31.03060697 -0.0345109 34.29030881 0.69096715 38.53515625 4.43359375 C42.29741316 8.82811262 41.98726606 13.38538494 41.96875 18.8984375 C41.97399185 19.80936661 41.9792337 20.72029572 41.9846344 21.65882874 C41.99104391 23.58105451 41.98973148 25.50331957 41.98120117 27.42553711 C41.97269431 30.35797358 42.00146196 33.28845907 42.03320312 36.22070312 C42.03481545 38.09244734 42.03423702 39.96419498 42.03125 41.8359375 C42.04810097 43.14400612 42.04810097 43.14400612 42.06529236 44.47850037 C42.00343935 49.91336493 41.3300267 53.24425598 37.53515625 57.43359375 C32.58399736 60.86539976 28.00189597 60.88732539 22.19140625 60.8671875 C21.30408813 60.87242935 20.41677002 60.8776712 19.50256348 60.8830719 C17.63339277 60.88947275 15.76418168 60.88818028 13.89501953 60.87963867 C11.04386421 60.87111977 8.19470818 60.89993054 5.34375 60.93164062 C3.52213601 60.93325269 1.7005185 60.932675 -0.12109375 60.9296875 C-1.39164612 60.94653847 -1.39164612 60.94653847 -2.68786621 60.96372986 C-8.07206701 60.900675 -11.26512464 60.11386148 -15.46484375 56.43359375 C-19.16672212 52.0778098 -18.91729047 47.67540173 -18.8984375 42.22265625 C-18.90367935 41.33629486 -18.9089212 40.44993347 -18.9143219 39.53671265 C-18.92073117 37.66576177 -18.91941929 35.79477053 -18.91088867 33.92382812 C-18.90239203 31.07478291 -18.93113283 28.22775292 -18.96289062 25.37890625 C-18.96450326 23.55599018 -18.96392392 21.73307059 -18.9609375 19.91015625 C-18.97217148 19.06514557 -18.98340546 18.22013489 -18.99497986 17.34951782 C-18.92750792 11.56547429 -17.92323197 8.12545526 -14.46484375 3.43359375 C-10.15643626 -0.37969531 -5.47179035 -0.01837747 0 0 Z " fill="#82CC8E" transform="translate(291.46484375,268.56640625)"/>
<path d="M0 0 C0.88636139 -0.00524185 1.77272278 -0.0104837 2.6859436 -0.0158844 C4.55689448 -0.02229367 6.42788572 -0.02098179 8.29882812 -0.01245117 C11.14787334 -0.00395453 13.99490333 -0.03269533 16.84375 -0.06445312 C18.66666607 -0.06606576 20.48958566 -0.06548642 22.3125 -0.0625 C23.58001602 -0.07935097 23.58001602 -0.07935097 24.87313843 -0.09654236 C30.65718196 -0.02907042 34.09720099 0.97520553 38.7890625 4.43359375 C42.60235156 8.74200124 42.24103372 13.42664715 42.22265625 18.8984375 C42.2278981 19.80936661 42.23313995 20.72029572 42.23854065 21.65882874 C42.24495016 23.58105451 42.24363773 25.50331957 42.23510742 27.42553711 C42.22660056 30.35797358 42.25536821 33.28845907 42.28710938 36.22070312 C42.2887217 38.09244734 42.28814327 39.96419498 42.28515625 41.8359375 C42.30200722 43.14400612 42.30200722 43.14400612 42.31919861 44.47850037 C42.2573456 49.91336493 41.58393295 53.24425598 37.7890625 57.43359375 C32.83790361 60.86539976 28.25580222 60.88732539 22.4453125 60.8671875 C21.55799438 60.87242935 20.67067627 60.8776712 19.75646973 60.8830719 C17.88729902 60.88947275 16.01808793 60.88818028 14.14892578 60.87963867 C11.29777046 60.87111977 8.44861443 60.89993054 5.59765625 60.93164062 C3.77604226 60.93325269 1.95442475 60.932675 0.1328125 60.9296875 C-1.13773987 60.94653847 -1.13773987 60.94653847 -2.43395996 60.96372986 C-7.81816076 60.900675 -11.01121839 60.11386148 -15.2109375 56.43359375 C-18.97319441 52.03907488 -18.66304731 47.48180256 -18.64453125 41.96875 C-18.6497731 41.05782089 -18.65501495 40.14689178 -18.66041565 39.20835876 C-18.66682516 37.28613299 -18.66551273 35.36386793 -18.65698242 33.44165039 C-18.64847556 30.50921392 -18.67724321 27.57872843 -18.70898438 24.64648438 C-18.7105967 22.77474016 -18.71001827 20.90299252 -18.70703125 19.03125 C-18.71826523 18.15920425 -18.72949921 17.28715851 -18.74107361 16.38868713 C-18.67904215 10.93814303 -17.9535641 7.67844119 -14.2109375 3.43359375 C-9.85515355 -0.26828462 -5.45274548 -0.01885297 0 0 Z " fill="#82CC8E" transform="translate(198.2109375,268.56640625)"/>
<path d="M0 0 C0.91330078 -0.00287018 1.82660156 -0.00574036 2.76757812 -0.00869751 C4.69401674 -0.01073439 6.62047622 -0.00523085 8.546875 0.00732422 C11.49005524 0.02338324 14.4318623 0.0074628 17.375 -0.01171875 C19.25000302 -0.00973625 21.12500519 -0.00589244 23 0 C23.87720703 -0.00607269 24.75441406 -0.01214539 25.65820312 -0.0184021 C30.39815068 0.03597157 33.75486765 0.18505289 37.5 3.3984375 C41.91711951 8.41737535 42.09062319 12.58939692 42.03125 18.9609375 C42.0350769 19.87045166 42.03890381 20.77996582 42.04284668 21.71704102 C42.04555955 23.63331209 42.03824226 25.54962059 42.02148438 27.46582031 C42.00006536 30.38951621 42.02130685 33.31075502 42.046875 36.234375 C42.04423161 38.10156789 42.03910641 39.96875926 42.03125 41.8359375 C42.03934692 42.70484619 42.04744385 43.57375488 42.05578613 44.46899414 C41.9725625 49.88836824 41.27859224 53.21961072 37.5 57.3984375 C32.60324271 60.77245261 28.14790803 60.85252209 22.41015625 60.83203125 C21.54740585 60.8372731 20.68465546 60.84251495 19.79576111 60.84791565 C17.97786532 60.854316 16.159928 60.85302467 14.34204102 60.84448242 C11.57427575 60.8359737 8.80857731 60.86475813 6.04101562 60.89648438 C4.26822978 60.89809675 2.49544031 60.89751815 0.72265625 60.89453125 C-0.50734352 60.91138222 -0.50734352 60.91138222 -1.76219177 60.92857361 C-7.46905107 60.8600202 -10.90062782 59.86375746 -15.5 56.3984375 C-18.99277696 51.5241724 -18.95361137 46.83047336 -18.93359375 41.0546875 C-18.9388356 40.16736938 -18.94407745 39.28005127 -18.94947815 38.36584473 C-18.955879 36.49667402 -18.95458653 34.62746293 -18.94604492 32.75830078 C-18.93752602 29.90714546 -18.96633679 27.05798943 -18.99804688 24.20703125 C-18.99965894 22.38541726 -18.99908125 20.56379975 -18.99609375 18.7421875 C-19.00732773 17.89515259 -19.01856171 17.04811768 -19.03013611 16.17541504 C-18.96708125 10.79121424 -18.18026773 7.59815661 -14.5 3.3984375 C-10.09610822 -0.38017345 -5.52558492 -0.03825229 0 0 Z " fill="#82CC8E" transform="translate(291.5,170.6015625)"/>
<path d="M0 0 C0.88873306 -0.00524185 1.77746613 -0.0104837 2.69313049 -0.0158844 C4.56827757 -0.02229307 6.4434649 -0.02098258 8.31860352 -0.01245117 C11.17862972 -0.00394425 14.03665545 -0.03271279 16.89648438 -0.06445312 C18.72265565 -0.06606546 20.54883045 -0.06548699 22.375 -0.0625 C23.22517197 -0.07373398 24.07534393 -0.08496796 24.95127869 -0.09654236 C30.37000307 -0.03333787 33.44165727 0.85373137 37.75390625 4.43359375 C41.97304323 9.23468066 41.93652543 13.86574552 41.9921875 20.01171875 C42.00025925 20.85651794 42.00833099 21.70131714 42.01664734 22.57171631 C42.03047459 24.36045284 42.04120282 26.14921561 42.04907227 27.93798828 C42.06625537 30.65969549 42.11014899 33.38017815 42.15429688 36.1015625 C42.1644271 37.84243902 42.17294218 39.58332583 42.1796875 41.32421875 C42.19719559 42.13175598 42.21470367 42.93929321 42.23274231 43.77130127 C42.20766425 50.37688871 40.46031369 54.26769919 36.11889648 59.34619141 C32.18640315 61.15431831 28.18708679 60.86005017 23.9140625 60.83203125 C22.47540077 60.83633652 22.47540077 60.83633652 21.00767517 60.84072876 C18.98110361 60.84276845 16.95451232 60.83724527 14.92797852 60.82470703 C11.83109315 60.80866981 8.73551636 60.82455011 5.63867188 60.84375 C3.66796588 60.84176721 1.69726069 60.83792279 -0.2734375 60.83203125 C-1.19752914 60.83810394 -2.12162079 60.84417664 -3.07371521 60.85043335 C-11.53674004 60.75819249 -11.53674004 60.75819249 -15.24609375 57.43359375 C-18.70709294 52.41318087 -18.69954515 47.74868622 -18.6796875 41.87109375 C-18.68492935 40.96157959 -18.6901712 40.05206543 -18.6955719 39.11499023 C-18.70197378 37.19874082 -18.70067893 35.28245201 -18.69213867 33.36621094 C-18.68362012 30.44264533 -18.71242896 27.52102957 -18.74414062 24.59765625 C-18.74575269 22.73046933 -18.74517501 20.86327897 -18.7421875 18.99609375 C-18.75342148 18.12718506 -18.76465546 17.25827637 -18.77622986 16.36303711 C-18.71406256 10.9219469 -17.97988567 7.67201694 -14.24609375 3.43359375 C-9.8849204 -0.27661431 -5.46112783 -0.01881245 0 0 Z " fill="#82CB8E" transform="translate(105.24609375,366.56640625)"/>
<path d="M0 0 C0.91234406 -0.00287018 1.82468811 -0.00574036 2.76467896 -0.00869751 C4.69289776 -0.01073699 6.6211373 -0.00521522 8.54931641 0.00732422 C11.49038396 0.02334258 14.43006959 0.00749075 17.37109375 -0.01171875 C19.24739885 -0.00973557 21.1237031 -0.00589036 23 0 C23.8751828 -0.00607269 24.7503656 -0.01214539 25.65206909 -0.0184021 C30.69009916 0.03917083 34.37320826 0.42229137 38.6328125 3.3984375 C43.03078356 8.29205146 43.22414019 12.44546364 43.1640625 18.70703125 C43.1678894 19.59197769 43.17171631 20.47692413 43.17565918 21.38868713 C43.17837186 23.2536839 43.17105589 25.11871914 43.15429688 26.98364258 C43.13290278 29.82395119 43.15410649 32.66172327 43.1796875 35.50195312 C43.17704361 37.32031804 43.17191737 39.13868138 43.1640625 40.95703125 C43.17215942 41.79890488 43.18025635 42.6407785 43.18859863 43.50816345 C43.09792673 49.26803789 42.1394267 52.76036261 38.6328125 57.3984375 C33.79682574 60.85007018 29.22893109 60.83897901 23.5078125 60.796875 C22.21012939 60.80118027 22.21012939 60.80118027 20.88623047 60.80557251 C19.06412091 60.80760648 17.24198919 60.80212343 15.41992188 60.78955078 C12.64142729 60.77348731 9.86438719 60.78942186 7.0859375 60.80859375 C5.30989264 60.8066112 3.53384869 60.80276728 1.7578125 60.796875 C0.93265137 60.80294769 0.10749023 60.80902039 -0.74267578 60.8152771 C-5.66013359 60.7557365 -9.1981933 60.27677551 -13.3671875 57.3984375 C-17.83561424 52.45670784 -17.95747788 48.17176369 -17.8984375 41.8359375 C-17.9022644 40.92642334 -17.90609131 40.01690918 -17.91003418 39.07983398 C-17.91274705 37.16356291 -17.90542976 35.24725441 -17.88867188 33.33105469 C-17.86725286 30.40735879 -17.88849435 27.48611998 -17.9140625 24.5625 C-17.91141911 22.69530711 -17.90629391 20.82811574 -17.8984375 18.9609375 C-17.91058289 17.65757446 -17.91058289 17.65757446 -17.92297363 16.32788086 C-17.82328493 9.83633102 -16.08649946 6.42087019 -11.70263672 1.54833984 C-7.92669031 -0.31081838 -4.15075055 -0.02866849 0 0 Z " fill="#82CC8E" transform="translate(197.3671875,170.6015625)"/>
<path d="M0 0 C0.84292603 -0.00287018 1.68585205 -0.00574036 2.55432129 -0.00869751 C4.32935257 -0.01073112 6.10440663 -0.00525063 7.87939453 0.00732422 C10.58547409 0.02338837 13.29006026 0.00745206 15.99609375 -0.01171875 C17.72656577 -0.00973619 19.45703687 -0.00589226 21.1875 0 C21.99078735 -0.00607269 22.79407471 -0.01214539 23.6217041 -0.0184021 C29.63554009 0.05632915 33.75501742 1.37574987 38.40625 5.3984375 C41.85943594 9.49110232 41.27120724 14.15326967 41.296875 19.23046875 C41.30257507 20.09983566 41.30827515 20.96920258 41.31414795 21.86491394 C41.32359278 23.70493352 41.33012988 25.54496998 41.33398438 27.38500977 C41.34367737 30.18991894 41.3747001 32.99409129 41.40625 35.79882812 C41.41278168 37.58853733 41.4180315 39.37825176 41.421875 41.16796875 C41.4342218 42.00254105 41.4465686 42.83711334 41.45928955 43.69697571 C41.44047616 48.65370531 41.00750596 52.19850148 38.09375 56.3984375 C33.12924059 60.89897846 28.72422374 61.01309453 22.34765625 61 C21.41831772 61.00857025 20.48897919 61.0171405 19.53147888 61.02597046 C17.57236988 61.03742044 15.61317588 61.03848449 13.65405273 61.02978516 C10.6682742 61.02346296 7.686461 61.07041641 4.70117188 61.12109375 C2.79167164 61.12564035 0.88216081 61.12704644 -1.02734375 61.125 C-1.91296494 61.14341949 -2.79858612 61.16183899 -3.71104431 61.18081665 C-9.42095272 61.09623656 -12.44884653 59.89986436 -16.62464905 55.97836304 C-18.82722946 53.2630771 -19.03741505 50.6564563 -19.08325195 47.29760742 C-19.09608719 46.47632858 -19.10892242 45.65504974 -19.12214661 44.80888367 C-19.12953354 43.92449112 -19.13692047 43.04009857 -19.14453125 42.12890625 C-19.152603 41.21514725 -19.16067474 40.30138824 -19.16899109 39.35993958 C-19.18282007 37.42576997 -19.19354753 35.49157608 -19.20141602 33.55737305 C-19.21862458 30.60743707 -19.26252051 27.65862329 -19.30664062 24.70898438 C-19.3167684 22.82813323 -19.32528424 20.94727257 -19.33203125 19.06640625 C-19.34953934 18.1880864 -19.36704742 17.30976654 -19.38508606 16.40483093 C-19.36583866 10.9393977 -18.73367671 7.60864667 -14.90625 3.3984375 C-10.04315712 0.05792646 -5.69063178 -0.04302005 0 0 Z " fill="#82CC8E" transform="translate(198.90625,366.6015625)"/>
<path d="M0 0 C0.91330078 -0.00287018 1.82660156 -0.00574036 2.76757812 -0.00869751 C4.69401674 -0.01073439 6.62047622 -0.00523085 8.546875 0.00732422 C11.49005524 0.02338324 14.4318623 0.0074628 17.375 -0.01171875 C19.25000302 -0.00973625 21.12500519 -0.00589244 23 0 C23.87720703 -0.00607269 24.75441406 -0.01214539 25.65820312 -0.0184021 C31.91697784 0.05339459 35.09098376 1.19765563 39.77929688 5.48071289 C42.25122966 9.67226634 42.0744913 13.29727873 42.03125 18.08203125 C42.0350769 19.0151564 42.03890381 19.94828156 42.04284668 20.90968323 C42.04556312 22.8790088 42.03822072 24.84837062 42.02148438 26.81762695 C42.00009493 29.82260135 42.02128254 32.82517842 42.046875 35.83007812 C42.0442312 37.74740108 42.03910515 39.66472256 42.03125 41.58203125 C42.03934692 42.47595078 42.04744385 43.3698703 42.05578613 44.2908783 C41.97365088 49.79082397 41.28804853 53.12065304 37.5 57.3984375 C33.13882665 61.10864556 28.71503408 60.8508437 23.25390625 60.83203125 C22.36517319 60.8372731 21.47644012 60.84251495 20.56077576 60.84791565 C18.68562868 60.85432432 16.81044135 60.85301383 14.93530273 60.84448242 C12.07527653 60.8359755 9.2172508 60.86474404 6.35742188 60.89648438 C4.5312506 60.89809671 2.7050758 60.89751824 0.87890625 60.89453125 C-0.3963517 60.91138222 -0.3963517 60.91138222 -1.69737244 60.92857361 C-7.11609682 60.86536912 -10.18775102 59.97829988 -14.5 56.3984375 C-18.71913698 51.59735059 -18.68261918 46.96628573 -18.73828125 40.8203125 C-18.746353 39.97551331 -18.75442474 39.13071411 -18.76274109 38.26031494 C-18.77656834 36.47157841 -18.78729657 34.68281564 -18.79516602 32.89404297 C-18.81234912 30.17233576 -18.85624274 27.4518531 -18.90039062 24.73046875 C-18.91052085 22.98959223 -18.91903593 21.24870542 -18.92578125 19.5078125 C-18.94328934 18.70027527 -18.96079742 17.89273804 -18.97883606 17.06072998 C-18.95720823 11.36393735 -17.89206288 8.02552572 -14.5 3.3984375 C-10.18245876 -0.4312294 -5.48409336 -0.03796506 0 0 Z " fill="#82CC8E" transform="translate(383.5,170.6015625)"/>
<path d="M0 0 C0.80125809 -0.01283524 1.60251617 -0.02567047 2.42805481 -0.03889465 C3.29057358 -0.04628159 4.15309235 -0.05366852 5.04174805 -0.0612793 C5.933311 -0.06935104 6.82487396 -0.07742279 7.74345398 -0.08573914 C9.63054466 -0.09956711 11.51766022 -0.11029502 13.40478516 -0.11816406 C16.28230479 -0.1353715 19.15867361 -0.17926792 22.03588867 -0.22338867 C23.8711667 -0.2335166 25.70645448 -0.24203239 27.54174805 -0.2487793 C28.82641716 -0.27504143 28.82641716 -0.27504143 30.13703918 -0.30183411 C36.61838179 -0.27844535 39.96304231 1.47872087 44.84106445 5.82568359 C46.72400897 9.67592533 46.41778818 13.57165052 46.3894043 17.7980957 C46.39227448 18.73500748 46.39514465 19.67191925 46.39810181 20.63722229 C46.4001413 22.61671554 46.39461946 24.596229 46.38208008 26.57568359 C46.36604289 29.60015137 46.38192347 32.62327916 46.40112305 35.64770508 C46.39914024 37.57283823 46.3952958 39.49797055 46.3894043 41.4230957 C46.39851334 42.7764225 46.39851334 42.7764225 46.4078064 44.15708923 C46.35434748 48.94872218 46.25605665 52.39961442 42.9909668 56.17700195 C37.97202894 60.59412147 33.80000738 60.76762514 27.4284668 60.70825195 C26.51895264 60.71207886 25.60943848 60.71590576 24.67236328 60.71984863 C22.75609221 60.7225615 20.8397837 60.71524421 18.92358398 60.69848633 C15.99988809 60.67706731 13.07864928 60.6983088 10.1550293 60.72387695 C8.2878364 60.72123357 6.42064503 60.71610836 4.5534668 60.70825195 C3.68455811 60.71634888 2.81564941 60.7244458 1.92041016 60.73278809 C-3.485823 60.64976625 -6.88388106 60.00661152 -11.0090332 56.17700195 C-14.10262159 50.84118529 -14.46467149 46.16645026 -14.44262695 40.1730957 C-14.45048973 38.91082909 -14.45048973 38.91082909 -14.45851135 37.62306213 C-14.46490169 35.85402525 -14.46363351 34.08494571 -14.45507812 32.31591797 C-14.4465457 29.61845128 -14.47540539 26.9230893 -14.50708008 24.22583008 C-14.50869187 22.49991925 -14.50811498 20.7740047 -14.50512695 19.0480957 C-14.51636093 18.2479454 -14.52759491 17.4477951 -14.53916931 16.62339783 C-14.46264212 10.44178317 -12.50324232 7.07028453 -8.4465332 2.36450195 C-5.84563759 0.21593601 -3.2297453 0.04518791 0 0 Z " fill="#82CC8E" transform="translate(379.009033203125,268.822998046875)"/>
<path d="M0 0 C0.84384247 -0.00807175 1.68768494 -0.01614349 2.55709839 -0.02445984 C4.34761499 -0.03830612 6.13815805 -0.04902584 7.92871094 -0.05688477 C10.64830822 -0.07402103 13.36666528 -0.11789156 16.0859375 -0.16210938 C17.82811608 -0.17224333 19.57030499 -0.18075723 21.3125 -0.1875 C22.118013 -0.20500809 22.923526 -0.22251617 23.75344849 -0.24055481 C29.46076573 -0.2189753 33.85132718 0.90957644 38.5546875 4.23828125 C42.43238911 8.47163856 41.99082782 13.29206798 41.953125 18.73828125 C41.95599518 19.65158203 41.95886536 20.56488281 41.96182251 21.50585938 C41.96385939 23.43229799 41.95835585 25.35875747 41.94580078 27.28515625 C41.92974176 30.22833649 41.9456622 33.17014355 41.96484375 36.11328125 C41.96286125 37.98828427 41.95901744 39.86328644 41.953125 41.73828125 C41.96223404 43.0540918 41.96223404 43.0540918 41.9715271 44.39648438 C41.90490221 50.20441541 40.9000283 53.50205032 37.0546875 57.98828125 C34.37455183 60.22172764 31.70284259 60.37302487 28.36206055 60.43115234 C27.52076096 60.44721527 26.67946136 60.4632782 25.81266785 60.47982788 C21.97058065 60.52444399 18.12866277 60.56533578 14.28637695 60.58837891 C12.26217145 60.60493749 10.23802439 60.6322262 8.21411133 60.67041016 C5.28956904 60.72527067 2.36639428 60.74706596 -0.55859375 60.76171875 C-1.45878738 60.78438812 -2.35898102 60.8070575 -3.28645325 60.83041382 C-7.54872472 60.81613519 -10.51875017 60.65147199 -13.93823242 57.95556641 C-18.70961301 52.78413141 -18.753539 49.13362581 -18.74609375 42.30859375 C-18.75037888 41.44064178 -18.754664 40.57268982 -18.75907898 39.67843628 C-18.76481507 37.84438956 -18.76532785 36.01032009 -18.76098633 34.17626953 C-18.75783152 31.38013557 -18.78127615 28.58506533 -18.80664062 25.7890625 C-18.80891431 24.00390758 -18.80961679 22.21874983 -18.80859375 20.43359375 C-18.8178035 19.60215851 -18.82701324 18.77072327 -18.83650208 17.91409302 C-18.79720245 12.94569209 -18.1895241 9.54506092 -15.4453125 5.23828125 C-10.24053523 0.54128713 -6.83877535 0.06178322 0 0 Z " fill="#82CC8E" transform="translate(291.4453125,366.76171875)"/>
<path d="M0 0 C1.20661537 -0.01429802 1.20661537 -0.01429802 2.43760681 -0.02888489 C3.72834862 -0.02751778 3.72834862 -0.02751778 5.04516602 -0.02612305 C6.38394554 -0.03255074 6.38394554 -0.03255074 7.74977112 -0.03910828 C9.6350927 -0.04484443 11.52043641 -0.0453571 13.40576172 -0.04101562 C16.28529743 -0.03785691 19.16380423 -0.06131911 22.04321289 -0.08666992 C23.87719597 -0.08894316 25.71118181 -0.0896463 27.54516602 -0.08862305 C28.40363632 -0.09783279 29.26210663 -0.10704254 30.14659119 -0.11653137 C34.88757398 -0.07996381 38.00874539 0.20967068 41.86157227 3.2746582 C46.49761277 8.55459322 47.03768251 11.83827229 47.09985352 18.7199707 C47.10792526 19.56381317 47.11599701 20.40765564 47.12431335 21.27706909 C47.13815963 23.06758569 47.14887935 24.85812875 47.15673828 26.64868164 C47.17387454 29.36827892 47.21774507 32.08663599 47.26196289 34.8059082 C47.27209685 36.54808679 47.28061075 38.29027569 47.28735352 40.0324707 C47.3048616 40.8379837 47.32236969 41.6434967 47.34040833 42.47341919 C47.31901377 48.13181771 46.30236497 52.67656927 42.86157227 57.2746582 C38.06320047 60.82554121 33.26139023 60.72815791 27.51782227 60.70825195 C26.63050415 60.7134938 25.74318604 60.71873566 24.82897949 60.72413635 C22.95980879 60.7305372 21.0905977 60.72924474 19.22143555 60.72070312 C16.37028023 60.71218422 13.5211242 60.74099499 10.67016602 60.77270508 C8.84855203 60.77431714 7.02693452 60.77373946 5.20532227 60.77075195 C3.9347699 60.78760292 3.9347699 60.78760292 2.6385498 60.80479431 C-2.745651 60.74173946 -5.93870863 59.95492593 -10.13842773 56.2746582 C-13.94435524 51.85202948 -13.60592796 47.15035226 -13.60717773 41.59106445 C-13.61479126 40.6579393 -13.62240479 39.72481415 -13.63024902 38.76341248 C-13.64103225 36.79412506 -13.64391036 34.82478053 -13.6394043 32.85546875 C-13.638432 29.85034404 -13.6800727 26.8477739 -13.72436523 23.84301758 C-13.72957268 21.92570517 -13.73226042 20.00838393 -13.73217773 18.09106445 C-13.748573 17.19714493 -13.76496826 16.3032254 -13.78186035 15.38221741 C-13.73511261 11.14069446 -13.53178534 8.18632391 -10.85131836 4.78613281 C-7.33194901 1.52805573 -4.80969572 0.03145974 0 0 Z " fill="#82CC8E" transform="translate(100.138427734375,268.725341796875)"/>
<path d="M0 0 C2.8100346 1.79363911 4.50940468 3.01880935 6 6 C6.10733875 8.18919041 6.14890628 10.38170012 6.16113281 12.57348633 C6.16609772 13.24849686 6.17106262 13.92350739 6.17617798 14.61897278 C6.19080697 16.85666924 6.19760337 19.09429478 6.203125 21.33203125 C6.20887658 22.88661196 6.21463432 24.44119265 6.22039795 25.99577332 C6.23091054 29.25833466 6.23675127 32.52087136 6.24023438 35.78344727 C6.24571461 39.95989704 6.26973123 44.13602005 6.29820633 48.31236744 C6.3168512 51.52517135 6.32203932 54.73789691 6.32357025 57.95075035 C6.32659399 59.49010692 6.33461315 61.0294622 6.34775543 62.56876564 C6.36485249 64.72553799 6.36292707 66.88151705 6.35644531 69.03833008 C6.36009094 70.26473709 6.36373657 71.4911441 6.36749268 72.75471497 C5.96671539 76.2939325 5.1048367 78.15969781 3 81 C-0.21522137 83.32826375 -3.10830425 83.39711181 -7 83 C-10.78816922 81.2781049 -12.53340309 79.87009703 -14 76 C-14.26742554 72.89515686 -14.26742554 72.89515686 -14.29052734 69.19946289 C-14.29724457 68.52416031 -14.30396179 67.84885773 -14.31088257 67.15309143 C-14.32984233 64.92620437 -14.33378549 62.69961894 -14.3359375 60.47265625 C-14.3423662 58.92093279 -14.34909461 57.36921054 -14.35610962 55.81748962 C-14.36807683 52.56685577 -14.37179096 49.31632815 -14.37060547 46.06567383 C-14.37040216 41.90483736 -14.39771847 37.74468299 -14.43214989 33.58400822 C-14.45440938 30.37976464 -14.45844334 27.17568558 -14.45738602 23.9713726 C-14.45974287 22.43759241 -14.46857124 20.90380773 -14.48405075 19.37010384 C-14.50369555 17.2228962 -14.49788079 15.07716413 -14.48583984 12.92993164 C-14.48868988 11.70955704 -14.49153992 10.48918243 -14.49447632 9.23182678 C-13.90634791 5.38790326 -12.69983055 3.74461335 -10 1 C-6.79826746 -0.60086627 -3.47422941 -0.49917089 0 0 Z " fill="#84CD90" transform="translate(107,13)"/>
<path d="M0 0 C2.8100346 1.79363911 4.50940468 3.01880935 6 6 C6.11769727 8.21957267 6.16985327 10.44271134 6.19287109 12.6652832 C6.20104858 13.3500473 6.20922607 14.0348114 6.21765137 14.74032593 C6.24249948 17.0104688 6.25902 19.28054915 6.2734375 21.55078125 C6.27876118 22.32601828 6.28408485 23.1012553 6.28956985 23.89998436 C6.31629929 28.00354397 6.33567454 32.10707318 6.35009766 36.21069336 C6.36674278 40.44789171 6.41151891 44.68431184 6.4624691 48.92121601 C6.49613655 52.18034247 6.50767444 55.43928411 6.51332474 58.69856834 C6.520039 60.26029595 6.53526588 61.82201132 6.55921555 63.38356972 C6.59086174 65.57186784 6.59090629 67.75806604 6.58349609 69.9465332 C6.59158295 71.19070511 6.5996698 72.43487701 6.60800171 73.7167511 C5.83455332 77.89342289 4.23690962 79.34690644 1 82 C-1.90295805 83.45147903 -3.77261779 83.37239025 -7 83 C-9.92937654 81.18689858 -12.43647949 79.12704101 -14 76 C-14.11247552 73.81093131 -14.15937367 71.6183991 -14.17700195 69.42651367 C-14.18357315 68.75150314 -14.19014435 68.07649261 -14.19691467 67.38102722 C-14.21665263 65.14333996 -14.22831158 62.90571985 -14.23828125 60.66796875 C-14.24235678 59.90376429 -14.2464323 59.13955982 -14.25063133 58.35219765 C-14.27149468 54.30698542 -14.28579495 50.26180714 -14.29516602 46.21655273 C-14.30622824 42.0400055 -14.34062461 37.86399138 -14.38033772 33.68763256 C-14.40649503 30.47482824 -14.41485705 27.26215108 -14.41844749 24.04924965 C-14.42331617 22.50987461 -14.4349383 20.97050536 -14.45348549 19.43123436 C-14.47785868 17.27428453 -14.47691619 15.11871556 -14.4699707 12.96166992 C-14.47583694 11.73526291 -14.48170319 10.5088559 -14.48774719 9.24528503 C-13.90807922 5.38839398 -12.70953281 3.75060816 -10 1 C-6.79826746 -0.60086627 -3.47422941 -0.49917089 0 0 Z " fill="#84CC90" transform="translate(413,13)"/>
<path d="M0 0 C2.85432986 0.5315756 4.69665618 1.52040803 6.9296875 3.359375 C9.23959003 6.85861748 9.18852425 9.94117023 9.2043457 14.06811523 C9.2120121 15.06643875 9.2120121 15.06643875 9.21983337 16.08493042 C9.23370413 18.27936866 9.23277457 20.47349195 9.23046875 22.66796875 C9.23435706 24.19727189 9.23869201 25.72657396 9.24345398 27.25587463 C9.25091075 30.45943708 9.25062887 33.66288931 9.24536133 36.86645508 C9.23956722 40.96665162 9.25649855 45.06639636 9.279706 49.16651821 C9.29445583 52.32443366 9.29531336 55.48224061 9.29219627 58.6401844 C9.29270885 60.15162107 9.29793477 61.6630639 9.30800819 63.17446709 C9.32038009 65.29035464 9.31357746 67.40536613 9.30200195 69.52124023 C9.30263138 70.72384995 9.3032608 71.92645966 9.3039093 73.16551208 C8.89333788 76.66960735 8.00952039 78.54096322 5.9296875 81.359375 C2.70401245 83.69520866 -0.17245669 83.97080336 -4.0703125 83.359375 C-7.24713539 81.96897335 -9.17811087 80.27028018 -11.0703125 77.359375 C-12.12639317 71.98595494 -12.00769547 66.64856455 -11.9296875 61.19921875 C-11.92932348 59.60551335 -11.93133389 58.01180579 -11.93560791 56.41810608 C-11.93690011 53.08477011 -11.91399978 49.75275608 -11.87304688 46.41967773 C-11.82192914 42.15317937 -11.82418057 37.88875634 -11.84365463 33.62206173 C-11.85396392 30.33360338 -11.83951523 27.04561993 -11.81726837 23.75723457 C-11.80892111 22.18442458 -11.80740523 20.61156263 -11.81291962 19.03874016 C-11.81621202 16.83850534 -11.78701513 14.6410215 -11.74902344 12.44116211 C-11.73901306 11.19129013 -11.72900269 9.94141815 -11.71868896 8.65367126 C-10.41837126 2.04696671 -6.27213485 -0.4260318 0 0 Z " fill="#83CA8E" transform="translate(308.0703125,12.640625)"/>
<path d="M0 0 C3.4203866 1.17013226 3.91540482 1.87310723 6 5 C6.26742554 8.06051636 6.26742554 8.06051636 6.29052734 11.87060547 C6.30060318 12.91260101 6.30060318 12.91260101 6.31088257 13.97564697 C6.32988567 16.27289985 6.33378796 18.5698609 6.3359375 20.8671875 C6.34236415 22.46518067 6.34909242 24.06317265 6.35610962 25.66116333 C6.36808838 29.0119296 6.37178987 32.36259273 6.37060547 35.71337891 C6.37040232 40.00315146 6.39769734 44.29226123 6.43214989 48.58187675 C6.45440923 51.8830569 6.45844331 55.18407735 6.45738602 58.48532486 C6.45974371 60.06655282 6.46857681 61.64778506 6.48405075 63.22893906 C6.50369109 65.443297 6.49788182 67.65622351 6.48583984 69.87060547 C6.48868988 71.12952606 6.49153992 72.38844666 6.49447632 73.68551636 C5.91235868 77.58746133 4.75909939 79.23345667 2 82 C-1.00535468 83.23492756 -3.78256729 83.38965448 -7 83 C-10.62557535 81.14960262 -12.69660442 78.91018674 -14 75 C-14.10957167 72.83945568 -14.15900459 70.6756973 -14.17700195 68.51245117 C-14.18357315 67.85840805 -14.19014435 67.20436493 -14.19691467 66.53050232 C-14.21661015 64.3679899 -14.22830181 62.2055468 -14.23828125 60.04296875 C-14.24235678 59.30299463 -14.2464323 58.56302052 -14.25063133 57.80062294 C-14.2714761 53.88393052 -14.28578467 49.96727297 -14.29516602 46.05053711 C-14.30622719 42.01199227 -14.34062759 37.97399892 -14.38033772 33.93564892 C-14.40652288 30.82403054 -14.41485949 27.71254322 -14.41844749 24.60082436 C-14.4233086 23.11251412 -14.43490913 21.62420955 -14.45348549 20.13600731 C-14.4779194 18.04880827 -14.47690536 15.96303166 -14.4699707 13.87573242 C-14.47583694 12.69009201 -14.48170319 11.5044516 -14.48774719 10.28288269 C-13.89640146 6.30270875 -12.48736044 4.1249074 -10 1 C-6.82245725 -0.58877137 -3.46605757 -0.27508393 0 0 Z " fill="#82CB8E" transform="translate(209,13)"/>
<path d="M0 0 C8.353125 -0.061875 8.353125 -0.061875 16.875 -0.125 C19.51024658 -0.15231201 19.51024658 -0.15231201 22.19873047 -0.18017578 C23.58821303 -0.18601593 24.97769901 -0.19111262 26.3671875 -0.1953125 C27.09107666 -0.20554443 27.81496582 -0.21577637 28.56079102 -0.22631836 C30.37542936 -0.22695396 32.18951973 -0.12277575 34 0 C34.66 0.66 35.32 1.32 36 2 C24.78 2 13.56 2 2 2 C2 13.22 2 24.44 2 36 C1.01 36.495 1.01 36.495 0 37 C0 24.79 0 12.58 0 0 Z " fill="#70A179" transform="translate(439,57)"/>
<path d="M0 0 C11.55 0 23.1 0 35 0 C35 12.21 35 24.42 35 37 C32.54621071 33.31931607 32.69353786 31.31946281 32.5859375 26.92578125 C32.55032715 25.67450439 32.5147168 24.42322754 32.47802734 23.1340332 C32.44402832 21.54292725 32.4100293 19.95182129 32.375 18.3125 C32.25125 13.259375 32.1275 8.20625 32 3 C21.11 2.67 10.22 2.34 -1 2 C-0.67 1.34 -0.34 0.68 0 0 Z " fill="#70A078" transform="translate(38,57)"/>
<path d="M0 0 C0.66 0 1.32 0 2 0 C2.33 0.99 2.66 1.98 3 3 C1.625 4.5 1.625 4.5 0 6 C-0.66 6 -1.32 6 -2 6 C-2 20.19 -2 34.38 -2 49 C-2.99 48.67 -3.98 48.34 -5 48 C-5.07436251 42.41327806 -5.12870254 36.82684661 -5.16479492 31.23974609 C-5.17984691 29.34060647 -5.20029316 27.44150141 -5.22631836 25.54248047 C-5.26285992 22.80687919 -5.27976238 20.071739 -5.29296875 17.3359375 C-5.30845261 16.49195404 -5.32393646 15.64797058 -5.33988953 14.77841187 C-5.34131208 9.75365329 -4.76116713 6.36768726 -2 2 C-1.34 1.34 -0.68 0.68 0 0 Z " fill="#7EB68A" transform="translate(278,370)"/>
<path d="M0 0 C5.60504881 -0.04951793 11.20996965 -0.08577555 16.81518555 -0.10986328 C18.7211326 -0.11990737 20.62706429 -0.13354516 22.53295898 -0.15087891 C25.27591752 -0.17519718 28.01867191 -0.18649912 30.76171875 -0.1953125 C32.03543587 -0.21079636 32.03543587 -0.21079636 33.33488464 -0.22659302 C37.68255955 -0.22741351 41.0400665 -0.03452583 45 2 C42.21945349 2.78670772 39.76039307 3.12265947 36.87402344 3.11352539 C36.07349548 3.11344986 35.27296753 3.11337433 34.44818115 3.11329651 C33.16672211 3.10555458 33.16672211 3.10555458 31.859375 3.09765625 C30.97719299 3.0962413 30.09501099 3.09482635 29.18609619 3.09336853 C26.37402935 3.08778001 23.5620427 3.07522961 20.75 3.0625 C18.84114698 3.05748352 16.93229272 3.05292087 15.0234375 3.04882812 C10.34892753 3.03781434 5.67447735 3.02055758 1 3 C0.67 2.01 0.34 1.02 0 0 Z " fill="#8CC796" transform="translate(190,171)"/>
<path d="M0 0 C12.54 0 25.08 0 38 0 C38 0.33 38 0.66 38 1 C26.12 1.33 14.24 1.66 2 2 C1.75049376 12.72499392 1.75049376 12.72499392 1.52197266 23.45043945 C1.4867623 24.79640681 1.45084055 26.14235582 1.4140625 27.48828125 C1.39702271 28.53405334 1.39702271 28.53405334 1.37963867 29.60095215 C1.2700593 33.25865874 1.08374375 34.87438437 -1 38 C-0.67 25.46 -0.34 12.92 0 0 Z " fill="#8BC896" transform="translate(236,58)"/>
<path d="M0 0 C0.99 0 1.98 0 3 0 C3 22.77 3 45.54 3 69 C2.67 69 2.34 69 2 69 C1.98969254 68.17980881 1.97938507 67.35961761 1.96876526 66.51457214 C1.87083511 58.78945856 1.76832704 51.06442579 1.66066074 43.33944225 C1.60546885 39.36784315 1.55205482 35.39623663 1.50268555 31.42456055 C1.45498692 27.59252318 1.40264211 23.76057501 1.34705925 19.92864418 C1.32666062 18.46582571 1.30794342 17.0029828 1.29092598 15.54012108 C1.26682673 13.49304745 1.23677992 11.44614184 1.20532227 9.39916992 C1.18977798 8.23334885 1.1742337 7.06752777 1.15821838 5.86637878 C1.12225371 2.92765899 1.12225371 2.92765899 0 0 Z " fill="#8DC897" transform="translate(212,20)"/>
<path d="M0 0 C0.99 0 1.98 0 3 0 C2.70179167 3.57849992 2.25754642 4.76226484 -0.4375 7.25 C-5.03276202 10.38822772 -8.73656731 10.12925555 -14.1640625 10.09765625 C-15.07127045 10.0962413 -15.97847839 10.09482635 -16.91317749 10.09336853 C-19.81715155 10.08776096 -22.72104915 10.07520718 -25.625 10.0625 C-27.59114472 10.05748598 -29.55729065 10.0529229 -31.5234375 10.04882812 C-36.3489879 10.03778906 -41.17448097 10.02051935 -46 10 C-46 9.67 -46 9.34 -46 9 C-44.80922852 8.9906543 -43.61845703 8.98130859 -42.39160156 8.97167969 C-37.97064908 8.93178613 -33.55039297 8.86602927 -29.12988281 8.79248047 C-27.21721344 8.76426714 -25.3044274 8.74305439 -23.39160156 8.72900391 C-20.64066827 8.70757919 -17.89113825 8.6609326 -15.140625 8.609375 C-14.28631897 8.60814636 -13.43201294 8.60691772 -12.55181885 8.60565186 C-7.6334408 8.53564744 -7.6334408 8.53564744 -3.55371094 5.96191406 C-3.04098633 5.31448242 -2.52826172 4.66705078 -2 4 C-1.34 4 -0.68 4 0 4 C0 2.68 0 1.36 0 0 Z " fill="#8CC496" transform="translate(236,417)"/>
<path d="M0 0 C0.33 0 0.66 0 1 0 C1.07426628 5.74744858 1.12865726 11.4946166 1.16479492 17.24243164 C1.17986301 19.19690823 1.20032124 21.15135112 1.22631836 23.10571289 C1.26278865 25.91821623 1.27974622 28.73027174 1.29296875 31.54296875 C1.30845261 32.41398727 1.32393646 33.2850058 1.33988953 34.18241882 C1.34121224 38.97184559 1.09358851 42.09881613 -2 46 C-4 47.875 -4 47.875 -6 49 C-6.99 48.67 -7.98 48.34 -9 48 C-7.625 46.5 -7.625 46.5 -6 45 C-5.34 45 -4.68 45 -4 45 C-0.34244487 40.58570932 -0.52933846 36.21773324 -0.48828125 30.76171875 C-0.47033005 29.88095169 -0.45237885 29.00018463 -0.43388367 28.09272766 C-0.3798809 25.2910332 -0.34591734 22.48950813 -0.3125 19.6875 C-0.27931805 17.78317961 -0.24482757 15.87888154 -0.20898438 13.97460938 C-0.12416022 9.31652866 -0.05730126 4.6584973 0 0 Z " fill="#91C599" transform="translate(424,279)"/>
<path d="M0 0 C0.99 0 1.98 0 3 0 C2.67 0.99 2.34 1.98 2 3 C-11.53 3 -25.06 3 -39 3 C-39 2.67 -39 2.34 -39 2 C-26.13 2 -13.26 2 0 2 C0 1.34 0 0.68 0 0 Z " fill="#8CC997" transform="translate(230,227)"/>
<path d="M0 0 C2 3 2 3 1.734375 4.8984375 C1.49203125 5.59195313 1.2496875 6.28546875 1 7 C0.73703125 7.75539063 0.4740625 8.51078125 0.203125 9.2890625 C-2.39481496 15.65614486 -2.39481496 15.65614486 -5.75 17.5625 C-6.4925 17.706875 -7.235 17.85125 -8 18 C-7.40789978 14.94635952 -6.50343057 13.10070448 -4.5625 10.6875 C-1.96828864 7.22355304 -0.94367711 4.20365257 0 0 Z " fill="#85C392" transform="translate(438,92)"/>
<path d="M0 0 C2.625 -0.1875 2.625 -0.1875 5 0 C3.64978174 4.41889613 1.73884332 6.34345343 -2 9 C-3.32 8.34 -4.64 7.68 -6 7 C-5.071875 6.1028125 -5.071875 6.1028125 -4.125 5.1875 C-1.86323046 2.99188856 -1.86323046 2.99188856 0 0 Z " fill="#82C08C" transform="translate(141,418)"/>
<path d="M0 0 C0.66 0.33 1.32 0.66 2 1 C0.13529649 4.54293666 -1.09364418 6.77228817 -5 8 C-8.25 8.125 -8.25 8.125 -11 8 C-10.67 6.68 -10.34 5.36 -10 4 C-8.63875 4.0309375 -8.63875 4.0309375 -7.25 4.0625 C-4.57327412 4.0110245 -2.53011948 3.7784983 0 3 C0 2.01 0 1.02 0 0 Z " fill="#7FBB8A" transform="translate(111,88)"/>
<path d="M0 0 C0.33 0 0.66 0 1 0 C0.80743982 8.19256018 0.80743982 8.19256018 -2.5625 11.5625 C-3.366875 12.036875 -4.17125 12.51125 -5 13 C-5.66 12.67 -6.32 12.34 -7 12 C-6.401875 11.13375 -5.80375 10.2675 -5.1875 9.375 C-3.17955466 6.37380056 -1.55344902 3.26224294 0 0 Z " fill="#84BD8F" transform="translate(133,93)"/>
<path d="M0 0 C0.556875 0.721875 1.11375 1.44375 1.6875 2.1875 C3.96352756 5.05960347 3.96352756 5.05960347 6.6875 7.625 C9 10 9 10 10 13 C6.06991222 11.68997074 3.52221456 10.33292638 1 7 C0.25 3.25 0.25 3.25 0 0 Z " fill="#83BB8E" transform="translate(180,414)"/>
<path d="M0 0 C0.70125 0.2475 1.4025 0.495 2.125 0.75 C1.485625 0.87375 0.84625 0.9975 0.1875 1.125 C-0.493125 1.33125 -1.17375 1.5375 -1.875 1.75 C-2.205 2.41 -2.535 3.07 -2.875 3.75 C-5.375 5.25 -5.375 5.25 -7.875 6.75 C-8.205 7.41 -8.535 8.07 -8.875 8.75 C-9.535 8.75 -10.195 8.75 -10.875 8.75 C-9.8884467 5.19840813 -8.92488367 3.79212398 -6.0625 1.375 C-2.875 -0.25 -2.875 -0.25 0 0 Z " fill="#82B98B" transform="translate(376.875,171.25)"/>
<path d="M0 0 C0.33 0 0.66 0 1 0 C0.76228108 7.01270824 0.76228108 7.01270824 -1.296875 9.6796875 C-2.875 11.0625 -2.875 11.0625 -6 13 C-6.99 12.67 -7.98 12.34 -9 12 C-7.625 10.5 -7.625 10.5 -6 9 C-5.34 9 -4.68 9 -4 9 C-1.98217268 6.09432866 -0.64505596 3.48330216 0 0 Z " fill="#89C192" transform="translate(424,315)"/>
<path d="M0 0 C0.66 0.99 1.32 1.98 2 3 C1.34 3 0.68 3 0 3 C-0.12246094 3.56203125 -0.24492187 4.1240625 -0.37109375 4.703125 C-1.0519869 7.18986519 -1.99352325 9.40514776 -3.0625 11.75 C-3.60583984 12.94882813 -3.60583984 12.94882813 -4.16015625 14.171875 C-4.43730469 14.77515625 -4.71445313 15.3784375 -5 16 C-6.25348607 13.04893565 -6.01044806 12.02593537 -4.78515625 8.984375 C-4.21667969 7.91703125 -3.64820313 6.8496875 -3.0625 5.75 C-2.49660156 4.67234375 -1.93070313 3.5946875 -1.34765625 2.484375 C-0.90292969 1.66453125 -0.45820313 0.8446875 0 0 Z " fill="#7BB083" transform="translate(19,68)"/>
<path d="M0 0 C0.66 0.33 1.32 0.66 2 1 C0.9375 3.5 0.9375 3.5 -1 6 C-4.6875 6.3125 -4.6875 6.3125 -8 6 C-3.375 1.125 -3.375 1.125 0 0 Z " fill="#89C794" transform="translate(141,322)"/>
<path d="M0 0 C0.33 0.66 0.66 1.32 1 2 C1.66 2 2.32 2 3 2 C3.28875 2.969375 3.5775 3.93875 3.875 4.9375 C4.64214682 8.10664203 4.64214682 8.10664203 7 9 C6.67 9.99 6.34 10.98 6 12 C2.59156258 9.11593757 1.13408616 7.6291735 0.1875 3.1875 C0.125625 2.135625 0.06375 1.08375 0 0 Z " fill="#88BE91" transform="translate(87,414)"/>
<path d="M0 0 C2.35964273 0.40683495 3.85934088 0.89814339 5.8125 2.3125 C7 4 7 4 6.6875 6.1875 C6.460625 6.785625 6.23375 7.38375 6 8 C4.68 7.67 3.36 7.34 2 7 C2.04125 6.21625 2.0825 5.4325 2.125 4.625 C2.28728734 1.83883881 2.28728734 1.83883881 0 0 Z " fill="#89C894" transform="translate(138,271)"/>
<path d="M0 0 C0 0.66 0 1.32 0 2 C-0.66 2 -1.32 2 -2 2 C-2 2.66 -2 3.32 -2 4 C-2.66 4 -3.32 4 -4 4 C-4.28875 4.78375 -4.5775 5.5675 -4.875 6.375 C-6 9 -6 9 -8 11 C-7.71915428 6.97454466 -7.21634296 5.25517374 -4.5625 2.125 C-2 0 -2 0 0 0 Z " fill="#86BF8F" transform="translate(374,270)"/>
<path d="M0 0 C1.32 0.33 2.64 0.66 4 1 C5.10844919 4.32534757 4.84454356 6.62182575 4 10 C2.26337666 6.77484237 1.1094072 3.48670834 0 0 Z " fill="#84BB8C" transform="translate(420,274)"/>
<path d="M0 0 C0.66 0 1.32 0 2 0 C1.8125 1.8125 1.8125 1.8125 1 4 C-1.5625 5.75 -1.5625 5.75 -4 7 C-4.99 6.34 -5.98 5.68 -7 5 C-6.030625 4.54625 -5.06125 4.0925 -4.0625 3.625 C-0.92920418 2.34213779 -0.92920418 2.34213779 0 0 Z " fill="#84B98F" transform="translate(236,321)"/>
<path d="M0 0 C2 1.3125 2 1.3125 4 3 C4 3.99 4 4.98 4 6 C5.32 6.66 6.64 7.32 8 8 C7.01 8.495 7.01 8.495 6 9 C1.3125 5.484375 1.3125 5.484375 0 4 C0 2.68 0 1.36 0 0 Z " fill="#89C092" transform="translate(88,319)"/>
<path d="M0 0 C0.66 0 1.32 0 2 0 C0.63016497 3.16115776 0.0109362 3.9927092 -3 6 C-3.99 6 -4.98 6 -6 6 C-6 5.01 -6 4.02 -6 3 C-4.02 2.67 -2.04 2.34 0 2 C0 1.34 0 0.68 0 0 Z " fill="#80B48A" transform="translate(329,224)"/>
<path d="M0 0 C0.33 0.66 0.66 1.32 1 2 C-2.625 6.875 -2.625 6.875 -6 8 C-5.65120368 4.74456771 -4.97866739 3.98126893 -2.4375 1.75 C-1.633125 1.1725 -0.82875 0.595 0 0 Z " fill="#84B98E" transform="translate(423,222)"/>
<path d="M0 0 C-1.0975223 2.99324263 -1.67682892 3.84610901 -4.625 5.25 C-5.40875 5.4975 -6.1925 5.745 -7 6 C-6.75 4.125 -6.75 4.125 -6 2 C-3.85331506 0.61504198 -2.56128588 0 0 0 Z " fill="#81BE8C" transform="translate(425,112)"/>
<path d="M0 0 C-1.1875 1.5 -1.1875 1.5 -3 3 C-5.6875 3.1875 -5.6875 3.1875 -8 3 C-8 2.34 -8 1.68 -8 1 C-3.375 -1.125 -3.375 -1.125 0 0 Z " fill="#87C190" transform="translate(121,113)"/>
<path d="M0 0 C2 3 2 3 1.75 5 C1 7 1 7 -1 10 C-1.66 9.67 -2.32 9.34 -3 9 C-2.01 6.03 -1.02 3.06 0 0 Z " fill="#7EB588" transform="translate(438,92)"/>
</svg>
